SplineFontDB: 3.0
FontName: RisingSun-HairlineItalic
FullName: Rising Sun Hairline Italic
FamilyName: Rising Sun Hairline
Weight: Thin
Copyright: Copyright (c) 2010 - 2013, Matt McInerney (matt@pixelspread.com), Pablo Impallari (impallari@gmail.com), Rodrigo Fuenzalida (hello@rfuenzalida.com) with Reserved Font Name RALEWAY.\nCopyright (c) 2016, Cristiano Sobral (cssobral2013@gmail.com), with Reserved Font Name RISING SUN.
Version: 1.000
ItalicAngle: -12
UnderlinePosition: -100
UnderlineWidth: 50
Ascent: 800
Descent: 200
InvalidEm: 0
sfntRevision: 0x00010000
LayerCount: 2
Layer: 0 1 "Back" 1
Layer: 1 1 "Fore" 0
XUID: [1021 368 144034212 30571]
StyleMap: 0x0001
FSType: 4
OS2Version: 3
OS2_WeightWidthSlopeOnly: 0
OS2_UseTypoMetrics: 0
CreationTime: 1372299720
ModificationTime: 1466168511
PfmFamily: 17
TTFWeight: 250
TTFWidth: 5
LineGap: 0
VLineGap: 0
Panose: 2 11 2 3 3 1 1 6 0 3
OS2TypoAscent: 800
OS2TypoAOffset: 0
OS2TypoDescent: -200
OS2TypoDOffset: 0
OS2TypoLinegap: 0
OS2WinAscent: 940
OS2WinAOffset: 0
OS2WinDescent: 244
OS2WinDOffset: 0
HheadAscent: 940
HheadAOffset: 0
HheadDescent: -244
HheadDOffset: 0
OS2SubXSize: 700
OS2SubYSize: 650
OS2SubXOff: 0
OS2SubYOff: 140
OS2SupXSize: 700
OS2SupYSize: 650
OS2SupXOff: 0
OS2SupYOff: 477
OS2StrikeYSize: 50
OS2StrikeYPos: 250
OS2CapHeight: 710
OS2XHeight: 519
OS2Vendor: 'pyrs'
OS2CodePages: 20000093.00000000
OS2UnicodeRanges: a00000ff.5000205b.00000000.00000000
Lookup: 1 0 0 "'aalt' Access All Alternates in Latin lookup 0" { "'aalt' Access All Alternates in Latin lookup 0 subtable"  } ['aalt' ('latn' <'dflt' > ) ]
Lookup: 3 0 0 "'aalt' Access All Alternates in Latin lookup 1" { "'aalt' Access All Alternates in Latin lookup 1 subtable"  } ['aalt' ('latn' <'dflt' > ) ]
Lookup: 1 0 0 "'smcp' Lowercase to Small Capitals in Latin lookup 2" { "'smcp' Lowercase to Small Capitals in Latin lookup 2 subtable"  } ['smcp' ('latn' <'dflt' > ) ]

StartChar: exclam
Encoding: 33 33 5
Width: 224
GlyphClass: 2
Flags: W
LayerCount: 2
Fore
SplineSet
81 200 m 1,0,-1
 190 717 l 1,1,-1
 210 717 l 1,2,-1
 101 200 l 1,3,-1
 81 200 l 1,0,-1
38 0 m 1,4,-1
 56 84 l 1,5,-1
 81 84 l 1,6,-1
 58 0 l 1,7,-1
 38 0 l 1,4,-1
EndSplineSet
EndChar

StartChar: quotedbl
Encoding: 34 34 6
Width: 212
GlyphClass: 2
Flags: W
LayerCount: 2
Fore
SplineSet
127 570 m 1,0,-1
 157 710 l 1,1,-1
 177 710 l 1,2,-1
 147 570 l 1,3,-1
 127 570 l 1,0,-1
175 570 m 1,4,-1
 205 710 l 1,5,-1
 225 710 l 1,6,-1
 195 570 l 1,7,-1
 175 570 l 1,4,-1
EndSplineSet
EndChar

StartChar: numbersign
Encoding: 35 35 7
Width: 623
GlyphClass: 2
Flags: W
LayerCount: 2
Fore
SplineSet
623 481 m 1,0,-1
 511 481 l 1,1,-1
 405 241 l 1,2,-1
 534 241 l 1,3,-1
 530 221 l 1,4,-1
 396 221 l 1,5,-1
 299 0 l 1,6,-1
 278 0 l 1,7,-1
 376 221 l 1,8,-1
 149 221 l 1,9,-1
 52 0 l 1,10,-1
 31 0 l 1,11,-1
 129 221 l 1,12,-1
 22 221 l 1,13,-1
 26 241 l 1,14,-1
 139 241 l 1,15,-1
 244 481 l 1,16,-1
 115 481 l 1,17,-1
 120 501 l 1,18,-1
 254 501 l 1,19,-1
 346 710 l 1,20,-1
 367 710 l 1,21,-1
 273 501 l 1,22,-1
 500 501 l 1,23,-1
 593 710 l 1,24,-1
 614 710 l 1,25,-1
 520 501 l 1,26,-1
 627 501 l 1,27,-1
 623 481 l 1,0,-1
385 241 m 1,28,-1
 491 481 l 1,29,-1
 264 481 l 1,30,-1
 158 241 l 1,31,-1
 385 241 l 1,28,-1
EndSplineSet
EndChar

StartChar: dollar
Encoding: 36 36 8
Width: 589
GlyphClass: 2
Flags: W
LayerCount: 2
Fore
SplineSet
561 616 m 1,0,1
 531 663 531 663 491.5 679.5 c 128,-1,2
 452 696 452 696 392 696 c 1,3,-1
 321 364 l 1,4,5
 367 353 367 353 404.5 341 c 128,-1,6
 442 329 442 329 469 311.5 c 128,-1,7
 496 294 496 294 510.5 269 c 128,-1,8
 525 244 525 244 525 208 c 0,9,10
 525 158 525 158 505 118.5 c 128,-1,11
 485 79 485 79 448 51.5 c 128,-1,12
 411 24 411 24 359 9.5 c 128,-1,13
 307 -5 307 -5 243 -5 c 1,14,-1
 225 -93 l 1,15,-1
 205 -93 l 1,16,-1
 224 -4 l 1,17,18
 151 -1 151 -1 98 25 c 128,-1,19
 45 51 45 51 6 105 c 1,20,-1
 23 118 l 1,21,22
 60 66 60 66 109 41 c 128,-1,23
 158 16 158 16 227 12 c 1,24,-1
 299 349 l 1,25,26
 255 358 255 358 220.5 369 c 128,-1,27
 186 380 186 380 162 396 c 128,-1,28
 138 412 138 412 125.5 435 c 128,-1,29
 113 458 113 458 113 491 c 0,30,31
 113 541 113 541 132.5 581.5 c 128,-1,32
 152 622 152 622 186.5 651 c 128,-1,33
 221 680 221 680 269.5 696.5 c 128,-1,34
 318 713 318 713 376 715 c 1,35,-1
 398 815 l 1,36,-1
 418 815 l 1,37,-1
 396 715 l 1,38,39
 460 714 460 714 503.5 694.5 c 128,-1,40
 547 675 547 675 577 630 c 1,41,-1
 561 616 l 1,0,1
504 203 m 0,42,43
 504 263 504 263 458 293.5 c 128,-1,44
 412 324 412 324 317 345 c 1,45,-1
 246 12 l 1,46,47
 305 12 305 12 353 24.5 c 128,-1,48
 401 37 401 37 434.5 61 c 128,-1,49
 468 85 468 85 486 120.5 c 128,-1,50
 504 156 504 156 504 203 c 0,42,43
134 495 m 0,51,52
 134 467 134 467 144.5 447.5 c 128,-1,53
 155 428 155 428 176 413.5 c 128,-1,54
 197 399 197 399 228.5 388.5 c 128,-1,55
 260 378 260 378 303 368 c 1,56,-1
 373 696 l 1,57,58
 309 694 309 694 264 677.5 c 128,-1,59
 219 661 219 661 190 634 c 128,-1,60
 161 607 161 607 147.5 571 c 128,-1,61
 134 535 134 535 134 495 c 0,51,52
EndSplineSet
EndChar

StartChar: percent
Encoding: 37 37 9
Width: 644
GlyphClass: 2
Flags: W
LayerCount: 2
Fore
SplineSet
210 444 m 0,0,1
 162 444 162 444 133.5 476.5 c 128,-1,2
 105 509 105 509 105 557 c 0,3,4
 105 590 105 590 119 619.5 c 128,-1,5
 133 649 133 649 156 671.5 c 128,-1,6
 179 694 179 694 208.5 707 c 128,-1,7
 238 720 238 720 269 720 c 0,8,9
 316 720 316 720 345 687.5 c 128,-1,10
 374 655 374 655 374 607 c 0,11,12
 374 574 374 574 360 544.5 c 128,-1,13
 346 515 346 515 323 492.5 c 128,-1,14
 300 470 300 470 270.5 457 c 128,-1,15
 241 444 241 444 210 444 c 0,0,1
214 464 m 0,16,17
 241 464 241 464 266 475.5 c 128,-1,18
 291 487 291 487 310.5 506.5 c 128,-1,19
 330 526 330 526 342 551 c 128,-1,20
 354 576 354 576 354 603 c 0,21,22
 354 644 354 644 328 672 c 128,-1,23
 302 700 302 700 264 700 c 0,24,25
 237 700 237 700 212 688.5 c 128,-1,26
 187 677 187 677 167.5 657.5 c 128,-1,27
 148 638 148 638 136.5 613 c 128,-1,28
 125 588 125 588 125 561 c 0,29,30
 125 519 125 519 150 491.5 c 128,-1,31
 175 464 175 464 214 464 c 0,16,17
398 -10 m 0,32,33
 351 -10 351 -10 322 22.5 c 128,-1,34
 293 55 293 55 293 103 c 0,35,36
 293 136 293 136 307 165.5 c 128,-1,37
 321 195 321 195 344 217.5 c 128,-1,38
 367 240 367 240 396.5 253 c 128,-1,39
 426 266 426 266 457 266 c 0,40,41
 504 266 504 266 533 233.5 c 128,-1,42
 562 201 562 201 562 153 c 0,43,44
 562 120 562 120 548 90.5 c 128,-1,45
 534 61 534 61 511 38.5 c 128,-1,46
 488 16 488 16 458.5 3 c 128,-1,47
 429 -10 429 -10 398 -10 c 0,32,33
402 10 m 0,48,49
 429 10 429 10 454 21.5 c 128,-1,50
 479 33 479 33 498.5 52.5 c 128,-1,51
 518 72 518 72 530 96.5 c 128,-1,52
 542 121 542 121 542 148 c 0,53,54
 542 189 542 189 516.5 217.5 c 128,-1,55
 491 246 491 246 453 246 c 0,56,57
 426 246 426 246 401 234 c 128,-1,58
 376 222 376 222 356.5 202.5 c 128,-1,59
 337 183 337 183 325 158 c 128,-1,60
 313 133 313 133 313 106 c 0,61,62
 313 65 313 65 337.5 37.5 c 128,-1,63
 362 10 362 10 402 10 c 0,48,49
-13 11 m 1,64,-1
 666 711 l 1,65,-1
 679 699 l 1,66,-1
 0 -1 l 1,67,-1
 -13 11 l 1,64,-1
EndSplineSet
EndChar

StartChar: ampersand
Encoding: 38 38 10
Width: 668
GlyphClass: 2
Flags: W
LayerCount: 2
Fore
SplineSet
424 120 m 1,0,1
 373 59 373 59 312.5 24.5 c 128,-1,2
 252 -10 252 -10 188 -10 c 0,3,4
 151 -10 151 -10 120 2 c 128,-1,5
 89 14 89 14 67 36 c 128,-1,6
 45 58 45 58 32.5 88.5 c 128,-1,7
 20 119 20 119 20 156 c 0,8,9
 20 190 20 190 31 222 c 128,-1,10
 42 254 42 254 66 285.5 c 128,-1,11
 90 317 90 317 129 347.5 c 128,-1,12
 168 378 168 378 225 410 c 1,13,14
 191 462 191 462 177.5 494 c 128,-1,15
 164 526 164 526 164 554 c 0,16,17
 164 587 164 587 180 616.5 c 128,-1,18
 196 646 196 646 223 669 c 128,-1,19
 250 692 250 692 285.5 705.5 c 128,-1,20
 321 719 321 719 360 719 c 0,21,22
 414 719 414 719 455.5 691.5 c 128,-1,23
 497 664 497 664 519 614 c 1,24,-1
 505 602 l 1,25,26
 485 649 485 649 446.5 675 c 128,-1,27
 408 701 408 701 357 701 c 0,28,29
 323 701 323 701 292 689 c 128,-1,30
 261 677 261 677 237 656.5 c 128,-1,31
 213 636 213 636 198.5 609.5 c 128,-1,32
 184 583 184 583 184 555 c 0,33,34
 184 528 184 528 199 495 c 128,-1,35
 214 462 214 462 246 415 c 2,36,-1
 427 156 l 1,37,38
 465 209 465 209 493.5 275 c 128,-1,39
 522 341 522 341 536 416 c 1,40,-1
 656 416 l 1,41,-1
 652 396 l 1,42,-1
 554 396 l 1,43,44
 537 321 537 321 508 256 c 128,-1,45
 479 191 479 191 439 139 c 1,46,-1
 536 0 l 1,47,-1
 507 0 l 1,48,-1
 424 120 l 1,0,1
191 11 m 0,49,50
 251 11 251 11 307.5 44.5 c 128,-1,51
 364 78 364 78 412 137 c 1,52,-1
 235 394 l 1,53,54
 134 335 134 335 88 278.5 c 128,-1,55
 42 222 42 222 42 158 c 0,56,57
 42 125 42 125 53 98 c 128,-1,58
 64 71 64 71 83.5 51.5 c 128,-1,59
 103 32 103 32 130.5 21.5 c 128,-1,60
 158 11 158 11 191 11 c 0,49,50
EndSplineSet
EndChar

StartChar: quotesingle
Encoding: 39 39 11
Width: 163
GlyphClass: 2
Flags: W
LayerCount: 2
Fore
SplineSet
127 569 m 1,0,-1
 157 710 l 1,1,-1
 177 710 l 1,2,-1
 147 569 l 1,3,-1
 127 569 l 1,0,-1
EndSplineSet
EndChar

StartChar: parenleft
Encoding: 40 40 12
Width: 228
GlyphClass: 2
Flags: W
LayerCount: 2
Fore
SplineSet
49 256 m 0,0,1
 49 323 49 323 66.5 383.5 c 128,-1,2
 84 444 84 444 114 501 c 128,-1,3
 144 558 144 558 183.5 613.5 c 128,-1,4
 223 669 223 669 268 726 c 1,5,-1
 281 714 l 1,6,7
 246 673 246 673 208.5 619.5 c 128,-1,8
 171 566 171 566 140 507 c 128,-1,9
 109 448 109 448 89 385.5 c 128,-1,10
 69 323 69 323 69 264 c 0,11,12
 69 233 69 233 72.5 197.5 c 128,-1,13
 76 162 76 162 83 125.5 c 128,-1,14
 90 89 90 89 101 53 c 128,-1,15
 112 17 112 17 126 -14 c 1,16,-1
 108 -26 l 1,17,18
 79 40 79 40 64 115 c 128,-1,19
 49 190 49 190 49 256 c 0,0,1
EndSplineSet
EndChar

StartChar: parenright
Encoding: 41 41 13
Width: 228
GlyphClass: 2
Flags: W
LayerCount: 2
Fore
SplineSet
198 433 m 0,0,1
 198 315 198 315 141 204.5 c 128,-1,2
 84 94 84 94 -19 -26 c 1,3,-1
 -32 -14 l 1,4,5
 15 39 15 39 53.5 94 c 128,-1,6
 92 149 92 149 119.5 204.5 c 128,-1,7
 147 260 147 260 162 315.5 c 128,-1,8
 177 371 177 371 177 424 c 0,9,10
 177 461 177 461 173 501 c 128,-1,11
 169 541 169 541 161.5 579.5 c 128,-1,12
 154 618 154 618 144 653 c 128,-1,13
 134 688 134 688 123 714 c 1,14,-1
 141 726 l 1,15,16
 165 659 165 659 181.5 583.5 c 128,-1,17
 198 508 198 508 198 433 c 0,0,1
EndSplineSet
EndChar

StartChar: asterisk
Encoding: 42 42 14
Width: 293
GlyphClass: 2
Flags: W
LayerCount: 2
Fore
SplineSet
144 564 m 1,0,-1
 195 621 l 1,1,-1
 136 643 l 1,2,-1
 146 662 l 1,3,-1
 205 640 l 1,4,-1
 220 710 l 1,5,-1
 239 710 l 1,6,-1
 224 640 l 1,7,-1
 294 662 l 1,8,-1
 294 643 l 1,9,-1
 226 621 l 1,10,-1
 254 564 l 1,11,-1
 235 552 l 1,12,-1
 208 609 l 1,13,-1
 157 552 l 1,14,-1
 144 564 l 1,0,-1
EndSplineSet
EndChar

StartChar: plus
Encoding: 43 43 15
Width: 410
GlyphClass: 2
Flags: W
LayerCount: 2
Fore
SplineSet
365 365 m 1,0,-1
 365 345 l 1,1,-1
 225 345 l 1,2,-1
 225 195 l 1,3,-1
 205 195 l 1,4,-1
 205 345 l 1,5,-1
 65 345 l 1,6,-1
 65 365 l 1,7,-1
 205 365 l 1,8,-1
 205 515 l 1,9,-1
 225 515 l 1,10,-1
 225 365 l 1,11,-1
 365 365 l 1,0,-1
EndSplineSet
EndChar

StartChar: comma
Encoding: 44 44 16
Width: 257
GlyphClass: 2
Flags: W
LayerCount: 2
Fore
SplineSet
32 -81 m 1,0,-1
 57 -10 l 1,1,-1
 48 -10 l 1,2,-1
 64 64 l 1,3,-1
 89 64 l 1,4,-1
 73 -10 l 1,5,-1
 46 -81 l 1,6,-1
 32 -81 l 1,0,-1
EndSplineSet
EndChar

StartChar: hyphen
Encoding: 45 45 17
Width: 404
GlyphClass: 2
Flags: W
LayerCount: 2
Fore
SplineSet
59 261 m 1,0,-1
 63 281 l 1,1,-1
 332 281 l 1,2,-1
 328 261 l 1,3,-1
 59 261 l 1,0,-1
EndSplineSet
EndChar

StartChar: period
Encoding: 46 46 18
Width: 159
GlyphClass: 2
Flags: W
LayerCount: 2
Fore
SplineSet
8 0 m 1,0,-1
 22 64 l 1,1,-1
 41 64 l 1,2,-1
 28 0 l 1,3,-1
 8 0 l 1,0,-1
EndSplineSet
EndChar

StartChar: slash
Encoding: 47 47 19
Width: 531
GlyphClass: 2
Flags: W
LayerCount: 2
Fore
SplineSet
583 710 m 1,0,-1
 -1 0 l 1,1,-1
 -26 0 l 1,2,-1
 558 710 l 1,3,-1
 583 710 l 1,0,-1
EndSplineSet
EndChar

StartChar: zero
Encoding: 48 48 20
Width: 642
GlyphClass: 2
Flags: W
LayerCount: 2
Fore
SplineSet
255 -10 m 0,0,1
 202 -10 202 -10 163.5 15 c 128,-1,2
 125 40 125 40 100.5 80.5 c 128,-1,3
 76 121 76 121 64.5 171.5 c 128,-1,4
 53 222 53 222 53 272 c 0,5,6
 53 347 53 347 81.5 424.5 c 128,-1,7
 110 502 110 502 158.5 565.5 c 128,-1,8
 207 629 207 629 271.5 669.5 c 128,-1,9
 336 710 336 710 408 710 c 0,10,11
 462 710 462 710 500 684.5 c 128,-1,12
 538 659 538 659 562 618 c 128,-1,13
 586 577 586 577 597.5 526.5 c 128,-1,14
 609 476 609 476 609 427 c 0,15,16
 609 352 609 352 581 274.5 c 128,-1,17
 553 197 553 197 504.5 133.5 c 128,-1,18
 456 70 456 70 391.5 30 c 128,-1,19
 327 -10 327 -10 255 -10 c 0,0,1
259 10 m 0,20,21
 331 10 331 10 391.5 51 c 128,-1,22
 452 92 452 92 496 154 c 128,-1,23
 540 216 540 216 564.5 288.5 c 128,-1,24
 589 361 589 361 589 424 c 0,25,26
 589 473 589 473 577.5 521 c 128,-1,27
 566 569 566 569 543 606.5 c 128,-1,28
 520 644 520 644 485.5 667 c 128,-1,29
 451 690 451 690 404 690 c 0,30,31
 332 690 332 690 272 648 c 128,-1,32
 212 606 212 606 168 542 c 128,-1,33
 124 478 124 478 99.5 403.5 c 128,-1,34
 75 329 75 329 75 263 c 0,35,36
 75 213 75 213 85.5 167.5 c 128,-1,37
 96 122 96 122 118.5 87 c 128,-1,38
 141 52 141 52 175.5 31 c 128,-1,39
 210 10 210 10 259 10 c 0,20,21
EndSplineSet
Substitution2: "'lnum' Lining Figures in Latin lookup 3 subtable" zero.lnum
Substitution2: "'aalt' Access All Alternates in Latin lookup 0 subtable" zero.lnum
EndChar

StartChar: one
Encoding: 49 49 21
Width: 336
GlyphClass: 2
Flags: W
LayerCount: 2
Fore
SplineSet
1 20 m 1,0,-1
 127 20 l 1,1,-1
 268 687 l 1,2,3
 258 675 258 675 238 660.5 c 128,-1,4
 218 646 218 646 194.5 632.5 c 128,-1,5
 171 619 171 619 146.5 610 c 128,-1,6
 122 601 122 601 103 601 c 1,7,-1
 107 621 l 1,8,9
 132 621 132 621 161 636 c 128,-1,10
 190 651 190 651 215 669 c 128,-1,11
 240 687 240 687 257 702.5 c 128,-1,12
 274 718 274 718 275 720 c 2,13,-1
 296 720 l 1,14,-1
 147 20 l 1,15,-1
 267 20 l 1,16,-1
 263 0 l 1,17,-1
 -3 0 l 1,18,-1
 1 20 l 1,0,-1
EndSplineSet
Substitution2: "'lnum' Lining Figures in Latin lookup 3 subtable" one.lnum
Substitution2: "'aalt' Access All Alternates in Latin lookup 0 subtable" one.lnum
EndChar

StartChar: two
Encoding: 50 50 22
Width: 533
GlyphClass: 2
Flags: W
LayerCount: 2
Fore
SplineSet
-12 0 m 1,0,1
 -2 69 -2 69 22 120.5 c 128,-1,2
 46 172 46 172 80.5 210 c 128,-1,3
 115 248 115 248 157.5 274.5 c 128,-1,4
 200 301 200 301 247 319 c 0,5,6
 290 335 290 335 337 351.5 c 128,-1,7
 384 368 384 368 423 393 c 128,-1,8
 462 418 462 418 487.5 456.5 c 128,-1,9
 513 495 513 495 513 557 c 0,10,11
 513 585 513 585 504.5 610.5 c 128,-1,12
 496 636 496 636 478 655.5 c 128,-1,13
 460 675 460 675 432 687 c 128,-1,14
 404 699 404 699 365 699 c 0,15,16
 321 699 321 699 284.5 686.5 c 128,-1,17
 248 674 248 674 219.5 656 c 128,-1,18
 191 638 191 638 170.5 618 c 128,-1,19
 150 598 150 598 137 583 c 1,20,-1
 123 593 l 2,21,22
 123 594 123 594 140.5 614 c 128,-1,23
 158 634 158 634 190.5 657 c 128,-1,24
 223 680 223 680 268.5 699.5 c 128,-1,25
 314 719 314 719 371 719 c 0,26,27
 414 719 414 719 444.5 705.5 c 128,-1,28
 475 692 475 692 495 670 c 128,-1,29
 515 648 515 648 524.5 619 c 128,-1,30
 534 590 534 590 534 559 c 0,31,32
 534 491 534 491 505 448 c 128,-1,33
 476 405 476 405 433 378 c 128,-1,34
 390 351 390 351 341 334 c 128,-1,35
 292 317 292 317 252 301 c 0,36,37
 182 274 182 274 137.5 237.5 c 128,-1,38
 93 201 93 201 66.5 162.5 c 128,-1,39
 40 124 40 124 28.5 86.5 c 128,-1,40
 17 49 17 49 12 20 c 1,41,-1
 423 20 l 1,42,-1
 419 0 l 1,43,-1
 -12 0 l 1,0,1
EndSplineSet
Substitution2: "'lnum' Lining Figures in Latin lookup 3 subtable" two.lnum
Substitution2: "'aalt' Access All Alternates in Latin lookup 0 subtable" two.lnum
EndChar

StartChar: three
Encoding: 51 51 23
Width: 555
GlyphClass: 2
Flags: W
LayerCount: 2
Fore
SplineSet
217 -9 m 0,0,1
 175 -9 175 -9 139.5 3 c 128,-1,2
 104 15 104 15 78 38 c 128,-1,3
 52 61 52 61 37.5 96 c 128,-1,4
 23 131 23 131 23 176 c 1,5,-1
 43 176 l 1,6,7
 43 135 43 135 57 104 c 128,-1,8
 71 73 71 73 95.5 52.5 c 128,-1,9
 120 32 120 32 152.5 21.5 c 128,-1,10
 185 11 185 11 222 11 c 0,11,12
 268 11 268 11 311 26 c 128,-1,13
 354 41 354 41 387 67.5 c 128,-1,14
 420 94 420 94 439.5 129 c 128,-1,15
 459 164 459 164 459 205 c 0,16,17
 459 271 459 271 406 310.5 c 128,-1,18
 353 350 353 350 259 350 c 2,19,-1
 226 350 l 1,20,-1
 230 370 l 1,21,-1
 264 370 l 2,22,23
 385 370 385 370 449 418 c 128,-1,24
 513 466 513 466 513 548 c 0,25,26
 513 617 513 617 469 658 c 128,-1,27
 425 699 425 699 350 699 c 0,28,29
 284 699 284 699 227.5 668 c 128,-1,30
 171 637 171 637 139 584 c 1,31,-1
 123 592 l 1,32,33
 158 650 158 650 221 684.5 c 128,-1,34
 284 719 284 719 355 719 c 0,35,36
 395 719 395 719 428.5 707 c 128,-1,37
 462 695 462 695 485 672.5 c 128,-1,38
 508 650 508 650 521 619 c 128,-1,39
 534 588 534 588 534 551 c 0,40,41
 534 479 534 479 488.5 430 c 128,-1,42
 443 381 443 381 358 359 c 1,43,44
 416 347 416 347 448 306 c 128,-1,45
 480 265 480 265 480 210 c 0,46,47
 480 164 480 164 458 124 c 128,-1,48
 436 84 436 84 399 54.5 c 128,-1,49
 362 25 362 25 315 8 c 128,-1,50
 268 -9 268 -9 217 -9 c 0,0,1
EndSplineSet
Substitution2: "'lnum' Lining Figures in Latin lookup 3 subtable" three.lnum
Substitution2: "'aalt' Access All Alternates in Latin lookup 0 subtable" three.lnum
EndChar

StartChar: four
Encoding: 52 52 24
Width: 527
GlyphClass: 2
Flags: W
LayerCount: 2
Fore
SplineSet
327 0 m 1,0,-1
 372 211 l 1,1,-1
 7 211 l 1,2,-1
 11 228 l 1,3,-1
 484 710 l 1,4,-1
 498 710 l 1,5,-1
 396 231 l 1,6,-1
 480 231 l 1,7,-1
 476 211 l 1,8,-1
 392 211 l 1,9,-1
 347 0 l 1,10,-1
 327 0 l 1,0,-1
376 231 m 1,11,-1
 470 673 l 1,12,-1
 39 231 l 1,13,-1
 376 231 l 1,11,-1
EndSplineSet
Substitution2: "'lnum' Lining Figures in Latin lookup 3 subtable" four.lnum
Substitution2: "'aalt' Access All Alternates in Latin lookup 0 subtable" four.lnum
EndChar

StartChar: five
Encoding: 53 53 25
Width: 533
GlyphClass: 2
Flags: W
LayerCount: 2
Fore
SplineSet
194 -10 m 0,0,1
 122 -10 122 -10 74 30 c 128,-1,2
 26 70 26 70 12 136 c 1,3,-1
 33 136 l 1,4,5
 47 79 47 79 91 44.5 c 128,-1,6
 135 10 135 10 198 10 c 0,7,8
 246 10 246 10 292 29 c 128,-1,9
 338 48 338 48 373.5 81.5 c 128,-1,10
 409 115 409 115 430.5 161 c 128,-1,11
 452 207 452 207 452 260 c 0,12,13
 452 296 452 296 440 326.5 c 128,-1,14
 428 357 428 357 407 379 c 128,-1,15
 386 401 386 401 356.5 413 c 128,-1,16
 327 425 327 425 291 425 c 0,17,18
 237 425 237 425 184 400 c 128,-1,19
 131 375 131 375 89 327 c 1,20,-1
 65 327 l 1,21,22
 69 336 69 336 77.5 357 c 128,-1,23
 86 378 86 378 97.5 406.5 c 128,-1,24
 109 435 109 435 122.5 468.5 c 128,-1,25
 136 502 136 502 150 536 c 0,26,27
 182 615 182 615 221 710 c 1,28,-1
 541 710 l 1,29,-1
 537 690 l 1,30,-1
 233 690 l 1,31,-1
 103 365 l 1,32,33
 145 404 145 404 195 424.5 c 128,-1,34
 245 445 245 445 296 445 c 0,35,36
 335 445 335 445 367 431.5 c 128,-1,37
 399 418 399 418 422.5 394 c 128,-1,38
 446 370 446 370 459 336.5 c 128,-1,39
 472 303 472 303 472 263 c 0,40,41
 472 203 472 203 447.5 153 c 128,-1,42
 423 103 423 103 384 67 c 128,-1,43
 345 31 345 31 295 10.5 c 128,-1,44
 245 -10 245 -10 194 -10 c 0,0,1
EndSplineSet
Substitution2: "'lnum' Lining Figures in Latin lookup 3 subtable" five.lnum
Substitution2: "'aalt' Access All Alternates in Latin lookup 0 subtable" five.lnum
EndChar

StartChar: six
Encoding: 54 54 26
Width: 581
GlyphClass: 2
Flags: W
LayerCount: 2
Fore
SplineSet
237 -10 m 0,0,1
 195 -10 195 -10 160.5 4.5 c 128,-1,2
 126 19 126 19 101 46.5 c 128,-1,3
 76 74 76 74 62.5 113.5 c 128,-1,4
 49 153 49 153 49 202 c 0,5,6
 49 299 49 299 74 391.5 c 128,-1,7
 99 484 99 484 144.5 556 c 128,-1,8
 190 628 190 628 253 671.5 c 128,-1,9
 316 715 316 715 393 715 c 0,10,11
 462 715 462 715 506.5 675.5 c 128,-1,12
 551 636 551 636 557 568 c 1,13,-1
 537 561 l 1,14,15
 534 591 534 591 522.5 615.5 c 128,-1,16
 511 640 511 640 491.5 658 c 128,-1,17
 472 676 472 676 446 685.5 c 128,-1,18
 420 695 420 695 389 695 c 0,19,20
 340 695 340 695 294.5 669 c 128,-1,21
 249 643 249 643 209.5 593.5 c 128,-1,22
 170 544 170 544 139 472 c 128,-1,23
 108 400 108 400 88 308 c 1,24,25
 107 345 107 345 135.5 376 c 128,-1,26
 164 407 164 407 197.5 429 c 128,-1,27
 231 451 231 451 268.5 463 c 128,-1,28
 306 475 306 475 344 475 c 0,29,30
 385 475 385 475 419 459.5 c 128,-1,31
 453 444 453 444 477 417 c 128,-1,32
 501 390 501 390 514.5 354 c 128,-1,33
 528 318 528 318 528 276 c 0,34,35
 528 218 528 218 503.5 166 c 128,-1,36
 479 114 479 114 438 75 c 128,-1,37
 397 36 397 36 344.5 13 c 128,-1,38
 292 -10 292 -10 237 -10 c 0,0,1
243 10 m 0,39,40
 292 10 292 10 339.5 31 c 128,-1,41
 387 52 387 52 424.5 88 c 128,-1,42
 462 124 462 124 484.5 171 c 128,-1,43
 507 218 507 218 507 270 c 0,44,45
 507 308 507 308 494.5 342 c 128,-1,46
 482 376 482 376 459 401 c 128,-1,47
 436 426 436 426 404.5 440.5 c 128,-1,48
 373 455 373 455 336 455 c 0,49,50
 286 455 286 455 238.5 433.5 c 128,-1,51
 191 412 191 412 154 376 c 128,-1,52
 117 340 117 340 94 292.5 c 128,-1,53
 71 245 71 245 71 194 c 0,54,55
 71 156 71 156 83.5 122.5 c 128,-1,56
 96 89 96 89 119 64 c 128,-1,57
 142 39 142 39 173.5 24.5 c 128,-1,58
 205 10 205 10 243 10 c 0,39,40
EndSplineSet
Substitution2: "'lnum' Lining Figures in Latin lookup 3 subtable" six.lnum
Substitution2: "'aalt' Access All Alternates in Latin lookup 0 subtable" six.lnum
EndChar

StartChar: seven
Encoding: 55 55 27
Width: 463
GlyphClass: 2
Flags: W
LayerCount: 2
Fore
SplineSet
505 690 m 1,0,-1
 101 690 l 1,1,-1
 105 710 l 1,2,-1
 543 710 l 1,3,-1
 46 0 l 1,4,-1
 23 0 l 1,5,-1
 505 690 l 1,0,-1
EndSplineSet
Substitution2: "'lnum' Lining Figures in Latin lookup 3 subtable" seven.lnum
Substitution2: "'aalt' Access All Alternates in Latin lookup 0 subtable" seven.lnum
EndChar

StartChar: eight
Encoding: 56 56 28
Width: 557
GlyphClass: 2
Flags: W
LayerCount: 2
Fore
SplineSet
485 220 m 0,0,1
 485 169 485 169 461 127 c 128,-1,2
 437 85 437 85 398.5 55.5 c 128,-1,3
 360 26 360 26 310.5 9.5 c 128,-1,4
 261 -7 261 -7 210 -7 c 0,5,6
 165 -7 165 -7 130.5 6.5 c 128,-1,7
 96 20 96 20 72.5 42.5 c 128,-1,8
 49 65 49 65 37 95.5 c 128,-1,9
 25 126 25 126 25 159 c 0,10,11
 25 202 25 202 43.5 238.5 c 128,-1,12
 62 275 62 275 90.5 303.5 c 128,-1,13
 119 332 119 332 154.5 352 c 128,-1,14
 190 372 190 372 225 381 c 1,15,16
 183 398 183 398 154 432 c 128,-1,17
 125 466 125 466 125 515 c 0,18,19
 125 561 125 561 147 597.5 c 128,-1,20
 169 634 169 634 204 659 c 128,-1,21
 239 684 239 684 281.5 697 c 128,-1,22
 324 710 324 710 366 710 c 0,23,24
 399 710 399 710 429.5 700.5 c 128,-1,25
 460 691 460 691 483 673 c 128,-1,26
 506 655 506 655 520 629 c 128,-1,27
 534 603 534 603 534 569 c 0,28,29
 534 533 534 533 519.5 503.5 c 128,-1,30
 505 474 505 474 481.5 450.5 c 128,-1,31
 458 427 458 427 427.5 409.5 c 128,-1,32
 397 392 397 392 365 381 c 1,33,34
 418 364 418 364 451.5 321.5 c 128,-1,35
 485 279 485 279 485 220 c 0,0,1
465 219 m 0,36,37
 465 255 465 255 450 283 c 128,-1,38
 435 311 435 311 410.5 330.5 c 128,-1,39
 386 350 386 350 355 360.5 c 128,-1,40
 324 371 324 371 292 371 c 0,41,42
 251 371 251 371 207.5 356 c 128,-1,43
 164 341 164 341 128 313 c 128,-1,44
 92 285 92 285 68.5 246.5 c 128,-1,45
 45 208 45 208 45 161 c 0,46,47
 45 125 45 125 60 97 c 128,-1,48
 75 69 75 69 99.5 49.5 c 128,-1,49
 124 30 124 30 155 20 c 128,-1,50
 186 10 186 10 218 10 c 0,51,52
 259 10 259 10 302.5 25 c 128,-1,53
 346 40 346 40 382 67.5 c 128,-1,54
 418 95 418 95 441.5 133.5 c 128,-1,55
 465 172 465 172 465 219 c 0,36,37
145 517 m 0,56,57
 145 487 145 487 158.5 463.5 c 128,-1,58
 172 440 172 440 193.5 424 c 128,-1,59
 215 408 215 408 242 399.5 c 128,-1,60
 269 391 269 391 297 391 c 0,61,62
 331 391 331 391 369.5 402.5 c 128,-1,63
 408 414 408 414 440 436.5 c 128,-1,64
 472 459 472 459 493 491.5 c 128,-1,65
 514 524 514 524 514 565 c 0,66,67
 514 595 514 595 501.5 618 c 128,-1,68
 489 641 489 641 468 657 c 128,-1,69
 447 673 447 673 419 681.5 c 128,-1,70
 391 690 391 690 360 690 c 0,71,72
 321 690 321 690 283 678 c 128,-1,73
 245 666 245 666 214 643.5 c 128,-1,74
 183 621 183 621 164 589 c 128,-1,75
 145 557 145 557 145 517 c 0,56,57
EndSplineSet
Substitution2: "'lnum' Lining Figures in Latin lookup 3 subtable" eight.lnum
Substitution2: "'aalt' Access All Alternates in Latin lookup 0 subtable" eight.lnum
EndChar

StartChar: nine
Encoding: 57 57 29
Width: 580
GlyphClass: 2
Flags: W
LayerCount: 2
Fore
SplineSet
75 429 m 0,0,1
 75 487 75 487 99.5 539 c 128,-1,2
 124 591 124 591 165 630 c 128,-1,3
 206 669 206 669 258 692 c 128,-1,4
 310 715 310 715 366 715 c 0,5,6
 408 715 408 715 442.5 700.5 c 128,-1,7
 477 686 477 686 501.5 658.5 c 128,-1,8
 526 631 526 631 539.5 591.5 c 128,-1,9
 553 552 553 552 553 503 c 0,10,11
 553 406 553 406 528 313.5 c 128,-1,12
 503 221 503 221 458 149 c 128,-1,13
 413 77 413 77 349.5 33.5 c 128,-1,14
 286 -10 286 -10 210 -10 c 0,15,16
 141 -10 141 -10 96.5 29.5 c 128,-1,17
 52 69 52 69 45 137 c 1,18,-1
 65 144 l 1,19,20
 68 114 68 114 80 89.5 c 128,-1,21
 92 65 92 65 111.5 47 c 128,-1,22
 131 29 131 29 157 19.5 c 128,-1,23
 183 10 183 10 213 10 c 0,24,25
 262 10 262 10 308 36 c 128,-1,26
 354 62 354 62 393 111.5 c 128,-1,27
 432 161 432 161 463 233 c 128,-1,28
 494 305 494 305 514 397 c 1,29,30
 495 360 495 360 467 329 c 128,-1,31
 439 298 439 298 405 276 c 128,-1,32
 371 254 371 254 333.5 242 c 128,-1,33
 296 230 296 230 259 230 c 0,34,35
 218 230 218 230 184 245.5 c 128,-1,36
 150 261 150 261 126 288 c 128,-1,37
 102 315 102 315 88.5 351 c 128,-1,38
 75 387 75 387 75 429 c 0,0,1
360 695 m 0,39,40
 310 695 310 695 263 674 c 128,-1,41
 216 653 216 653 178.5 617 c 128,-1,42
 141 581 141 581 118.5 534 c 128,-1,43
 96 487 96 487 96 435 c 0,44,45
 96 397 96 397 108.5 363 c 128,-1,46
 121 329 121 329 143.5 304 c 128,-1,47
 166 279 166 279 197 264.5 c 128,-1,48
 228 250 228 250 266 250 c 0,49,50
 315 250 315 250 363 271.5 c 128,-1,51
 411 293 411 293 448 329 c 128,-1,52
 485 365 485 365 508 412.5 c 128,-1,53
 531 460 531 460 531 511 c 0,54,55
 531 549 531 549 518.5 582.5 c 128,-1,56
 506 616 506 616 483.5 641 c 128,-1,57
 461 666 461 666 429.5 680.5 c 128,-1,58
 398 695 398 695 360 695 c 0,39,40
EndSplineSet
Substitution2: "'lnum' Lining Figures in Latin lookup 3 subtable" nine.lnum
Substitution2: "'aalt' Access All Alternates in Latin lookup 0 subtable" nine.lnum
EndChar

StartChar: colon
Encoding: 58 58 30
Width: 155
GlyphClass: 2
Flags: W
LayerCount: 2
Fore
SplineSet
99 453 m 1,0,-1
 113 517 l 1,1,-1
 133 517 l 1,2,-1
 119 453 l 1,3,-1
 99 453 l 1,0,-1
3 0 m 1,4,-1
 17 64 l 1,5,-1
 36 64 l 1,6,-1
 23 0 l 1,7,-1
 3 0 l 1,4,-1
EndSplineSet
EndChar

StartChar: semicolon
Encoding: 59 59 31
Width: 161
GlyphClass: 2
Flags: W
LayerCount: 2
Fore
SplineSet
102 453 m 1,0,-1
 116 517 l 1,1,-1
 136 517 l 1,2,-1
 122 453 l 1,3,-1
 102 453 l 1,0,-1
-14 -81 m 1,4,-1
 11 -10 l 1,5,-1
 2 -10 l 1,6,-1
 18 64 l 1,7,-1
 43 64 l 1,8,-1
 27 -10 l 1,9,-1
 0 -81 l 1,10,-1
 -14 -81 l 1,4,-1
EndSplineSet
EndChar

StartChar: less
Encoding: 60 60 32
Width: 541
GlyphClass: 2
Flags: W
LayerCount: 2
Fore
SplineSet
31 268 m 1,0,-1
 448 517 l 1,1,-1
 448 495 l 1,2,-1
 60 259 l 1,3,-1
 448 22 l 1,4,-1
 448 0 l 1,5,-1
 31 250 l 1,6,-1
 31 268 l 1,0,-1
EndSplineSet
EndChar

StartChar: equal
Encoding: 61 61 33
Width: 453
GlyphClass: 2
Flags: W
LayerCount: 2
Fore
SplineSet
74 231 m 1,0,-1
 74 251 l 1,1,-1
 367 251 l 1,2,-1
 367 231 l 1,3,-1
 74 231 l 1,0,-1
74 301 m 1,4,-1
 74 321 l 1,5,-1
 367 321 l 1,6,-1
 367 301 l 1,7,-1
 74 301 l 1,4,-1
EndSplineSet
EndChar

StartChar: greater
Encoding: 62 62 34
Width: 541
GlyphClass: 2
Flags: W
LayerCount: 2
Fore
SplineSet
492 250 m 1,0,-1
 75 0 l 1,1,-1
 75 22 l 1,2,-1
 463 259 l 1,3,-1
 75 495 l 1,4,-1
 75 517 l 1,5,-1
 492 268 l 1,6,-1
 492 250 l 1,0,-1
EndSplineSet
EndChar

StartChar: question
Encoding: 63 63 35
Width: 449
GlyphClass: 2
Flags: W
LayerCount: 2
Fore
SplineSet
142 179 m 1,0,1
 152 227 152 227 165 258.5 c 128,-1,2
 178 290 178 290 193 311 c 128,-1,3
 208 332 208 332 225.5 344.5 c 128,-1,4
 243 357 243 357 263 366 c 0,5,6
 293 381 293 381 324.5 394.5 c 128,-1,7
 356 408 356 408 382.5 429 c 128,-1,8
 409 450 409 450 426 483.5 c 128,-1,9
 443 517 443 517 443 572 c 0,10,11
 443 605 443 605 432.5 628.5 c 128,-1,12
 422 652 422 652 405 668 c 128,-1,13
 388 684 388 684 364.5 691.5 c 128,-1,14
 341 699 341 699 316 699 c 0,15,16
 259 699 259 699 202.5 667.5 c 128,-1,17
 146 636 146 636 110 582 c 1,18,-1
 94 590 l 1,19,20
 114 621 114 621 140.5 645 c 128,-1,21
 167 669 167 669 197 685.5 c 128,-1,22
 227 702 227 702 258 710.5 c 128,-1,23
 289 719 289 719 319 719 c 256,24,25
 349 719 349 719 375 709.5 c 128,-1,26
 401 700 401 700 420.5 681.5 c 128,-1,27
 440 663 440 663 451.5 635.5 c 128,-1,28
 463 608 463 608 463 572 c 0,29,30
 463 514 463 514 445 478 c 128,-1,31
 427 442 427 442 399 419 c 128,-1,32
 371 396 371 396 336.5 380 c 128,-1,33
 302 364 302 364 268 347 c 0,34,35
 251 338 251 338 235.5 327.5 c 128,-1,36
 220 317 220 317 207 298.5 c 128,-1,37
 194 280 194 280 182.5 251.5 c 128,-1,38
 171 223 171 223 162 179 c 1,39,-1
 142 179 l 1,0,1
104 0 m 1,40,-1
 122 84 l 1,41,-1
 142 84 l 1,42,-1
 124 0 l 1,43,-1
 104 0 l 1,40,-1
EndSplineSet
EndChar

StartChar: at
Encoding: 64 64 36
Width: 791
GlyphClass: 2
Flags: W
LayerCount: 2
Fore
SplineSet
540 4 m 0,0,1
 572 4 572 4 602 29.5 c 128,-1,2
 632 55 632 55 655.5 97 c 128,-1,3
 679 139 679 139 693 192 c 128,-1,4
 707 245 707 245 707 300 c 0,5,6
 707 363 707 363 687.5 415.5 c 128,-1,7
 668 468 668 468 633 505 c 128,-1,8
 598 542 598 542 550.5 562.5 c 128,-1,9
 503 583 503 583 446 583 c 0,10,11
 370 583 370 583 298 547.5 c 128,-1,12
 226 512 226 512 170 452.5 c 128,-1,13
 114 393 114 393 80 316.5 c 128,-1,14
 46 240 46 240 46 158 c 0,15,16
 46 97 46 97 65.5 45 c 128,-1,17
 85 -7 85 -7 119.5 -45 c 128,-1,18
 154 -83 154 -83 202.5 -104.5 c 128,-1,19
 251 -126 251 -126 308 -126 c 0,20,21
 381 -126 381 -126 456 -88 c 1,22,-1
 462 -106 l 1,23,24
 420 -126 420 -126 377.5 -136 c 128,-1,25
 335 -146 335 -146 297 -146 c 0,26,27
 238 -146 238 -146 188.5 -122.5 c 128,-1,28
 139 -99 139 -99 103 -58 c 128,-1,29
 67 -17 67 -17 46.5 38 c 128,-1,30
 26 93 26 93 26 157 c 0,31,32
 26 215 26 215 42.5 270 c 128,-1,33
 59 325 59 325 88.5 374.5 c 128,-1,34
 118 424 118 424 158 466 c 128,-1,35
 198 508 198 508 245 538.5 c 128,-1,36
 292 569 292 569 344 586 c 128,-1,37
 396 603 396 603 449 603 c 0,38,39
 508 603 508 603 559 581.5 c 128,-1,40
 610 560 610 560 647.5 520.5 c 128,-1,41
 685 481 685 481 706 425.5 c 128,-1,42
 727 370 727 370 727 303 c 0,43,44
 727 244 727 244 711 187 c 128,-1,45
 695 130 695 130 668 85 c 128,-1,46
 641 40 641 40 605.5 12 c 128,-1,47
 570 -16 570 -16 530 -16 c 0,48,49
 503 -16 503 -16 491 -2 c 128,-1,50
 479 12 479 12 479 44 c 0,51,52
 479 52 479 52 480 62.5 c 128,-1,53
 481 73 481 73 483 84 c 1,54,55
 449 51 449 51 405 31.5 c 128,-1,56
 361 12 361 12 320 12 c 0,57,58
 288 12 288 12 262 24.5 c 128,-1,59
 236 37 236 37 217 59.5 c 128,-1,60
 198 82 198 82 188 114 c 128,-1,61
 178 146 178 146 178 184 c 0,62,63
 178 237 178 237 197 285 c 128,-1,64
 216 333 216 333 248.5 369.5 c 128,-1,65
 281 406 281 406 324 427.5 c 128,-1,66
 367 449 367 449 414 449 c 256,67,68
 461 449 461 449 494.5 426.5 c 128,-1,69
 528 404 528 404 545 362 c 1,70,-1
 563 450 l 1,71,-1
 583 450 l 1,72,-1
 508 99 l 2,73,74
 503 77 503 77 502 65 c 128,-1,75
 501 53 501 53 501 47 c 0,76,77
 501 4 501 4 540 4 c 0,0,1
325 32 m 0,78,79
 350 32 350 32 376.5 40.5 c 128,-1,80
 403 49 403 49 427 63.5 c 128,-1,81
 451 78 451 78 469.5 97.5 c 128,-1,82
 488 117 488 117 497 139 c 1,83,-1
 537 334 l 1,84,85
 524 379 524 379 491 403.5 c 128,-1,86
 458 428 458 428 411 428 c 0,87,88
 369 428 369 428 330.5 408 c 128,-1,89
 292 388 292 388 262.5 355 c 128,-1,90
 233 322 233 322 215.5 278 c 128,-1,91
 198 234 198 234 198 186 c 0,92,93
 198 153 198 153 207 124.5 c 128,-1,94
 216 96 216 96 232.5 75.5 c 128,-1,95
 249 55 249 55 272.5 43.5 c 128,-1,96
 296 32 296 32 325 32 c 0,78,79
EndSplineSet
EndChar

StartChar: A
Encoding: 65 65 37
Width: 647
GlyphClass: 2
Flags: W
LayerCount: 2
Fore
SplineSet
406 710 m 1,0,-1
 424 710 l 1,1,-1
 566 0 l 1,2,-1
 544 0 l 1,3,-1
 493 254 l 1,4,-1
 142 254 l 1,5,-1
 -17 0 l 1,6,-1
 -39 0 l 1,7,-1
 406 710 l 1,0,-1
489 274 m 1,8,-1
 409 681 l 1,9,-1
 154 274 l 1,10,-1
 489 274 l 1,8,-1
EndSplineSet
EndChar

StartChar: B
Encoding: 66 66 38
Width: 628
GlyphClass: 2
Flags: W
LayerCount: 2
Fore
SplineSet
184 710 m 1,0,-1
 483 710 l 2,1,2
 513 710 513 710 535.5 697.5 c 128,-1,3
 558 685 558 685 573 665 c 128,-1,4
 588 645 588 645 595.5 619 c 128,-1,5
 603 593 603 593 603 565 c 0,6,7
 603 532 603 532 592.5 501.5 c 128,-1,8
 582 471 582 471 563.5 444.5 c 128,-1,9
 545 418 545 418 520 397.5 c 128,-1,10
 495 377 495 377 466 364 c 1,11,12
 511 349 511 349 534.5 308.5 c 128,-1,13
 558 268 558 268 558 218 c 0,14,15
 558 175 558 175 539.5 135.5 c 128,-1,16
 521 96 521 96 491 66 c 128,-1,17
 461 36 461 36 423 18 c 128,-1,18
 385 0 385 0 346 0 c 2,19,-1
 33 0 l 1,20,-1
 184 710 l 1,0,-1
350 20 m 2,21,22
 385 20 385 20 418.5 37 c 128,-1,23
 452 54 452 54 478.5 81.5 c 128,-1,24
 505 109 505 109 521 144 c 128,-1,25
 537 179 537 179 537 215 c 0,26,27
 537 242 537 242 529.5 266 c 128,-1,28
 522 290 522 290 507.5 308 c 128,-1,29
 493 326 493 326 472.5 337 c 128,-1,30
 452 348 452 348 426 348 c 2,31,-1
 127 348 l 1,32,-1
 57 20 l 1,33,-1
 350 20 l 2,21,22
404 368 m 2,34,35
 439 368 439 368 471.5 385 c 128,-1,36
 504 402 504 402 528.5 429.5 c 128,-1,37
 553 457 553 457 568 492 c 128,-1,38
 583 527 583 527 583 562 c 0,39,40
 583 588 583 588 576 611 c 128,-1,41
 569 634 569 634 555.5 651.5 c 128,-1,42
 542 669 542 669 522.5 679.5 c 128,-1,43
 503 690 503 690 478 690 c 2,44,-1
 200 690 l 1,45,-1
 131 368 l 1,46,-1
 404 368 l 2,34,35
EndSplineSet
EndChar

StartChar: C
Encoding: 67 67 39
Width: 663
GlyphClass: 2
Flags: W
LayerCount: 2
Fore
SplineSet
296 -6 m 0,0,1
 238 -6 238 -6 192.5 19 c 128,-1,2
 147 44 147 44 116 86 c 128,-1,3
 85 128 85 128 68.5 182 c 128,-1,4
 52 236 52 236 52 293 c 0,5,6
 52 365 52 365 82 440 c 128,-1,7
 112 515 112 515 166 576 c 128,-1,8
 220 637 220 637 293.5 675.5 c 128,-1,9
 367 714 367 714 454 714 c 0,10,11
 499 714 499 714 535 702.5 c 128,-1,12
 571 691 571 691 597.5 670.5 c 128,-1,13
 624 650 624 650 641.5 621.5 c 128,-1,14
 659 593 659 593 667 559 c 1,15,-1
 647 553 l 1,16,17
 636 592 636 592 615 619 c 128,-1,18
 594 646 594 646 567.5 662.5 c 128,-1,19
 541 679 541 679 509.5 686.5 c 128,-1,20
 478 694 478 694 446 694 c 0,21,22
 365 694 365 694 296.5 657.5 c 128,-1,23
 228 621 228 621 178 563 c 128,-1,24
 128 505 128 505 100 433.5 c 128,-1,25
 72 362 72 362 72 293 c 0,26,27
 72 236 72 236 88.5 185.5 c 128,-1,28
 105 135 105 135 135 97 c 128,-1,29
 165 59 165 59 208 36.5 c 128,-1,30
 251 14 251 14 304 14 c 0,31,32
 337 14 337 14 374 23 c 128,-1,33
 411 32 411 32 447.5 50 c 128,-1,34
 484 68 484 68 518 96.5 c 128,-1,35
 552 125 552 125 580 164 c 1,36,-1
 598 159 l 1,37,38
 572 119 572 119 536 88 c 128,-1,39
 500 57 500 57 459.5 36 c 128,-1,40
 419 15 419 15 377 4.5 c 128,-1,41
 335 -6 335 -6 296 -6 c 0,0,1
EndSplineSet
EndChar

StartChar: D
Encoding: 68 68 40
Width: 684
GlyphClass: 2
Flags: W
LayerCount: 2
Fore
SplineSet
184 710 m 1,0,-1
 401 710 l 2,1,2
 466 710 466 710 513.5 689 c 128,-1,3
 561 668 561 668 592 631.5 c 128,-1,4
 623 595 623 595 638 546 c 128,-1,5
 653 497 653 497 653 440 c 0,6,7
 653 345 653 345 623 264.5 c 128,-1,8
 593 184 593 184 539 125.5 c 128,-1,9
 485 67 485 67 411 33.5 c 128,-1,10
 337 0 337 0 250 0 c 2,11,-1
 33 0 l 1,12,-1
 184 710 l 1,0,-1
254 20 m 2,13,14
 343 20 343 20 413.5 54 c 128,-1,15
 484 88 484 88 532.5 145.5 c 128,-1,16
 581 203 581 203 607 278 c 128,-1,17
 633 353 633 353 633 435 c 0,18,19
 633 491 633 491 618 538 c 128,-1,20
 603 585 603 585 573.5 618.5 c 128,-1,21
 544 652 544 652 499.5 671 c 128,-1,22
 455 690 455 690 397 690 c 2,23,-1
 200 690 l 1,24,-1
 57 20 l 1,25,-1
 254 20 l 2,13,14
EndSplineSet
EndChar

StartChar: E
Encoding: 69 69 41
Width: 588
GlyphClass: 2
Flags: W
LayerCount: 2
Fore
SplineSet
184 710 m 1,0,-1
 618 710 l 1,1,-1
 614 690 l 1,2,-1
 200 690 l 1,3,-1
 132 373 l 1,4,-1
 495 373 l 1,5,-1
 491 353 l 1,6,-1
 128 353 l 1,7,-1
 57 20 l 1,8,-1
 480 20 l 1,9,-1
 476 0 l 1,10,-1
 33 0 l 1,11,-1
 184 710 l 1,0,-1
EndSplineSet
EndChar

StartChar: F
Encoding: 70 70 42
Width: 588
GlyphClass: 2
Flags: W
LayerCount: 2
Fore
SplineSet
184 710 m 1,0,-1
 618 710 l 1,1,-1
 614 690 l 1,2,-1
 200 690 l 1,3,-1
 133 374 l 1,4,-1
 486 374 l 1,5,-1
 482 354 l 1,6,-1
 128 354 l 1,7,-1
 53 0 l 1,8,-1
 33 0 l 1,9,-1
 184 710 l 1,0,-1
EndSplineSet
EndChar

StartChar: G
Encoding: 71 71 43
Width: 688
GlyphClass: 2
Flags: W
LayerCount: 2
Fore
SplineSet
571 121 m 1,0,1
 439 -5 439 -5 302 -5 c 0,2,3
 242 -5 242 -5 195.5 20.5 c 128,-1,4
 149 46 149 46 117 87.5 c 128,-1,5
 85 129 85 129 68.5 182.5 c 128,-1,6
 52 236 52 236 52 292 c 0,7,8
 52 369 52 369 84.5 445 c 128,-1,9
 117 521 117 521 171 581 c 128,-1,10
 225 641 225 641 296 678 c 128,-1,11
 367 715 367 715 444 715 c 0,12,13
 496 715 496 715 534.5 703.5 c 128,-1,14
 573 692 573 692 599.5 671.5 c 128,-1,15
 626 651 626 651 642.5 622.5 c 128,-1,16
 659 594 659 594 668 560 c 1,17,-1
 648 554 l 1,18,19
 625 629 625 629 571.5 662 c 128,-1,20
 518 695 518 695 439 695 c 0,21,22
 363 695 363 695 296 658.5 c 128,-1,23
 229 622 229 622 179.5 564 c 128,-1,24
 130 506 130 506 101 434.5 c 128,-1,25
 72 363 72 363 72 293 c 0,26,27
 72 237 72 237 88.5 186.5 c 128,-1,28
 105 136 105 136 135.5 98 c 128,-1,29
 166 60 166 60 209.5 37.5 c 128,-1,30
 253 15 253 15 306 15 c 0,31,32
 372 15 372 15 438.5 47 c 128,-1,33
 505 79 505 79 577 149 c 1,34,-1
 613 318 l 1,35,-1
 455 318 l 1,36,-1
 459 338 l 1,37,-1
 637 338 l 1,38,-1
 565 0 l 1,39,-1
 545 0 l 1,40,-1
 571 121 l 1,0,1
EndSplineSet
Substitution2: "'ss01' Style Set 1 in Latin lookup 8 subtable" G.alt
Substitution2: "'salt' Stylistic Alternatives in Latin lookup 5 subtable" G.alt
Substitution2: "'aalt' Access All Alternates in Latin lookup 0 subtable" G.alt
EndChar

StartChar: H
Encoding: 72 72 44
Width: 701
GlyphClass: 2
Flags: W
LayerCount: 2
Fore
SplineSet
184 710 m 1,0,-1
 204 710 l 1,1,-1
 132 373 l 1,2,-1
 599 373 l 1,3,-1
 671 710 l 1,4,-1
 691 710 l 1,5,-1
 540 0 l 1,6,-1
 520 0 l 1,7,-1
 595 353 l 1,8,-1
 128 353 l 1,9,-1
 53 0 l 1,10,-1
 33 0 l 1,11,-1
 184 710 l 1,0,-1
EndSplineSet
EndChar

StartChar: I
Encoding: 73 73 45
Width: 214
GlyphClass: 2
Flags: W
LayerCount: 2
Fore
SplineSet
184 709 m 1,0,-1
 204 709 l 1,1,-1
 53 0 l 1,2,-1
 33 0 l 1,3,-1
 184 709 l 1,0,-1
EndSplineSet
EndChar

StartChar: J
Encoding: 74 74 46
Width: 458
GlyphClass: 2
Flags: W
LayerCount: 2
Fore
SplineSet
105 -11 m 0,0,1
 20 -11 20 -11 -32 33 c 1,2,-1
 -18 49 l 1,3,4
 28 9 28 9 109 9 c 0,5,6
 169 9 169 9 210 32.5 c 128,-1,7
 251 56 251 56 278.5 99.5 c 128,-1,8
 306 143 306 143 325 206 c 128,-1,9
 344 269 344 269 361 349 c 2,10,-1
 438 709 l 1,11,-1
 458 709 l 1,12,-1
 381 349 l 2,13,14
 364 268 364 268 343.5 201.5 c 128,-1,15
 323 135 323 135 292.5 88 c 128,-1,16
 262 41 262 41 217 15 c 128,-1,17
 172 -11 172 -11 105 -11 c 0,0,1
EndSplineSet
EndChar

StartChar: K
Encoding: 75 75 47
Width: 591
GlyphClass: 2
Flags: W
LayerCount: 2
Fore
SplineSet
184 709 m 1,0,-1
 204 709 l 1,1,-1
 106 249 l 1,2,-1
 632 710 l 1,3,-1
 661 710 l 1,4,-1
 307 400 l 1,5,-1
 523 0 l 1,6,-1
 497 0 l 1,7,-1
 289 386 l 1,8,-1
 100 221 l 1,9,-1
 53 0 l 1,10,-1
 33 0 l 1,11,-1
 184 709 l 1,0,-1
EndSplineSet
EndChar

StartChar: L
Encoding: 76 76 48
Width: 552
GlyphClass: 2
Flags: W
LayerCount: 2
Fore
SplineSet
184 710 m 1,0,-1
 204 710 l 1,1,-1
 57 20 l 1,2,-1
 480 20 l 1,3,-1
 476 0 l 1,4,-1
 33 0 l 1,5,-1
 184 710 l 1,0,-1
EndSplineSet
EndChar

StartChar: M
Encoding: 77 77 49
Width: 846
GlyphClass: 2
Flags: W
LayerCount: 2
Fore
SplineSet
184 710 m 1,0,-1
 200 710 l 1,1,-1
 394 164 l 1,2,-1
 820 710 l 1,3,-1
 836 710 l 1,4,-1
 685 0 l 1,5,-1
 665 0 l 1,6,-1
 806 666 l 1,7,-1
 397 140 l 1,8,-1
 381 140 l 1,9,-1
 195 666 l 1,10,-1
 53 0 l 1,11,-1
 33 0 l 1,12,-1
 184 710 l 1,0,-1
EndSplineSet
EndChar

StartChar: N
Encoding: 78 78 50
Width: 743
GlyphClass: 2
Flags: W
LayerCount: 2
Fore
SplineSet
184 710 m 1,0,-1
 199 710 l 1,1,-1
 569 29 l 1,2,-1
 713 709 l 1,3,-1
 733 709 l 1,4,-1
 582 0 l 1,5,-1
 560 0 l 1,6,-1
 196 671 l 1,7,-1
 53 0 l 1,8,-1
 33 0 l 1,9,-1
 184 710 l 1,0,-1
EndSplineSet
EndChar

StartChar: O
Encoding: 79 79 51
Width: 726
GlyphClass: 2
Flags: W
LayerCount: 2
Fore
SplineSet
298 -5 m 0,0,1
 239 -5 239 -5 193 19 c 128,-1,2
 147 43 147 43 115.5 83.5 c 128,-1,3
 84 124 84 124 68 177 c 128,-1,4
 52 230 52 230 52 287 c 0,5,6
 52 369 52 369 86 446 c 128,-1,7
 120 523 120 523 176 583 c 128,-1,8
 232 643 232 643 303.5 679 c 128,-1,9
 375 715 375 715 451 715 c 0,10,11
 510 715 510 715 556 690 c 128,-1,12
 602 665 602 665 633.5 624 c 128,-1,13
 665 583 665 583 681 530 c 128,-1,14
 697 477 697 477 697 421 c 0,15,16
 697 340 697 340 663 263 c 128,-1,17
 629 186 629 186 573 126.5 c 128,-1,18
 517 67 517 67 445.5 31 c 128,-1,19
 374 -5 374 -5 298 -5 c 0,0,1
303 15 m 0,20,21
 378 15 378 15 446 51 c 128,-1,22
 514 87 514 87 565 145 c 128,-1,23
 616 203 616 203 646.5 275 c 128,-1,24
 677 347 677 347 677 419 c 0,25,26
 677 474 677 474 661 524 c 128,-1,27
 645 574 645 574 615 612 c 128,-1,28
 585 650 585 650 542.5 672.5 c 128,-1,29
 500 695 500 695 447 695 c 0,30,31
 372 695 372 695 304 659 c 128,-1,32
 236 623 236 623 184.5 565 c 128,-1,33
 133 507 133 507 102.5 435 c 128,-1,34
 72 363 72 363 72 290 c 0,35,36
 72 235 72 235 87.5 185 c 128,-1,37
 103 135 103 135 133 97.5 c 128,-1,38
 163 60 163 60 206 37.5 c 128,-1,39
 249 15 249 15 303 15 c 0,20,21
EndSplineSet
EndChar

StartChar: P
Encoding: 80 80 52
Width: 595
GlyphClass: 2
Flags: W
LayerCount: 2
Fore
SplineSet
184 710 m 1,0,-1
 459 710 l 2,1,2
 494 710 494 710 522 695 c 128,-1,3
 550 680 550 680 569 655 c 128,-1,4
 588 630 588 630 598 598.5 c 128,-1,5
 608 567 608 567 608 533 c 0,6,7
 608 487 608 487 589 441.5 c 128,-1,8
 570 396 570 396 538 360 c 128,-1,9
 506 324 506 324 463.5 301.5 c 128,-1,10
 421 279 421 279 374 279 c 2,11,-1
 112 279 l 1,12,-1
 53 0 l 1,13,-1
 33 0 l 1,14,-1
 184 710 l 1,0,-1
378 299 m 2,15,16
 422 299 422 299 460.5 320 c 128,-1,17
 499 341 499 341 527.5 374.5 c 128,-1,18
 556 408 556 408 572 449 c 128,-1,19
 588 490 588 490 588 530 c 0,20,21
 588 562 588 562 578.5 591 c 128,-1,22
 569 620 569 620 551.5 642 c 128,-1,23
 534 664 534 664 509 677 c 128,-1,24
 484 690 484 690 454 690 c 2,25,-1
 200 690 l 1,26,-1
 117 299 l 1,27,-1
 378 299 l 2,15,16
EndSplineSet
EndChar

StartChar: Q
Encoding: 81 81 53
Width: 725
GlyphClass: 2
Flags: W
LayerCount: 2
Fore
SplineSet
514 73 m 1,0,1
 466 36 466 36 411 15.5 c 128,-1,2
 356 -5 356 -5 299 -5 c 0,3,4
 240 -5 240 -5 194 19 c 128,-1,5
 148 43 148 43 116.5 83.5 c 128,-1,6
 85 124 85 124 68.5 177 c 128,-1,7
 52 230 52 230 52 287 c 0,8,9
 52 369 52 369 86 446 c 128,-1,10
 120 523 120 523 176 583 c 128,-1,11
 232 643 232 643 304 679 c 128,-1,12
 376 715 376 715 452 715 c 0,13,14
 511 715 511 715 557 690 c 128,-1,15
 603 665 603 665 634 624 c 128,-1,16
 665 583 665 583 681 530 c 128,-1,17
 697 477 697 477 697 421 c 0,18,19
 697 373 697 373 685 326 c 128,-1,20
 673 279 673 279 651 236 c 128,-1,21
 629 193 629 193 598.5 155 c 128,-1,22
 568 117 568 117 531 87 c 1,23,-1
 579 0 l 1,24,-1
 554 0 l 1,25,-1
 514 73 l 1,0,1
303 15 m 0,26,27
 358 15 358 15 409 34.5 c 128,-1,28
 460 54 460 54 505 89 c 1,29,-1
 452 186 l 1,30,-1
 477 186 l 1,31,-1
 522 103 l 1,32,33
 557 133 557 133 585.5 169.5 c 128,-1,34
 614 206 614 206 634.5 247.5 c 128,-1,35
 655 289 655 289 666 332.5 c 128,-1,36
 677 376 677 376 677 419 c 0,37,38
 677 474 677 474 661 524 c 128,-1,39
 645 574 645 574 615.5 612 c 128,-1,40
 586 650 586 650 543.5 672.5 c 128,-1,41
 501 695 501 695 448 695 c 0,42,43
 373 695 373 695 305 659 c 128,-1,44
 237 623 237 623 185 565 c 128,-1,45
 133 507 133 507 102.5 435 c 128,-1,46
 72 363 72 363 72 290 c 0,47,48
 72 235 72 235 87.5 185 c 128,-1,49
 103 135 103 135 133 97.5 c 128,-1,50
 163 60 163 60 206 37.5 c 128,-1,51
 249 15 249 15 303 15 c 0,26,27
EndSplineSet
EndChar

StartChar: R
Encoding: 82 82 54
Width: 616
GlyphClass: 2
Flags: W
LayerCount: 2
Fore
SplineSet
33 0 m 1,0,-1
 184 710 l 1,1,-1
 459 710 l 2,2,3
 494 710 494 710 522 695 c 128,-1,4
 550 680 550 680 569 655 c 128,-1,5
 588 630 588 630 598 598.5 c 128,-1,6
 608 567 608 567 608 533 c 0,7,8
 608 487 608 487 590 443 c 128,-1,9
 572 399 572 399 542 363.5 c 128,-1,10
 512 328 512 328 471.5 305 c 128,-1,11
 431 282 431 282 386 279 c 1,12,-1
 497 0 l 1,13,-1
 473 0 l 1,14,-1
 362 279 l 1,15,-1
 112 279 l 1,16,-1
 53 0 l 1,17,-1
 33 0 l 1,0,-1
378 299 m 2,18,19
 422 299 422 299 460 320 c 128,-1,20
 498 341 498 341 526.5 374 c 128,-1,21
 555 407 555 407 571.5 448 c 128,-1,22
 588 489 588 489 588 530 c 0,23,24
 588 562 588 562 578.5 591 c 128,-1,25
 569 620 569 620 551.5 642 c 128,-1,26
 534 664 534 664 509 677 c 128,-1,27
 484 690 484 690 454 690 c 2,28,-1
 200 690 l 1,29,-1
 117 299 l 1,30,-1
 378 299 l 2,18,19
EndSplineSet
EndChar

StartChar: S
Encoding: 83 83 55
Width: 579
GlyphClass: 2
Flags: W
LayerCount: 2
Fore
SplineSet
238 -5 m 0,0,1
 157 -5 157 -5 99 21.5 c 128,-1,2
 41 48 41 48 -1 105 c 1,3,-1
 16 118 l 1,4,5
 56 62 56 62 110.5 37 c 128,-1,6
 165 12 165 12 243 12 c 0,7,8
 301 12 301 12 348 24.5 c 128,-1,9
 395 37 395 37 428 61 c 128,-1,10
 461 85 461 85 479 120.5 c 128,-1,11
 497 156 497 156 497 203 c 0,12,13
 497 233 497 233 485 255.5 c 128,-1,14
 473 278 473 278 449 294.5 c 128,-1,15
 425 311 425 311 389 323 c 128,-1,16
 353 335 353 335 305 346 c 0,17,18
 258 356 258 356 221 367 c 128,-1,19
 184 378 184 378 158.5 394 c 128,-1,20
 133 410 133 410 119.5 433.5 c 128,-1,21
 106 457 106 457 106 491 c 0,22,23
 106 543 106 543 126.5 584.5 c 128,-1,24
 147 626 147 626 184.5 655 c 128,-1,25
 222 684 222 684 273.5 699.5 c 128,-1,26
 325 715 325 715 387 715 c 0,27,28
 452 715 452 715 496 695.5 c 128,-1,29
 540 676 540 676 570 630 c 1,30,-1
 554 616 l 1,31,32
 524 663 524 663 484.5 679.5 c 128,-1,33
 445 696 445 696 385 696 c 0,34,35
 316 696 316 696 267 680.5 c 128,-1,36
 218 665 218 665 187 637.5 c 128,-1,37
 156 610 156 610 141.5 573.5 c 128,-1,38
 127 537 127 537 127 495 c 0,39,40
 127 466 127 466 138 446 c 128,-1,41
 149 426 149 426 171.5 411.5 c 128,-1,42
 194 397 194 397 228.5 386 c 128,-1,43
 263 375 263 375 309 365 c 0,44,45
 356 354 356 354 394.5 342 c 128,-1,46
 433 330 433 330 460.5 312.5 c 128,-1,47
 488 295 488 295 503 269.5 c 128,-1,48
 518 244 518 244 518 208 c 0,49,50
 518 158 518 158 498 118.5 c 128,-1,51
 478 79 478 79 441.5 51.5 c 128,-1,52
 405 24 405 24 353 9.5 c 128,-1,53
 301 -5 301 -5 238 -5 c 0,0,1
EndSplineSet
EndChar

StartChar: T
Encoding: 84 84 56
Width: 574
GlyphClass: 2
Flags: W
LayerCount: 2
Fore
SplineSet
356 690 m 1,0,-1
 98 690 l 1,1,-1
 102 710 l 1,2,-1
 638 710 l 1,3,-1
 634 690 l 1,4,-1
 376 690 l 1,5,-1
 229 0 l 1,6,-1
 209 0 l 1,7,-1
 356 690 l 1,0,-1
EndSplineSet
EndChar

StartChar: U
Encoding: 85 85 57
Width: 723
GlyphClass: 2
Flags: W
LayerCount: 2
Fore
SplineSet
298 -5 m 0,0,1
 237 -5 237 -5 196 13 c 128,-1,2
 155 31 155 31 130 62.5 c 128,-1,3
 105 94 105 94 94 136 c 128,-1,4
 83 178 83 178 83 226 c 0,5,6
 83 257 83 257 87 289.5 c 128,-1,7
 91 322 91 322 98 355 c 2,8,-1
 173 710 l 1,9,-1
 193 710 l 1,10,-1
 118 355 l 2,11,12
 111 323 111 323 107 291 c 128,-1,13
 103 259 103 259 103 229 c 0,14,15
 103 184 103 184 113 145 c 128,-1,16
 123 106 123 106 146 77 c 128,-1,17
 169 48 169 48 207 31.5 c 128,-1,18
 245 15 245 15 301 15 c 0,19,20
 377 15 377 15 433 45 c 128,-1,21
 489 75 489 75 528.5 123 c 128,-1,22
 568 171 568 171 592.5 232 c 128,-1,23
 617 293 617 293 630 355 c 2,24,-1
 705 710 l 1,25,-1
 725 710 l 1,26,-1
 650 355 l 2,27,28
 635 284 635 284 607 219 c 128,-1,29
 579 154 579 154 536.5 104.5 c 128,-1,30
 494 55 494 55 435 25 c 128,-1,31
 376 -5 376 -5 298 -5 c 0,0,1
EndSplineSet
EndChar

StartChar: V
Encoding: 86 86 58
Width: 644
GlyphClass: 2
Flags: W
LayerCount: 2
Fore
SplineSet
101 710 m 1,0,-1
 122 710 l 1,1,-1
 260 25 l 1,2,-1
 687 710 l 1,3,-1
 709 710 l 1,4,-1
 265 0 l 1,5,-1
 243 0 l 1,6,-1
 101 710 l 1,0,-1
EndSplineSet
EndChar

StartChar: W
Encoding: 87 87 59
Width: 986
GlyphClass: 2
Flags: W
LayerCount: 2
Fore
SplineSet
101 710 m 1,0,-1
 123 710 l 1,1,-1
 260 25 l 1,2,-1
 502 414 l 1,3,-1
 443 704 l 1,4,-1
 465 704 l 1,5,-1
 517 438 l 1,6,-1
 684 704 l 1,7,-1
 706 704 l 1,8,-1
 523 414 l 1,9,-1
 602 25 l 1,10,-1
 1029 710 l 1,11,-1
 1051 710 l 1,12,-1
 607 0 l 1,13,-1
 585 0 l 1,14,-1
 508 389 l 1,15,-1
 265 0 l 1,16,-1
 243 0 l 1,17,-1
 101 710 l 1,0,-1
EndSplineSet
Substitution2: "'ss01' Style Set 1 in Latin lookup 8 subtable" W.alt
Substitution2: "'salt' Stylistic Alternatives in Latin lookup 5 subtable" W.alt
Substitution2: "'aalt' Access All Alternates in Latin lookup 0 subtable" W.alt
EndChar

StartChar: X
Encoding: 88 88 60
Width: 588
GlyphClass: 2
Flags: W
LayerCount: 2
Fore
SplineSet
292 350 m 1,0,-1
 96 710 l 1,1,-1
 122 710 l 1,2,-1
 308 366 l 1,3,-1
 641 710 l 1,4,-1
 666 710 l 1,5,-1
 317 350 l 1,6,-1
 507 0 l 1,7,-1
 482 0 l 1,8,-1
 302 334 l 1,9,-1
 -21 0 l 1,10,-1
 -47 0 l 1,11,-1
 292 350 l 1,0,-1
EndSplineSet
EndChar

StartChar: Y
Encoding: 89 89 61
Width: 594
GlyphClass: 2
Flags: W
LayerCount: 2
Fore
SplineSet
277 277 m 1,0,-1
 97 710 l 1,1,-1
 120 710 l 1,2,-1
 292 298 l 1,3,-1
 640 710 l 1,4,-1
 663 710 l 1,5,-1
 297 275 l 1,6,-1
 238 0 l 1,7,-1
 218 0 l 1,8,-1
 277 277 l 1,0,-1
EndSplineSet
EndChar

StartChar: Z
Encoding: 90 90 62
Width: 587
GlyphClass: 2
Flags: W
LayerCount: 2
Fore
SplineSet
-36 20 m 1,0,-1
 620 690 l 1,1,-1
 111 690 l 1,2,-1
 116 710 l 1,3,-1
 650 710 l 1,4,-1
 645 690 l 1,5,-1
 -11 20 l 1,6,-1
 499 20 l 1,7,-1
 495 0 l 1,8,-1
 -40 0 l 1,9,-1
 -36 20 l 1,0,-1
EndSplineSet
EndChar

StartChar: bracketleft
Encoding: 91 91 63
Width: 216
GlyphClass: 2
Flags: W
LayerCount: 2
Fore
SplineSet
23 -40 m 1,0,-1
 189 740 l 1,1,-1
 256 740 l 1,2,-1
 252 720 l 1,3,-1
 204 720 l 1,4,-1
 47 -20 l 1,5,-1
 95 -20 l 1,6,-1
 91 -40 l 1,7,-1
 23 -40 l 1,0,-1
EndSplineSet
EndChar

StartChar: backslash
Encoding: 92 92 64
Width: 480
GlyphClass: 2
Flags: W
LayerCount: 2
Fore
SplineSet
130 710 m 1,0,-1
 392 0 l 1,1,-1
 367 0 l 1,2,-1
 104 710 l 1,3,-1
 130 710 l 1,0,-1
EndSplineSet
EndChar

StartChar: bracketright
Encoding: 93 93 65
Width: 215
GlyphClass: 2
Flags: W
LayerCount: 2
Fore
SplineSet
-20 -40 m 1,0,-1
 -16 -20 l 1,1,-1
 32 -20 l 1,2,-1
 189 720 l 1,3,-1
 142 720 l 1,4,-1
 146 740 l 1,5,-1
 213 740 l 1,6,-1
 48 -40 l 1,7,-1
 -20 -40 l 1,0,-1
EndSplineSet
EndChar

StartChar: asciicircum
Encoding: 94 94 66
Width: 505
GlyphClass: 2
Flags: W
LayerCount: 2
Fore
SplineSet
55 303 m 1,0,-1
 253 710 l 1,1,-1
 271 710 l 1,2,-1
 468 303 l 1,3,-1
 445 303 l 1,4,-1
 262 681 l 1,5,-1
 76 303 l 1,6,-1
 55 303 l 1,0,-1
EndSplineSet
EndChar

StartChar: underscore
Encoding: 95 95 67
Width: 513
GlyphClass: 2
Flags: W
LayerCount: 2
Fore
SplineSet
-1 -20 m 1,0,-1
 3 0 l 1,1,-1
 376 0 l 1,2,-1
 372 -20 l 1,3,-1
 -1 -20 l 1,0,-1
EndSplineSet
EndChar

StartChar: grave
Encoding: 96 96 68
Width: 189
GlyphClass: 2
Flags: W
LayerCount: 2
Fore
SplineSet
55 730 m 1,0,-1
 87 730 l 1,1,-1
 133 657 l 1,2,-1
 115 645 l 1,3,-1
 55 730 l 1,0,-1
EndSplineSet
EndChar

StartChar: a
Encoding: 97 97 69
Width: 580
GlyphClass: 2
Flags: W
LayerCount: 2
Fore
SplineSet
216 -10 m 0,0,1
 173 -10 173 -10 138.5 8.5 c 128,-1,2
 104 27 104 27 80 57.5 c 128,-1,3
 56 88 56 88 43.5 128 c 128,-1,4
 31 168 31 168 31 210 c 0,5,6
 31 270 31 270 55 327 c 128,-1,7
 79 384 79 384 119.5 428.5 c 128,-1,8
 160 473 160 473 212.5 500 c 128,-1,9
 265 527 265 527 321 527 c 0,10,11
 356 527 356 527 384.5 516.5 c 128,-1,12
 413 506 413 506 434.5 488.5 c 128,-1,13
 456 471 456 471 472 447.5 c 128,-1,14
 488 424 488 424 497 398 c 1,15,-1
 523 519 l 1,16,-1
 544 519 l 1,17,-1
 442 44 l 2,18,19
 440 38 440 38 440 32 c 0,20,21
 440 20 440 20 452 20 c 1,22,-1
 448 0 l 1,23,24
 442 0 442 0 439 1 c 0,25,26
 420 7 420 7 420 29 c 0,27,28
 420 31 420 31 420.5 34 c 128,-1,29
 421 37 421 37 422.5 44.5 c 128,-1,30
 424 52 424 52 427 67 c 128,-1,31
 430 82 430 82 435 108 c 1,32,33
 414 82 414 82 388 60.5 c 128,-1,34
 362 39 362 39 333.5 23 c 128,-1,35
 305 7 305 7 275 -1.5 c 128,-1,36
 245 -10 245 -10 216 -10 c 0,0,1
218 10 m 0,37,38
 250 10 250 10 286.5 23 c 128,-1,39
 323 36 323 36 356 58 c 128,-1,40
 389 80 389 80 414 108.5 c 128,-1,41
 439 137 439 137 448 169 c 2,42,-1
 488 356 l 1,43,44
 484 386 484 386 469.5 413 c 128,-1,45
 455 440 455 440 432 461 c 128,-1,46
 409 482 409 482 378.5 494.5 c 128,-1,47
 348 507 348 507 313 507 c 0,48,49
 261 507 261 507 213.5 480.5 c 128,-1,50
 166 454 166 454 130 411 c 128,-1,51
 94 368 94 368 72.5 315 c 128,-1,52
 51 262 51 262 51 210 c 0,53,54
 51 170 51 170 63.5 134 c 128,-1,55
 76 98 76 98 98.5 70.5 c 128,-1,56
 121 43 121 43 151.5 26.5 c 128,-1,57
 182 10 182 10 218 10 c 0,37,38
EndSplineSet
Substitution2: "'ss02' Style Set 2 in Latin lookup 9 subtable" a.alt2
Substitution2: "'ss01' Style Set 1 in Latin lookup 8 subtable" a.alt
Substitution2: "'salt' Stylistic Alternatives in Latin lookup 5 subtable" a.alt
Substitution2: "'smcp' Lowercase to Small Capitals in Latin lookup 2 subtable" A.sc
AlternateSubs2: "'aalt' Access All Alternates in Latin lookup 1 subtable" A.sc a.alt a.alt2
EndChar

StartChar: b
Encoding: 98 98 70
Width: 576
GlyphClass: 2
Flags: W
LayerCount: 2
Fore
SplineSet
231 -10 m 0,0,1
 198 -10 198 -10 170.5 -0.5 c 128,-1,2
 143 9 143 9 121.5 25.5 c 128,-1,3
 100 42 100 42 84.5 63.5 c 128,-1,4
 69 85 69 85 60 108 c 1,5,-1
 37 0 l 1,6,-1
 17 0 l 1,7,-1
 172 730 l 1,8,-1
 192 730 l 1,9,-1
 122 398 l 1,10,11
 173 455 173 455 229 491 c 128,-1,12
 285 527 285 527 349 527 c 0,13,14
 395 527 395 527 428.5 508 c 128,-1,15
 462 489 462 489 484.5 459 c 128,-1,16
 507 429 507 429 518 390.5 c 128,-1,17
 529 352 529 352 529 313 c 0,18,19
 529 250 529 250 503 192 c 128,-1,20
 477 134 477 134 435 89 c 128,-1,21
 393 44 393 44 339.5 17 c 128,-1,22
 286 -10 286 -10 231 -10 c 0,0,1
233 10 m 0,23,24
 286 10 286 10 335.5 36 c 128,-1,25
 385 62 385 62 423.5 104.5 c 128,-1,26
 462 147 462 147 485 201 c 128,-1,27
 508 255 508 255 508 312 c 0,28,29
 508 349 508 349 497 384.5 c 128,-1,30
 486 420 486 420 465 447 c 128,-1,31
 444 474 444 474 413 490.5 c 128,-1,32
 382 507 382 507 342 507 c 0,33,34
 308 507 308 507 277 495.5 c 128,-1,35
 246 484 246 484 218 464.5 c 128,-1,36
 190 445 190 445 164 419.5 c 128,-1,37
 138 394 138 394 114 366 c 1,38,-1
 68 141 l 1,39,40
 79 80 79 80 125 45 c 128,-1,41
 171 10 171 10 233 10 c 0,23,24
EndSplineSet
Substitution2: "'smcp' Lowercase to Small Capitals in Latin lookup 2 subtable" B.sc
Substitution2: "'aalt' Access All Alternates in Latin lookup 0 subtable" B.sc
EndChar

StartChar: c
Encoding: 99 99 71
Width: 514
GlyphClass: 2
Flags: W
LayerCount: 2
Fore
SplineSet
219 -10 m 0,0,1
 177 -10 177 -10 142.5 7 c 128,-1,2
 108 24 108 24 83 54 c 128,-1,3
 58 84 58 84 44.5 124 c 128,-1,4
 31 164 31 164 31 210 c 0,5,6
 31 274 31 274 56 332 c 128,-1,7
 81 390 81 390 123 433 c 128,-1,8
 165 476 165 476 219.5 501.5 c 128,-1,9
 274 527 274 527 332 527 c 0,10,11
 395 527 395 527 437 496.5 c 128,-1,12
 479 466 479 466 493 411 c 1,13,-1
 471 404 l 1,14,15
 457 452 457 452 418 479.5 c 128,-1,16
 379 507 379 507 325 507 c 0,17,18
 273 507 273 507 223.5 483.5 c 128,-1,19
 174 460 174 460 136 420 c 128,-1,20
 98 380 98 380 74.5 326.5 c 128,-1,21
 51 273 51 273 51 214 c 0,22,23
 51 172 51 172 63.5 134.5 c 128,-1,24
 76 97 76 97 98 69.5 c 128,-1,25
 120 42 120 42 151 26 c 128,-1,26
 182 10 182 10 220 10 c 0,27,28
 249 10 249 10 279.5 19 c 128,-1,29
 310 28 310 28 337 43 c 128,-1,30
 364 58 364 58 385.5 78 c 128,-1,31
 407 98 407 98 417 119 c 1,32,-1
 436 113 l 1,33,34
 422 87 422 87 398.5 64.5 c 128,-1,35
 375 42 375 42 345.5 25.5 c 128,-1,36
 316 9 316 9 283.5 -0.5 c 128,-1,37
 251 -10 251 -10 219 -10 c 0,0,1
EndSplineSet
Substitution2: "'smcp' Lowercase to Small Capitals in Latin lookup 2 subtable" C.sc
Substitution2: "'aalt' Access All Alternates in Latin lookup 0 subtable" C.sc
EndChar

StartChar: d
Encoding: 100 100 72
Width: 579
GlyphClass: 2
Flags: W
LayerCount: 2
Fore
SplineSet
218 -10 m 0,0,1
 174 -10 174 -10 139 8.5 c 128,-1,2
 104 27 104 27 80 57.5 c 128,-1,3
 56 88 56 88 43.5 128 c 128,-1,4
 31 168 31 168 31 211 c 0,5,6
 31 271 31 271 55 327.5 c 128,-1,7
 79 384 79 384 119.5 428.5 c 128,-1,8
 160 473 160 473 213 500 c 128,-1,9
 266 527 266 527 323 527 c 0,10,11
 357 527 357 527 385 516.5 c 128,-1,12
 413 506 413 506 434.5 488.5 c 128,-1,13
 456 471 456 471 472 447.5 c 128,-1,14
 488 424 488 424 497 398 c 1,15,-1
 567 730 l 1,16,-1
 588 730 l 1,17,-1
 441 43 l 2,18,19
 440 40 440 40 440 37.5 c 128,-1,20
 440 35 440 35 440 33 c 0,21,22
 440 20 440 20 452 20 c 1,23,-1
 448 0 l 1,24,25
 442 0 442 0 436 2 c 0,26,27
 420 8 420 8 420 30 c 0,28,29
 420 31 420 31 420 33.5 c 128,-1,30
 420 36 420 36 421.5 43.5 c 128,-1,31
 423 51 423 51 426 66 c 128,-1,32
 429 81 429 81 435 108 c 1,33,34
 414 82 414 82 388 60.5 c 128,-1,35
 362 39 362 39 333.5 23 c 128,-1,36
 305 7 305 7 275.5 -1.5 c 128,-1,37
 246 -10 246 -10 218 -10 c 0,0,1
222 10 m 0,38,39
 251 10 251 10 286.5 23 c 128,-1,40
 322 36 322 36 355 57.5 c 128,-1,41
 388 79 388 79 413.5 108 c 128,-1,42
 439 137 439 137 448 169 c 2,43,-1
 488 356 l 1,44,45
 484 387 484 387 468.5 414.5 c 128,-1,46
 453 442 453 442 429.5 462.5 c 128,-1,47
 406 483 406 483 377.5 495 c 128,-1,48
 349 507 349 507 319 507 c 0,49,50
 264 507 264 507 215 480.5 c 128,-1,51
 166 454 166 454 129.5 412 c 128,-1,52
 93 370 93 370 72 317.5 c 128,-1,53
 51 265 51 265 51 213 c 0,54,55
 51 172 51 172 63 135 c 128,-1,56
 75 98 75 98 97.5 70.5 c 128,-1,57
 120 43 120 43 151.5 26.5 c 128,-1,58
 183 10 183 10 222 10 c 0,38,39
EndSplineSet
Substitution2: "'ss01' Style Set 1 in Latin lookup 8 subtable" d.alt
Substitution2: "'salt' Stylistic Alternatives in Latin lookup 5 subtable" d.alt
Substitution2: "'smcp' Lowercase to Small Capitals in Latin lookup 2 subtable" D.sc
AlternateSubs2: "'aalt' Access All Alternates in Latin lookup 1 subtable" D.sc d.alt
EndChar

StartChar: e
Encoding: 101 101 73
Width: 521
GlyphClass: 2
Flags: W
LayerCount: 2
Fore
SplineSet
220 -10 m 0,0,1
 175 -10 175 -10 140 7.5 c 128,-1,2
 105 25 105 25 81 55 c 128,-1,3
 57 85 57 85 44 125 c 128,-1,4
 31 165 31 165 31 210 c 0,5,6
 31 269 31 269 54 326 c 128,-1,7
 77 383 77 383 117.5 427.5 c 128,-1,8
 158 472 158 472 213 499.5 c 128,-1,9
 268 527 268 527 333 527 c 0,10,11
 358 527 358 527 385.5 518 c 128,-1,12
 413 509 413 509 435 492 c 128,-1,13
 457 475 457 475 471.5 449.5 c 128,-1,14
 486 424 486 424 486 390 c 0,15,16
 486 248 486 248 224 248 c 0,17,18
 186 248 186 248 146 249 c 128,-1,19
 106 250 106 250 55 253 c 1,20,21
 52 232 52 232 52 211 c 0,22,23
 52 170 52 170 63 133.5 c 128,-1,24
 74 97 74 97 96 69.5 c 128,-1,25
 118 42 118 42 151 26 c 128,-1,26
 184 10 184 10 227 10 c 0,27,28
 254 10 254 10 283 18.5 c 128,-1,29
 312 27 312 27 339 42 c 128,-1,30
 366 57 366 57 388.5 79 c 128,-1,31
 411 101 411 101 426 128 c 1,32,-1
 445 122 l 1,33,34
 428 92 428 92 403.5 67.5 c 128,-1,35
 379 43 379 43 349.5 26 c 128,-1,36
 320 9 320 9 287 -0.5 c 128,-1,37
 254 -10 254 -10 220 -10 c 0,0,1
329 507 m 0,38,39
 280 507 280 507 236 487.5 c 128,-1,40
 192 468 192 468 156.5 435.5 c 128,-1,41
 121 403 121 403 95.5 360.5 c 128,-1,42
 70 318 70 318 59 273 c 1,43,44
 110 270 110 270 149.5 269 c 128,-1,45
 189 268 189 268 227 268 c 0,46,47
 293 268 293 268 338.5 277 c 128,-1,48
 384 286 384 286 412 302.5 c 128,-1,49
 440 319 440 319 452.5 341.5 c 128,-1,50
 465 364 465 364 465 391 c 0,51,52
 465 421 465 421 452 443 c 128,-1,53
 439 465 439 465 419 479.5 c 128,-1,54
 399 494 399 494 375 500.5 c 128,-1,55
 351 507 351 507 329 507 c 0,38,39
EndSplineSet
Substitution2: "'smcp' Lowercase to Small Capitals in Latin lookup 2 subtable" E.sc
Substitution2: "'aalt' Access All Alternates in Latin lookup 0 subtable" E.sc
EndChar

StartChar: f
Encoding: 102 102 74
Width: 292
GlyphClass: 2
Flags: W
LayerCount: 2
Fore
SplineSet
139 499 m 1,0,-1
 68 499 l 1,1,-1
 72 519 l 1,2,-1
 144 519 l 1,3,-1
 148 540 l 2,4,5
 167 635 167 635 213 687.5 c 128,-1,6
 259 740 259 740 321 740 c 0,7,8
 348 740 348 740 371 730.5 c 128,-1,9
 394 721 394 721 404 706 c 1,10,-1
 386 694 l 1,11,12
 377 706 377 706 358.5 713.5 c 128,-1,13
 340 721 340 721 318 721 c 0,14,15
 264 721 264 721 224.5 674.5 c 128,-1,16
 185 628 185 628 168 540 c 2,17,-1
 164 519 l 1,18,-1
 310 519 l 1,19,-1
 306 499 l 1,20,-1
 159 499 l 1,21,-1
 8 -213 l 1,22,-1
 -12 -213 l 1,23,-1
 139 499 l 1,0,-1
EndSplineSet
Substitution2: "'smcp' Lowercase to Small Capitals in Latin lookup 2 subtable" F.sc
Substitution2: "'aalt' Access All Alternates in Latin lookup 0 subtable" F.sc
EndChar

StartChar: g
Encoding: 103 103 75
Width: 576
GlyphClass: 2
Flags: W
LayerCount: 2
Fore
SplineSet
166 -223 m 0,0,1
 122 -223 122 -223 90 -214 c 128,-1,2
 58 -205 58 -205 36 -188.5 c 128,-1,3
 14 -172 14 -172 0 -149.5 c 128,-1,4
 -14 -127 -14 -127 -22 -99 c 1,5,-1
 -2 -93 l 1,6,7
 7 -122 7 -122 23.5 -143 c 128,-1,8
 40 -164 40 -164 62.5 -177.5 c 128,-1,9
 85 -191 85 -191 112.5 -197 c 128,-1,10
 140 -203 140 -203 170 -203 c 0,11,12
 210 -203 210 -203 248.5 -191.5 c 128,-1,13
 287 -180 287 -180 318.5 -157 c 128,-1,14
 350 -134 350 -134 373 -100.5 c 128,-1,15
 396 -67 396 -67 406 -22 c 2,16,-1
 434 108 l 1,17,18
 413 82 413 82 387 60.5 c 128,-1,19
 361 39 361 39 332.5 23 c 128,-1,20
 304 7 304 7 274 -1.5 c 128,-1,21
 244 -10 244 -10 216 -10 c 0,22,23
 172 -10 172 -10 137.5 8.5 c 128,-1,24
 103 27 103 27 79 57.5 c 128,-1,25
 55 88 55 88 42.5 128 c 128,-1,26
 30 168 30 168 30 211 c 0,27,28
 30 269 30 269 54 325.5 c 128,-1,29
 78 382 78 382 118 427 c 128,-1,30
 158 472 158 472 211 499.5 c 128,-1,31
 264 527 264 527 322 527 c 0,32,33
 355 527 355 527 382 517 c 128,-1,34
 409 507 409 507 430 489.5 c 128,-1,35
 451 472 451 472 467.5 448.5 c 128,-1,36
 484 425 484 425 496 398 c 1,37,-1
 522 519 l 1,38,-1
 541 519 l 1,39,-1
 426 -22 l 2,40,41
 415 -73 415 -73 389 -111 c 128,-1,42
 363 -149 363 -149 327.5 -174 c 128,-1,43
 292 -199 292 -199 250 -211 c 128,-1,44
 208 -223 208 -223 166 -223 c 0,0,1
221 10 m 0,45,46
 256 10 256 10 292.5 24.5 c 128,-1,47
 329 39 329 39 360.5 62 c 128,-1,48
 392 85 392 85 415.5 113 c 128,-1,49
 439 141 439 141 447 169 c 2,50,-1
 487 356 l 1,51,52
 482 389 482 389 467 416.5 c 128,-1,53
 452 444 452 444 429.5 464 c 128,-1,54
 407 484 407 484 378 495.5 c 128,-1,55
 349 507 349 507 318 507 c 0,56,57
 261 507 261 507 212 479.5 c 128,-1,58
 163 452 163 452 127 409 c 128,-1,59
 91 366 91 366 70.5 314 c 128,-1,60
 50 262 50 262 50 213 c 0,61,62
 50 172 50 172 62 135 c 128,-1,63
 74 98 74 98 96.5 70.5 c 128,-1,64
 119 43 119 43 150.5 26.5 c 128,-1,65
 182 10 182 10 221 10 c 0,45,46
EndSplineSet
Substitution2: "'smcp' Lowercase to Small Capitals in Latin lookup 2 subtable" G.sc
Substitution2: "'aalt' Access All Alternates in Latin lookup 0 subtable" G.sc
EndChar

StartChar: h
Encoding: 104 104 76
Width: 540
GlyphClass: 2
Flags: W
LayerCount: 2
Fore
SplineSet
172 730 m 1,0,-1
 192 730 l 1,1,-1
 119 385 l 1,2,3
 141 417 141 417 169 443.5 c 128,-1,4
 197 470 197 470 228 488.5 c 128,-1,5
 259 507 259 507 291.5 517 c 128,-1,6
 324 527 324 527 356 527 c 0,7,8
 474 527 474 527 474 388 c 0,9,10
 474 344 474 344 462 289 c 2,11,-1
 401 0 l 1,12,-1
 381 0 l 1,13,-1
 442 289 l 2,14,15
 447 316 447 316 450.5 340 c 128,-1,16
 454 364 454 364 454 384 c 0,17,18
 454 507 454 507 352 507 c 0,19,20
 317 507 317 507 281.5 493 c 128,-1,21
 246 479 246 479 213 455 c 128,-1,22
 180 431 180 431 152.5 398.5 c 128,-1,23
 125 366 125 366 107 328 c 1,24,-1
 37 0 l 1,25,-1
 17 0 l 1,26,-1
 172 730 l 1,0,-1
EndSplineSet
Substitution2: "'smcp' Lowercase to Small Capitals in Latin lookup 2 subtable" H.sc
Substitution2: "'aalt' Access All Alternates in Latin lookup 0 subtable" H.sc
EndChar

StartChar: i
Encoding: 105 105 77
Width: 182
GlyphClass: 2
Flags: W
LayerCount: 2
Fore
SplineSet
127 519 m 1,0,-1
 147 519 l 1,1,-1
 37 0 l 1,2,-1
 17 0 l 1,3,-1
 127 519 l 1,0,-1
172 730 m 1,4,-1
 192 730 l 1,5,-1
 176 653 l 1,6,-1
 156 653 l 1,7,-1
 172 730 l 1,4,-1
EndSplineSet
Substitution2: "'smcp' Lowercase to Small Capitals in Latin lookup 2 subtable" I.sc
Substitution2: "'aalt' Access All Alternates in Latin lookup 0 subtable" I.sc
EndChar

StartChar: j
Encoding: 106 106 78
Width: 190
GlyphClass: 2
Flags: W
LayerCount: 2
Fore
SplineSet
-118 -170 m 0,0,1
 -146 -170 -146 -170 -169 -163 c 128,-1,2
 -192 -156 -192 -156 -206 -136 c 1,3,-1
 -188 -124 l 1,4,5
 -174 -140 -174 -140 -154.5 -145 c 128,-1,6
 -135 -150 -135 -150 -115 -150 c 0,7,8
 -96 -150 -96 -150 -74.5 -141 c 128,-1,9
 -53 -132 -53 -132 -34.5 -117 c 128,-1,10
 -16 -102 -16 -102 -2 -81 c 128,-1,11
 12 -60 12 -60 17 -36 c 2,12,-1
 135 519 l 1,13,-1
 155 519 l 1,14,-1
 37 -36 l 2,15,16
 31 -65 31 -65 14 -89.5 c 128,-1,17
 -3 -114 -3 -114 -25 -132 c 128,-1,18
 -47 -150 -47 -150 -71.5 -160 c 128,-1,19
 -96 -170 -96 -170 -118 -170 c 0,0,1
180 730 m 1,20,-1
 200 730 l 1,21,-1
 184 653 l 1,22,-1
 164 653 l 1,23,-1
 180 730 l 1,20,-1
EndSplineSet
Substitution2: "'ss01' Style Set 1 in Latin lookup 8 subtable" j.alt
Substitution2: "'salt' Stylistic Alternatives in Latin lookup 5 subtable" j.alt
Substitution2: "'smcp' Lowercase to Small Capitals in Latin lookup 2 subtable" J.sc
AlternateSubs2: "'aalt' Access All Alternates in Latin lookup 1 subtable" J.sc j.alt
EndChar

StartChar: k
Encoding: 107 107 79
Width: 521
GlyphClass: 2
Flags: W
LayerCount: 2
Fore
SplineSet
172 730 m 1,0,-1
 192 730 l 1,1,-1
 109 340 l 1,2,3
 174 436 174 436 244.5 483.5 c 128,-1,4
 315 531 315 531 385 531 c 0,5,6
 445 531 445 531 478 503.5 c 128,-1,7
 511 476 511 476 511 426 c 0,8,9
 511 393 511 393 495 363.5 c 128,-1,10
 479 334 479 334 450 310 c 128,-1,11
 421 286 421 286 379 268.5 c 128,-1,12
 337 251 337 251 285 242 c 1,13,-1
 405 0 l 1,14,-1
 381 0 l 1,15,-1
 257 255 l 1,16,17
 370 277 370 277 429.5 320 c 128,-1,18
 489 363 489 363 489 423 c 0,19,20
 489 465 489 465 461 488.5 c 128,-1,21
 433 512 433 512 382 512 c 0,22,23
 316 512 316 512 248.5 463.5 c 128,-1,24
 181 415 181 415 103 311 c 1,25,-1
 37 0 l 1,26,-1
 17 0 l 1,27,-1
 172 730 l 1,0,-1
EndSplineSet
Substitution2: "'smcp' Lowercase to Small Capitals in Latin lookup 2 subtable" K.sc
Substitution2: "'aalt' Access All Alternates in Latin lookup 0 subtable" K.sc
EndChar

StartChar: l
Encoding: 108 108 80
Width: 224
GlyphClass: 2
Flags: W
LayerCount: 2
Fore
SplineSet
96 -5 m 0,0,1
 68 -5 68 -5 52 11.5 c 128,-1,2
 36 28 36 28 36 56 c 0,3,4
 36 61 36 61 36 66 c 128,-1,5
 36 71 36 71 38 77 c 2,6,-1
 177 730 l 1,7,-1
 197 730 l 1,8,-1
 58 77 l 2,9,10
 57 72 57 72 56.5 68.5 c 128,-1,11
 56 65 56 65 56 61 c 0,12,13
 56 14 56 14 108 14 c 0,14,15
 119 14 119 14 134 16.5 c 128,-1,16
 149 19 149 19 162 23 c 1,17,-1
 165 7 l 1,18,19
 151 2 151 2 130.5 -1.5 c 128,-1,20
 110 -5 110 -5 96 -5 c 0,0,1
EndSplineSet
Substitution2: "'ss01' Style Set 1 in Latin lookup 8 subtable" l.alt
Substitution2: "'salt' Stylistic Alternatives in Latin lookup 5 subtable" l.alt
Substitution2: "'smcp' Lowercase to Small Capitals in Latin lookup 2 subtable" L.sc
AlternateSubs2: "'aalt' Access All Alternates in Latin lookup 1 subtable" L.sc l.alt
EndChar

StartChar: m
Encoding: 109 109 81
Width: 866
GlyphClass: 2
Flags: W
LayerCount: 2
Fore
SplineSet
127 519 m 1,0,-1
 147 519 l 1,1,-1
 119 385 l 1,2,3
 166 453 166 453 223.5 490 c 128,-1,4
 281 527 281 527 340 527 c 0,5,6
 396 527 396 527 427 492 c 128,-1,7
 458 457 458 457 458 394 c 0,8,9
 458 388 458 388 458 382 c 128,-1,10
 458 376 458 376 457 370 c 1,11,12
 476 408 476 408 502.5 437.5 c 128,-1,13
 529 467 529 467 559.5 487 c 128,-1,14
 590 507 590 507 623 517 c 128,-1,15
 656 527 656 527 688 527 c 0,16,17
 801 527 801 527 801 396 c 0,18,19
 801 374 801 374 798 347 c 128,-1,20
 795 320 795 320 788 289 c 2,21,-1
 727 0 l 1,22,-1
 707 0 l 1,23,-1
 768 289 l 2,24,25
 780 347 780 347 780 390 c 0,26,27
 780 507 780 507 682 507 c 0,28,29
 648 507 648 507 614.5 494 c 128,-1,30
 581 481 581 481 551 457 c 128,-1,31
 521 433 521 433 495.5 400 c 128,-1,32
 470 367 470 367 451 327 c 1,33,-1
 382 0 l 1,34,-1
 362 0 l 1,35,-1
 423 289 l 2,36,37
 430 320 430 320 433 346 c 128,-1,38
 436 372 436 372 436 393 c 0,39,40
 436 507 436 507 339 507 c 0,41,42
 304 507 304 507 271 494 c 128,-1,43
 238 481 238 481 208 457.5 c 128,-1,44
 178 434 178 434 152 401 c 128,-1,45
 126 368 126 368 107 328 c 1,46,-1
 37 0 l 1,47,-1
 17 0 l 1,48,-1
 127 519 l 1,0,-1
EndSplineSet
Substitution2: "'smcp' Lowercase to Small Capitals in Latin lookup 2 subtable" M.sc
Substitution2: "'aalt' Access All Alternates in Latin lookup 0 subtable" M.sc
EndChar

StartChar: n
Encoding: 110 110 82
Width: 540
GlyphClass: 2
Flags: W
LayerCount: 2
Fore
SplineSet
127 519 m 1,0,-1
 147 519 l 1,1,-1
 119 385 l 1,2,3
 141 416 141 416 170 442.5 c 128,-1,4
 199 469 199 469 231.5 487.5 c 128,-1,5
 264 506 264 506 298.5 516.5 c 128,-1,6
 333 527 333 527 366 527 c 0,7,8
 422 527 422 527 449 496.5 c 128,-1,9
 476 466 476 466 476 401 c 0,10,11
 476 377 476 377 472.5 349 c 128,-1,12
 469 321 469 321 462 289 c 2,13,-1
 401 0 l 1,14,-1
 381 0 l 1,15,-1
 442 289 l 2,16,17
 455 350 455 350 455 396 c 0,18,19
 455 453 455 453 432.5 480 c 128,-1,20
 410 507 410 507 362 507 c 0,21,22
 327 507 327 507 289.5 493.5 c 128,-1,23
 252 480 252 480 217.5 456 c 128,-1,24
 183 432 183 432 154 399 c 128,-1,25
 125 366 125 366 107 328 c 1,26,-1
 37 0 l 1,27,-1
 17 0 l 1,28,-1
 127 519 l 1,0,-1
EndSplineSet
Substitution2: "'smcp' Lowercase to Small Capitals in Latin lookup 2 subtable" N.sc
Substitution2: "'aalt' Access All Alternates in Latin lookup 0 subtable" N.sc
EndChar

StartChar: o
Encoding: 111 111 83
Width: 561
GlyphClass: 2
Flags: W
LayerCount: 2
Fore
SplineSet
215 -10 m 0,0,1
 173 -10 173 -10 139 7 c 128,-1,2
 105 24 105 24 80.5 53.5 c 128,-1,3
 56 83 56 83 43 122.5 c 128,-1,4
 30 162 30 162 30 207 c 0,5,6
 30 270 30 270 56 328 c 128,-1,7
 82 386 82 386 124.5 430.5 c 128,-1,8
 167 475 167 475 220.5 501 c 128,-1,9
 274 527 274 527 329 527 c 0,10,11
 370 527 370 527 404 510 c 128,-1,12
 438 493 438 493 462 463 c 128,-1,13
 486 433 486 433 499.5 393 c 128,-1,14
 513 353 513 353 513 308 c 0,15,16
 513 246 513 246 487 188.5 c 128,-1,17
 461 131 461 131 419 87 c 128,-1,18
 377 43 377 43 323.5 16.5 c 128,-1,19
 270 -10 270 -10 215 -10 c 0,0,1
218 10 m 0,20,21
 268 10 268 10 317.5 34.5 c 128,-1,22
 367 59 367 59 406 99.5 c 128,-1,23
 445 140 445 140 469 193.5 c 128,-1,24
 493 247 493 247 493 305 c 0,25,26
 493 347 493 347 480.5 383.5 c 128,-1,27
 468 420 468 420 446 447.5 c 128,-1,28
 424 475 424 475 393 491 c 128,-1,29
 362 507 362 507 325 507 c 0,30,31
 275 507 275 507 226 482.5 c 128,-1,32
 177 458 177 458 138 416.5 c 128,-1,33
 99 375 99 375 74.5 321 c 128,-1,34
 50 267 50 267 50 209 c 0,35,36
 50 168 50 168 62 131.5 c 128,-1,37
 74 95 74 95 96.5 68 c 128,-1,38
 119 41 119 41 149.5 25.5 c 128,-1,39
 180 10 180 10 218 10 c 0,20,21
EndSplineSet
Substitution2: "'smcp' Lowercase to Small Capitals in Latin lookup 2 subtable" O.sc
Substitution2: "'aalt' Access All Alternates in Latin lookup 0 subtable" O.sc
EndChar

StartChar: p
Encoding: 112 112 84
Width: 577
GlyphClass: 2
Flags: W
LayerCount: 2
Fore
SplineSet
128 519 m 1,0,-1
 147 519 l 1,1,-1
 124 409 l 1,2,3
 145 435 145 435 171 456.5 c 128,-1,4
 197 478 197 478 225.5 494 c 128,-1,5
 254 510 254 510 284 518.5 c 128,-1,6
 314 527 314 527 342 527 c 0,7,8
 386 527 386 527 420.5 508.5 c 128,-1,9
 455 490 455 490 479 459 c 128,-1,10
 503 428 503 428 515.5 388 c 128,-1,11
 528 348 528 348 528 306 c 0,12,13
 528 247 528 247 505 190.5 c 128,-1,14
 482 134 482 134 442 89.5 c 128,-1,15
 402 45 402 45 349 17.5 c 128,-1,16
 296 -10 296 -10 236 -10 c 0,17,18
 203 -10 203 -10 176 0.5 c 128,-1,19
 149 11 149 11 127 28.5 c 128,-1,20
 105 46 105 46 89 69.5 c 128,-1,21
 73 93 73 93 63 119 c 1,22,-1
 -8 -213 l 1,23,-1
 -28 -213 l 1,24,-1
 128 519 l 1,0,-1
240 10 m 0,25,26
 295 10 295 10 344 36.5 c 128,-1,27
 393 63 393 63 429.5 105 c 128,-1,28
 466 147 466 147 487 199.5 c 128,-1,29
 508 252 508 252 508 304 c 0,30,31
 508 344 508 344 496 381 c 128,-1,32
 484 418 484 418 461.5 446 c 128,-1,33
 439 474 439 474 407.5 490.5 c 128,-1,34
 376 507 376 507 337 507 c 0,35,36
 308 507 308 507 272.5 494 c 128,-1,37
 237 481 237 481 204 459 c 128,-1,38
 171 437 171 437 145.5 408 c 128,-1,39
 120 379 120 379 111 348 c 2,40,-1
 71 161 l 1,41,42
 78 129 78 129 93 101.5 c 128,-1,43
 108 74 108 74 129.5 54 c 128,-1,44
 151 34 151 34 179 22 c 128,-1,45
 207 10 207 10 240 10 c 0,25,26
EndSplineSet
Substitution2: "'smcp' Lowercase to Small Capitals in Latin lookup 2 subtable" P.sc
Substitution2: "'aalt' Access All Alternates in Latin lookup 0 subtable" P.sc
EndChar

StartChar: q
Encoding: 113 113 85
Width: 576
GlyphClass: 2
Flags: W
LayerCount: 2
Fore
SplineSet
208 -10 m 0,0,1
 164 -10 164 -10 130.5 8 c 128,-1,2
 97 26 97 26 74.5 55.5 c 128,-1,3
 52 85 52 85 40.5 124 c 128,-1,4
 29 163 29 163 29 205 c 0,5,6
 29 267 29 267 55 325 c 128,-1,7
 81 383 81 383 123.5 428 c 128,-1,8
 166 473 166 473 220 500 c 128,-1,9
 274 527 274 527 331 527 c 0,10,11
 359 527 359 527 385.5 518 c 128,-1,12
 412 509 412 509 434 493 c 128,-1,13
 456 477 456 477 472.5 455.5 c 128,-1,14
 489 434 489 434 498 409 c 1,15,-1
 521 519 l 1,16,-1
 541 519 l 1,17,-1
 394 -173 l 2,18,19
 393 -174 393 -174 393 -180 c 0,20,21
 393 -193 393 -193 405 -193 c 1,22,-1
 401 -213 l 1,23,24
 373 -213 373 -213 373 -182 c 0,25,26
 373 -174 373 -174 374 -173 c 2,27,-1
 436 119 l 1,28,29
 381 56 381 56 323.5 23 c 128,-1,30
 266 -10 266 -10 208 -10 c 0,0,1
212 10 m 0,31,32
 246 10 246 10 279.5 22.5 c 128,-1,33
 313 35 313 35 343 56 c 128,-1,34
 373 77 373 77 399 104 c 128,-1,35
 425 131 425 131 445 161 c 1,36,-1
 488 358 l 1,37,38
 483 388 483 388 470 415.5 c 128,-1,39
 457 443 457 443 436.5 463 c 128,-1,40
 416 483 416 483 388.5 495 c 128,-1,41
 361 507 361 507 327 507 c 0,42,43
 272 507 272 507 222 480.5 c 128,-1,44
 172 454 172 454 133.5 411.5 c 128,-1,45
 95 369 95 369 72 315.5 c 128,-1,46
 49 262 49 262 49 208 c 0,47,48
 49 168 49 168 60 132 c 128,-1,49
 71 96 71 96 92 69 c 128,-1,50
 113 42 113 42 143.5 26 c 128,-1,51
 174 10 174 10 212 10 c 0,31,32
EndSplineSet
Substitution2: "'ss01' Style Set 1 in Latin lookup 8 subtable" q.alt
Substitution2: "'salt' Stylistic Alternatives in Latin lookup 5 subtable" q.alt
Substitution2: "'smcp' Lowercase to Small Capitals in Latin lookup 2 subtable" Q.sc
AlternateSubs2: "'aalt' Access All Alternates in Latin lookup 1 subtable" Q.sc q.alt
EndChar

StartChar: r
Encoding: 114 114 86
Width: 317
GlyphClass: 2
Flags: W
LayerCount: 2
Fore
SplineSet
127 519 m 1,0,-1
 147 519 l 1,1,-1
 119 385 l 1,2,3
 160 446 160 446 213 479.5 c 128,-1,4
 266 513 266 513 320 518 c 0,5,6
 325 519 325 519 329.5 519 c 128,-1,7
 334 519 334 519 339 519 c 1,8,-1
 335 499 l 1,9,10
 264 496 264 496 203.5 451 c 128,-1,11
 143 406 143 406 107 328 c 1,12,-1
 37 0 l 1,13,-1
 17 0 l 1,14,-1
 127 519 l 1,0,-1
EndSplineSet
Substitution2: "'smcp' Lowercase to Small Capitals in Latin lookup 2 subtable" R.sc
Substitution2: "'aalt' Access All Alternates in Latin lookup 0 subtable" R.sc
EndChar

StartChar: s
Encoding: 115 115 87
Width: 450
GlyphClass: 2
Flags: W
LayerCount: 2
Fore
SplineSet
159 -10 m 0,0,1
 102 -10 102 -10 59 10.5 c 128,-1,2
 16 31 16 31 -12 74 c 1,3,-1
 5 87 l 1,4,5
 35 48 35 48 72.5 29 c 128,-1,6
 110 10 110 10 163 10 c 0,7,8
 204 10 204 10 239 20.5 c 128,-1,9
 274 31 274 31 300 49.5 c 128,-1,10
 326 68 326 68 341 95 c 128,-1,11
 356 122 356 122 356 155 c 0,12,13
 356 177 356 177 346 192.5 c 128,-1,14
 336 208 336 208 317 219 c 128,-1,15
 298 230 298 230 270.5 239 c 128,-1,16
 243 248 243 248 208 257 c 0,17,18
 175 265 175 265 150 273 c 128,-1,19
 125 281 125 281 107.5 291.5 c 128,-1,20
 90 302 90 302 81 317.5 c 128,-1,21
 72 333 72 333 72 356 c 0,22,23
 72 399 72 399 89.5 431.5 c 128,-1,24
 107 464 107 464 136.5 485 c 128,-1,25
 166 506 166 506 203.5 516.5 c 128,-1,26
 241 527 241 527 281 527 c 0,27,28
 341 527 341 527 378.5 505.5 c 128,-1,29
 416 484 416 484 426 452 c 1,30,-1
 407 444 l 1,31,32
 396 475 396 475 358 491 c 128,-1,33
 320 507 320 507 273 507 c 0,34,35
 238 507 238 507 205.5 498.5 c 128,-1,36
 173 490 173 490 148 472 c 128,-1,37
 123 454 123 454 108 426.5 c 128,-1,38
 93 399 93 399 93 362 c 0,39,40
 93 343 93 343 100.5 330 c 128,-1,41
 108 317 108 317 123 308 c 128,-1,42
 138 299 138 299 160.5 292 c 128,-1,43
 183 285 183 285 213 277 c 0,44,45
 250 267 250 267 280.5 258 c 128,-1,46
 311 249 311 249 332.5 236 c 128,-1,47
 354 223 354 223 365.5 205.5 c 128,-1,48
 377 188 377 188 377 162 c 0,49,50
 377 124 377 124 360.5 92.5 c 128,-1,51
 344 61 344 61 315 38 c 128,-1,52
 286 15 286 15 246 2.5 c 128,-1,53
 206 -10 206 -10 159 -10 c 0,0,1
EndSplineSet
Substitution2: "'smcp' Lowercase to Small Capitals in Latin lookup 2 subtable" S.sc
Substitution2: "'aalt' Access All Alternates in Latin lookup 0 subtable" S.sc
EndChar

StartChar: t
Encoding: 116 116 88
Width: 281
GlyphClass: 2
Flags: W
LayerCount: 2
Fore
SplineSet
119 -5 m 0,0,1
 88 -5 88 -5 68 12 c 128,-1,2
 48 29 48 29 48 58 c 0,3,4
 48 62 48 62 48.5 66 c 128,-1,5
 49 70 49 70 50 75 c 2,6,-1
 140 499 l 1,7,-1
 69 499 l 1,8,-1
 73 519 l 1,9,-1
 145 519 l 1,10,-1
 183 700 l 1,11,-1
 203 700 l 1,12,-1
 165 519 l 1,13,-1
 283 519 l 1,14,-1
 279 499 l 1,15,-1
 160 499 l 1,16,-1
 80 126 l 2,17,18
 74 98 74 98 71.5 85.5 c 128,-1,19
 69 73 69 73 69 66 c 0,20,21
 69 41 69 41 85 28 c 128,-1,22
 101 15 101 15 124 15 c 0,23,24
 140 15 140 15 155 18.5 c 128,-1,25
 170 22 170 22 181.5 26.5 c 128,-1,26
 193 31 193 31 200.5 35 c 128,-1,27
 208 39 208 39 209 40 c 2,28,-1
 216 24 l 1,29,30
 216 24 216 24 208 19 c 128,-1,31
 200 14 200 14 186.5 9 c 128,-1,32
 173 4 173 4 155.5 -0.5 c 128,-1,33
 138 -5 138 -5 119 -5 c 0,0,1
EndSplineSet
Substitution2: "'ss01' Style Set 1 in Latin lookup 8 subtable" t.alt
Substitution2: "'salt' Stylistic Alternatives in Latin lookup 5 subtable" t.alt
Substitution2: "'smcp' Lowercase to Small Capitals in Latin lookup 2 subtable" T.sc
AlternateSubs2: "'aalt' Access All Alternates in Latin lookup 1 subtable" T.sc t.alt
EndChar

StartChar: u
Encoding: 117 117 89
Width: 551
GlyphClass: 2
Flags: W
LayerCount: 2
Fore
SplineSet
167 -10 m 0,0,1
 47 -10 47 -10 47 129 c 0,2,3
 47 172 47 172 59 228 c 2,4,-1
 121 519 l 1,5,-1
 141 519 l 1,6,-1
 79 228 l 2,7,8
 67 172 67 172 67 131 c 0,9,10
 67 10 67 10 172 10 c 0,11,12
 208 10 208 10 244.5 23.5 c 128,-1,13
 281 37 281 37 314.5 60.5 c 128,-1,14
 348 84 348 84 376.5 117 c 128,-1,15
 405 150 405 150 424 189 c 1,16,-1
 494 519 l 1,17,-1
 514 519 l 1,18,-1
 418 67 l 2,19,20
 416 56 416 56 413.5 46 c 128,-1,21
 411 36 411 36 411 34 c 0,22,23
 411 20 411 20 424 20 c 1,24,-1
 419 0 l 1,25,26
 392 0 392 0 392 30 c 0,27,28
 392 31 392 31 392.5 35 c 128,-1,29
 393 39 393 39 395 49.5 c 128,-1,30
 397 60 397 60 401 79.5 c 128,-1,31
 405 99 405 99 412 132 c 1,32,33
 389 99 389 99 360.5 73 c 128,-1,34
 332 47 332 47 300 28.5 c 128,-1,35
 268 10 268 10 234 0 c 128,-1,36
 200 -10 200 -10 167 -10 c 0,0,1
EndSplineSet
Substitution2: "'smcp' Lowercase to Small Capitals in Latin lookup 2 subtable" U.sc
Substitution2: "'aalt' Access All Alternates in Latin lookup 0 subtable" U.sc
EndChar

StartChar: v
Encoding: 118 118 90
Width: 451
GlyphClass: 2
Flags: W
LayerCount: 2
Fore
SplineSet
64 519 m 1,0,-1
 85 519 l 1,1,-1
 163 28 l 1,2,3
 212 83 212 83 253.5 146 c 128,-1,4
 295 209 295 209 328.5 273.5 c 128,-1,5
 362 338 362 338 387.5 400.5 c 128,-1,6
 413 463 413 463 431 519 c 1,7,-1
 451 519 l 1,8,9
 410 388 410 388 342 256 c 128,-1,10
 274 124 274 124 165 0 c 1,11,-1
 147 0 l 1,12,-1
 64 519 l 1,0,-1
EndSplineSet
Substitution2: "'smcp' Lowercase to Small Capitals in Latin lookup 2 subtable" V.sc
Substitution2: "'aalt' Access All Alternates in Latin lookup 0 subtable" V.sc
EndChar

StartChar: w
Encoding: 119 119 91
Width: 723
GlyphClass: 2
Flags: W
LayerCount: 2
Fore
SplineSet
61 519 m 1,0,-1
 82 519 l 1,1,-1
 170 28 l 1,2,3
 228 91 228 91 275 162.5 c 128,-1,4
 322 234 322 234 359 306 c 1,5,-1
 321 519 l 1,6,-1
 342 519 l 1,7,-1
 374 337 l 1,8,9
 397 385 397 385 415.5 431 c 128,-1,10
 434 477 434 477 448 519 c 1,11,-1
 468 519 l 1,12,13
 451 465 451 465 429 411 c 128,-1,14
 407 357 407 357 380 303 c 1,15,-1
 430 28 l 1,16,17
 481 83 481 83 524 146 c 128,-1,18
 567 209 567 209 602 273.5 c 128,-1,19
 637 338 637 338 663.5 400.5 c 128,-1,20
 690 463 690 463 708 519 c 1,21,-1
 728 519 l 1,22,23
 686 388 686 388 615.5 256 c 128,-1,24
 545 124 545 124 432 0 c 1,25,-1
 414 0 l 1,26,-1
 365 273 l 1,27,28
 327 203 327 203 279.5 134.5 c 128,-1,29
 232 66 232 66 172 0 c 1,30,-1
 154 0 l 1,31,-1
 61 519 l 1,0,-1
EndSplineSet
Substitution2: "'ss01' Style Set 1 in Latin lookup 8 subtable" w.alt
Substitution2: "'salt' Stylistic Alternatives in Latin lookup 5 subtable" w.alt
Substitution2: "'smcp' Lowercase to Small Capitals in Latin lookup 2 subtable" W.sc
AlternateSubs2: "'aalt' Access All Alternates in Latin lookup 1 subtable" W.sc w.alt
EndChar

StartChar: x
Encoding: 120 120 92
Width: 456
GlyphClass: 2
Flags: W
LayerCount: 2
Fore
SplineSet
206 258 m 1,0,-1
 64 519 l 1,1,-1
 90 519 l 1,2,-1
 217 285 l 1,3,-1
 222 273 l 1,4,-1
 459 519 l 1,5,-1
 485 519 l 1,6,-1
 232 258 l 1,7,-1
 373 0 l 1,8,-1
 347 0 l 1,9,-1
 221 232 l 1,10,-1
 216 244 l 1,11,-1
 -18 0 l 1,12,-1
 -44 0 l 1,13,-1
 206 258 l 1,0,-1
EndSplineSet
Substitution2: "'smcp' Lowercase to Small Capitals in Latin lookup 2 subtable" X.sc
Substitution2: "'aalt' Access All Alternates in Latin lookup 0 subtable" X.sc
EndChar

StartChar: y
Encoding: 121 121 93
Width: 460
GlyphClass: 2
Flags: W
LayerCount: 2
Fore
SplineSet
-37 -207 m 1,0,1
 -7 -201 -7 -201 14.5 -191 c 128,-1,2
 36 -181 36 -181 54 -164.5 c 128,-1,3
 72 -148 72 -148 89.5 -123 c 128,-1,4
 107 -98 107 -98 130 -63 c 2,5,-1
 171 0 l 1,6,-1
 52 519 l 1,7,-1
 74 519 l 1,8,-1
 186 25 l 1,9,-1
 244 117 l 2,10,11
 291 192 291 192 323.5 247 c 128,-1,12
 356 302 356 302 378.5 347.5 c 128,-1,13
 401 393 401 393 416.5 433.5 c 128,-1,14
 432 474 432 474 445 519 c 1,15,-1
 466 519 l 1,16,17
 452 471 452 471 437 429.5 c 128,-1,18
 422 388 422 388 399 342 c 128,-1,19
 376 296 376 296 342.5 239 c 128,-1,20
 309 182 309 182 259 103 c 2,21,-1
 177 -26 l 2,22,23
 141 -82 141 -82 115.5 -118.5 c 128,-1,24
 90 -155 90 -155 66.5 -176.5 c 128,-1,25
 43 -198 43 -198 19.5 -208.5 c 128,-1,26
 -4 -219 -4 -219 -35 -224 c 1,27,-1
 -37 -207 l 1,0,1
EndSplineSet
Substitution2: "'ss01' Style Set 1 in Latin lookup 8 subtable" y.alt
Substitution2: "'salt' Stylistic Alternatives in Latin lookup 5 subtable" y.alt
Substitution2: "'smcp' Lowercase to Small Capitals in Latin lookup 2 subtable" Y.sc
AlternateSubs2: "'aalt' Access All Alternates in Latin lookup 1 subtable" Y.sc y.alt
EndChar

StartChar: z
Encoding: 122 122 94
Width: 457
GlyphClass: 2
Flags: W
LayerCount: 2
Fore
SplineSet
-32 20 m 1,0,-1
 445 499 l 1,1,-1
 75 499 l 1,2,-1
 79 519 l 1,3,-1
 474 519 l 1,4,-1
 470 499 l 1,5,-1
 -6 20 l 1,6,-1
 365 20 l 1,7,-1
 360 0 l 1,8,-1
 -36 0 l 1,9,-1
 -32 20 l 1,0,-1
EndSplineSet
Substitution2: "'smcp' Lowercase to Small Capitals in Latin lookup 2 subtable" Z.sc
Substitution2: "'aalt' Access All Alternates in Latin lookup 0 subtable" Z.sc
EndChar

StartChar: braceleft
Encoding: 123 123 95
Width: 217
GlyphClass: 2
Flags: W
LayerCount: 2
Fore
SplineSet
204 720 m 1,0,-1
 139 416 l 2,1,2
 138 411 138 411 131.5 392.5 c 128,-1,3
 125 374 125 374 107 360 c 1,4,5
 113 353 113 353 115 344 c 128,-1,6
 117 335 117 335 117 326 c 0,7,8
 117 318 117 318 116 312 c 128,-1,9
 115 306 115 306 115 304 c 2,10,-1
 48 -11 l 1,11,-1
 101 -11 l 1,12,-1
 96 -31 l 1,13,-1
 46 -31 l 2,14,15
 40 -31 40 -31 35 -27 c 128,-1,16
 30 -23 30 -23 30 -12 c 0,17,18
 30 -5 30 -5 31 -1 c 2,19,-1
 96 304 l 2,20,21
 98 314 98 314 98 321 c 0,22,23
 98 332 98 332 93.5 340.5 c 128,-1,24
 89 349 89 349 77 351 c 1,25,-1
 81 371 l 1,26,27
 91 371 91 371 98 377 c 128,-1,28
 105 383 105 383 109.5 390.5 c 128,-1,29
 114 398 114 398 116 405.5 c 128,-1,30
 118 413 118 413 119 416 c 2,31,-1
 182 710 l 2,32,33
 186 730 186 730 195.5 735 c 128,-1,34
 205 740 205 740 210 740 c 2,35,-1
 260 740 l 1,36,-1
 256 720 l 1,37,-1
 204 720 l 1,0,-1
EndSplineSet
EndChar

StartChar: bar
Encoding: 124 124 96
Width: 254
GlyphClass: 2
Flags: W
LayerCount: 2
Fore
SplineSet
122 -130 m 1,0,-1
 122 775 l 1,1,-1
 142 775 l 1,2,-1
 142 -130 l 1,3,-1
 122 -130 l 1,0,-1
EndSplineSet
EndChar

StartChar: braceright
Encoding: 125 125 97
Width: 218
GlyphClass: 2
Flags: W
LayerCount: 2
Fore
SplineSet
140 720 m 1,0,-1
 144 740 l 1,1,-1
 194 740 l 2,2,3
 197 740 197 740 204 736.5 c 128,-1,4
 211 733 211 733 211 719 c 0,5,6
 211 713 211 713 210 710 c 2,7,-1
 147 416 l 2,8,9
 145 410 145 410 145 399 c 0,10,11
 145 389 145 389 149 380 c 128,-1,12
 153 371 153 371 166 371 c 1,13,-1
 162 351 l 1,14,15
 145 349 145 349 135.5 334 c 128,-1,16
 126 319 126 319 123 304 c 2,17,-1
 59 -1 l 2,18,19
 55 -18 55 -18 46.5 -24.5 c 128,-1,20
 38 -31 38 -31 30 -31 c 2,21,-1
 -20 -31 l 1,22,-1
 -16 -11 l 1,23,-1
 36 -11 l 1,24,-1
 103 304 l 2,25,26
 104 309 104 309 111 327.5 c 128,-1,27
 118 346 118 346 135 360 c 1,28,29
 129 368 129 368 127 377 c 128,-1,30
 125 386 125 386 125 394 c 0,31,32
 125 410 125 410 127 416 c 2,33,-1
 192 720 l 1,34,-1
 140 720 l 1,0,-1
EndSplineSet
EndChar

StartChar: asciitilde
Encoding: 126 126 98
Width: 442
GlyphClass: 2
Flags: W
LayerCount: 2
Fore
SplineSet
56 251 m 2,0,1
 56 252 56 252 60.5 265 c 128,-1,2
 65 278 65 278 75.5 293 c 128,-1,3
 86 308 86 308 101.5 320 c 128,-1,4
 117 332 117 332 140 332 c 0,5,6
 160 332 160 332 178.5 322.5 c 128,-1,7
 197 313 197 313 215 301.5 c 128,-1,8
 233 290 233 290 251 280.5 c 128,-1,9
 269 271 269 271 289 271 c 0,10,11
 307 271 307 271 320 278.5 c 128,-1,12
 333 286 333 286 342 296 c 128,-1,13
 351 306 351 306 355 314.5 c 128,-1,14
 359 323 359 323 359 325 c 2,15,-1
 379 324 l 1,16,17
 374 312 374 312 367 299 c 128,-1,18
 360 286 360 286 349.5 275.5 c 128,-1,19
 339 265 339 265 324 258 c 128,-1,20
 309 251 309 251 289 251 c 0,21,22
 265 251 265 251 245 260.5 c 128,-1,23
 225 270 225 270 207 281.5 c 128,-1,24
 189 293 189 293 172.5 302.5 c 128,-1,25
 156 312 156 312 140 312 c 0,26,27
 125 312 125 312 113 302.5 c 128,-1,28
 101 293 101 293 92.5 282 c 128,-1,29
 84 271 84 271 80 261.5 c 128,-1,30
 76 252 76 252 76 251 c 2,31,-1
 56 251 l 2,0,1
EndSplineSet
EndChar

StartChar: exclamdown
Encoding: 161 161 100
Width: 224
GlyphClass: 2
Flags: W
LayerCount: 2
Fore
SplineSet
168 517 m 1,0,-1
 58 0 l 1,1,-1
 38 0 l 1,2,-1
 148 517 l 1,3,-1
 168 517 l 1,0,-1
210 717 m 1,4,-1
 193 633 l 1,5,-1
 168 633 l 1,6,-1
 190 717 l 1,7,-1
 210 717 l 1,4,-1
EndSplineSet
EndChar

StartChar: cent
Encoding: 162 162 101
Width: 522
GlyphClass: 2
Flags: W
LayerCount: 2
Fore
SplineSet
175 -120 m 1,0,-1
 199 -9 l 1,1,2
 159 -6 159 -6 127.5 14 c 128,-1,3
 96 34 96 34 74.5 64 c 128,-1,4
 53 94 53 94 42 132 c 128,-1,5
 31 170 31 170 31 210 c 0,6,7
 31 267 31 267 54 322.5 c 128,-1,8
 77 378 77 378 115.5 422.5 c 128,-1,9
 154 467 154 467 205 495.5 c 128,-1,10
 256 524 256 524 313 527 c 1,11,-1
 338 645 l 1,12,-1
 357 645 l 1,13,-1
 332 527 l 1,14,15
 369 526 369 526 396 517 c 128,-1,16
 423 508 423 508 442 492.5 c 128,-1,17
 461 477 461 477 473 456.5 c 128,-1,18
 485 436 485 436 492 411 c 1,19,-1
 471 404 l 1,20,21
 455 456 455 456 417.5 480.5 c 128,-1,22
 380 505 380 505 328 507 c 1,23,-1
 222 10 l 1,24,25
 245 10 245 10 274 17.5 c 128,-1,26
 303 25 303 25 331 39.5 c 128,-1,27
 359 54 359 54 382.5 74 c 128,-1,28
 406 94 406 94 417 119 c 1,29,-1
 436 113 l 1,30,31
 420 83 420 83 394 60 c 128,-1,32
 368 37 368 37 338 21.5 c 128,-1,33
 308 6 308 6 276.5 -2 c 128,-1,34
 245 -10 245 -10 218 -10 c 1,35,-1
 194 -120 l 1,36,-1
 175 -120 l 1,0,-1
51 212 m 0,37,38
 51 174 51 174 61.5 139 c 128,-1,39
 72 104 72 104 92 76.5 c 128,-1,40
 112 49 112 49 140 31.5 c 128,-1,41
 168 14 168 14 203 11 c 1,42,-1
 308 507 l 1,43,44
 252 504 252 504 205 475.5 c 128,-1,45
 158 447 158 447 124 404.5 c 128,-1,46
 90 362 90 362 70.5 311 c 128,-1,47
 51 260 51 260 51 212 c 0,37,38
EndSplineSet
EndChar

StartChar: sterling
Encoding: 163 163 102
Width: 446
GlyphClass: 2
Flags: W
LayerCount: 2
Fore
SplineSet
64 366 m 1,0,-1
 167 366 l 1,1,2
 156 407 156 407 142.5 443.5 c 128,-1,3
 129 480 129 480 129 520 c 0,4,5
 129 559 129 559 146 594.5 c 128,-1,6
 163 630 163 630 190 656.5 c 128,-1,7
 217 683 217 683 252 699 c 128,-1,8
 287 715 287 715 323 715 c 0,9,10
 371 715 371 715 406 686.5 c 128,-1,11
 441 658 441 658 455 610 c 1,12,-1
 436 598 l 1,13,14
 422 643 422 643 390.5 669 c 128,-1,15
 359 695 359 695 317 695 c 0,16,17
 286 695 286 695 256.5 681.5 c 128,-1,18
 227 668 227 668 203.5 644.5 c 128,-1,19
 180 621 180 621 165.5 590 c 128,-1,20
 151 559 151 559 151 525 c 0,21,22
 151 485 151 485 165 447 c 128,-1,23
 179 409 179 409 190 366 c 1,24,-1
 356 366 l 1,25,-1
 351 346 l 1,26,-1
 194 346 l 1,27,28
 197 332 197 332 199 317 c 128,-1,29
 201 302 201 302 201 286 c 0,30,31
 201 255 201 255 196 228 c 128,-1,32
 191 201 191 201 173.5 171.5 c 128,-1,33
 156 142 156 142 123.5 105.5 c 128,-1,34
 91 69 91 69 36 18 c 1,35,36
 52 21 52 21 70 23 c 128,-1,37
 88 25 88 25 105 25 c 0,38,39
 127 25 127 25 144 22 c 128,-1,40
 161 19 161 19 176.5 15 c 128,-1,41
 192 11 192 11 207.5 8 c 128,-1,42
 223 5 223 5 241 5 c 0,43,44
 261 5 261 5 284 10 c 128,-1,45
 307 15 307 15 339 26 c 1,46,-1
 341 7 l 1,47,48
 285 -15 285 -15 236 -15 c 0,49,50
 215 -15 215 -15 198 -12 c 128,-1,51
 181 -9 181 -9 165 -5 c 128,-1,52
 149 -1 149 -1 132 2 c 128,-1,53
 115 5 115 5 94 5 c 0,54,55
 74 5 74 5 48.5 1.5 c 128,-1,56
 23 -2 23 -2 2 -7 c 1,57,-1
 -4 10 l 1,58,59
 59 67 59 67 95.5 105 c 128,-1,60
 132 143 132 143 151 172 c 128,-1,61
 170 201 170 201 175 226 c 128,-1,62
 180 251 180 251 180 283 c 0,63,64
 180 314 180 314 172 346 c 1,65,-1
 60 346 l 1,66,-1
 64 366 l 1,0,-1
EndSplineSet
EndChar

StartChar: currency
Encoding: 164 164 103
Width: 551
GlyphClass: 2
Flags: W
LayerCount: 2
Fore
SplineSet
160 467 m 1,0,1
 183 490 183 490 213.5 502.5 c 128,-1,2
 244 515 244 515 279 515 c 0,3,4
 315 515 315 515 346.5 501.5 c 128,-1,5
 378 488 378 488 401 465 c 1,6,-1
 471 534 l 1,7,-1
 486 520 l 1,8,-1
 415 450 l 1,9,10
 434 426 434 426 445 396.5 c 128,-1,11
 456 367 456 367 456 335 c 256,12,13
 456 303 456 303 444.5 273 c 128,-1,14
 433 243 433 243 413 219 c 1,15,-1
 486 148 l 1,16,-1
 471 134 l 1,17,-1
 399 205 l 1,18,19
 375 182 375 182 344.5 169.5 c 128,-1,20
 314 157 314 157 279 157 c 256,21,22
 244 157 244 157 214.5 169 c 128,-1,23
 185 181 185 181 162 202 c 1,24,-1
 93 134 l 1,25,-1
 78 148 l 1,26,-1
 148 217 l 1,27,28
 104 267 104 267 104 335 c 0,29,30
 104 368 104 368 115 398 c 128,-1,31
 126 428 126 428 146 452 c 1,32,-1
 78 520 l 1,33,-1
 93 534 l 1,34,-1
 160 467 l 1,0,1
125 334 m 0,35,36
 125 301 125 301 137 272 c 128,-1,37
 149 243 149 243 170 221.5 c 128,-1,38
 191 200 191 200 219 187.5 c 128,-1,39
 247 175 247 175 279 175 c 256,40,41
 311 175 311 175 339.5 188 c 128,-1,42
 368 201 368 201 389 223 c 128,-1,43
 410 245 410 245 422.5 274 c 128,-1,44
 435 303 435 303 435 336 c 256,45,46
 435 369 435 369 422.5 398.5 c 128,-1,47
 410 428 410 428 389 449.5 c 128,-1,48
 368 471 368 471 339.5 483.5 c 128,-1,49
 311 496 311 496 279 496 c 0,50,51
 248 496 248 496 220 483.5 c 128,-1,52
 192 471 192 471 171 449 c 128,-1,53
 150 427 150 427 137.5 397.5 c 128,-1,54
 125 368 125 368 125 334 c 0,35,36
EndSplineSet
EndChar

StartChar: yen
Encoding: 165 165 104
Width: 627
GlyphClass: 2
Flags: W
LayerCount: 2
Fore
SplineSet
368 341 m 1,0,-1
 456 341 l 1,1,-1
 452 321 l 1,2,-1
 351 321 l 1,3,-1
 312 275 l 1,4,-1
 307 251 l 1,5,-1
 437 251 l 1,6,-1
 433 231 l 1,7,-1
 303 231 l 1,8,-1
 253 0 l 1,9,-1
 233 0 l 1,10,-1
 283 231 l 1,11,-1
 153 231 l 1,12,-1
 157 251 l 1,13,-1
 287 251 l 1,14,-1
 292 277 l 1,15,-1
 274 321 l 1,16,-1
 172 321 l 1,17,-1
 177 341 l 1,18,-1
 266 341 l 1,19,-1
 112 710 l 1,20,-1
 135 710 l 1,21,-1
 307 298 l 1,22,-1
 655 710 l 1,23,-1
 678 710 l 1,24,-1
 368 341 l 1,0,-1
EndSplineSet
EndChar

StartChar: brokenbar
Encoding: 166 166 105
Width: 248
GlyphClass: 2
Flags: W
LayerCount: 2
Fore
SplineSet
139 285 m 1,0,-1
 139 -130 l 1,1,-1
 119 -130 l 1,2,-1
 119 285 l 1,3,-1
 139 285 l 1,0,-1
139 775 m 1,4,-1
 139 360 l 1,5,-1
 119 360 l 1,6,-1
 119 775 l 1,7,-1
 139 775 l 1,4,-1
EndSplineSet
EndChar

StartChar: section
Encoding: 167 167 106
Width: 468
GlyphClass: 2
Flags: W
LayerCount: 2
Fore
SplineSet
346 181 m 1,0,1
 379 158 379 158 379 106 c 0,2,3
 379 59 379 59 358 22.5 c 128,-1,4
 337 -14 337 -14 304.5 -38.5 c 128,-1,5
 272 -63 272 -63 234 -75.5 c 128,-1,6
 196 -88 196 -88 162 -88 c 0,7,8
 101 -88 101 -88 64 -64 c 128,-1,9
 27 -40 27 -40 2 -6 c 1,10,-1
 20 7 l 1,11,12
 50 -31 50 -31 84.5 -49.5 c 128,-1,13
 119 -68 119 -68 167 -68 c 0,14,15
 198 -68 198 -68 231.5 -56.5 c 128,-1,16
 265 -45 265 -45 293 -23.5 c 128,-1,17
 321 -2 321 -2 339 29 c 128,-1,18
 357 60 357 60 357 99 c 0,19,20
 357 127 357 127 345.5 144.5 c 128,-1,21
 334 162 334 162 315.5 172 c 128,-1,22
 297 182 297 182 274 185.5 c 128,-1,23
 251 189 251 189 227 190 c 0,24,25
 196 191 196 191 169 198 c 128,-1,26
 142 205 142 205 121.5 220 c 128,-1,27
 101 235 101 235 89.5 257.5 c 128,-1,28
 78 280 78 280 78 312 c 0,29,30
 78 348 78 348 95 381.5 c 128,-1,31
 112 415 112 415 133 435 c 1,32,33
 116 447 116 447 107 471.5 c 128,-1,34
 98 496 98 496 98 525 c 0,35,36
 98 571 98 571 119 606.5 c 128,-1,37
 140 642 140 642 171.5 666 c 128,-1,38
 203 690 203 690 240.5 702.5 c 128,-1,39
 278 715 278 715 311 715 c 0,40,41
 342 715 342 715 365.5 710 c 128,-1,42
 389 705 389 705 405.5 695.5 c 128,-1,43
 422 686 422 686 433.5 672 c 128,-1,44
 445 658 445 658 453 640 c 1,45,-1
 433 632 l 1,46,47
 428 651 428 651 414.5 663.5 c 128,-1,48
 401 676 401 676 383 683 c 128,-1,49
 365 690 365 690 345 692.5 c 128,-1,50
 325 695 325 695 307 695 c 0,51,52
 276 695 276 695 243 683.5 c 128,-1,53
 210 672 210 672 182.5 650.5 c 128,-1,54
 155 629 155 629 137 598 c 128,-1,55
 119 567 119 567 119 528 c 0,56,57
 119 472 119 472 156 449 c 128,-1,58
 193 426 193 426 252 426 c 0,59,60
 282 426 282 426 309.5 419.5 c 128,-1,61
 337 413 337 413 358 398.5 c 128,-1,62
 379 384 379 384 392 361.5 c 128,-1,63
 405 339 405 339 405 307 c 0,64,65
 405 271 405 271 388 236.5 c 128,-1,66
 371 202 371 202 346 181 c 1,0,1
98 312 m 0,67,68
 98 280 98 280 110.5 261 c 128,-1,69
 123 242 123 242 142.5 231 c 128,-1,70
 162 220 162 220 187.5 215 c 128,-1,71
 213 210 213 210 238.5 207 c 128,-1,72
 264 204 264 204 287.5 201 c 128,-1,73
 311 198 311 198 328 190 c 1,74,75
 352 208 352 208 368.5 239.5 c 128,-1,76
 385 271 385 271 385 303 c 0,77,78
 385 332 385 332 372.5 352 c 128,-1,79
 360 372 360 372 340 384 c 128,-1,80
 320 396 320 396 296 401 c 128,-1,81
 272 406 272 406 248 406 c 0,82,83
 220 406 220 406 195 410.5 c 128,-1,84
 170 415 170 415 150 425 c 1,85,86
 129 408 129 408 113.5 377.5 c 128,-1,87
 98 347 98 347 98 312 c 0,67,68
EndSplineSet
EndChar

StartChar: dieresis
Encoding: 168 168 107
Width: 227
GlyphClass: 2
Flags: W
LayerCount: 2
Fore
SplineSet
40 653 m 1,0,-1
 56 730 l 1,1,-1
 76 730 l 1,2,-1
 60 653 l 1,3,-1
 40 653 l 1,0,-1
151 653 m 1,4,-1
 167 730 l 1,5,-1
 187 730 l 1,6,-1
 171 653 l 1,7,-1
 151 653 l 1,4,-1
EndSplineSet
EndChar

StartChar: copyright
Encoding: 169 169 108
Width: 836
GlyphClass: 2
Flags: W
LayerCount: 2
Fore
SplineSet
429 -7 m 256,0,1
 351 -7 351 -7 285 20.5 c 128,-1,2
 219 48 219 48 171 96.5 c 128,-1,3
 123 145 123 145 95.5 211 c 128,-1,4
 68 277 68 277 68 355 c 0,5,6
 68 432 68 432 95.5 498 c 128,-1,7
 123 564 123 564 171 612 c 128,-1,8
 219 660 219 660 285 687.5 c 128,-1,9
 351 715 351 715 429 715 c 256,10,11
 507 715 507 715 573 687.5 c 128,-1,12
 639 660 639 660 687 612 c 128,-1,13
 735 564 735 564 762.5 498 c 128,-1,14
 790 432 790 432 790 355 c 0,15,16
 790 277 790 277 762.5 211 c 128,-1,17
 735 145 735 145 687 96.5 c 128,-1,18
 639 48 639 48 573 20.5 c 128,-1,19
 507 -7 507 -7 429 -7 c 256,0,1
430 13 m 0,20,21
 502 13 502 13 563.5 37.5 c 128,-1,22
 625 62 625 62 671 107 c 128,-1,23
 717 152 717 152 743 214.5 c 128,-1,24
 769 277 769 277 769 352 c 0,25,26
 769 426 769 426 743.5 489 c 128,-1,27
 718 552 718 552 672.5 597.5 c 128,-1,28
 627 643 627 643 565 669 c 128,-1,29
 503 695 503 695 430 695 c 0,30,31
 356 695 356 695 294 669.5 c 128,-1,32
 232 644 232 644 186 598 c 128,-1,33
 140 552 140 552 114.5 489.5 c 128,-1,34
 89 427 89 427 89 354 c 256,35,36
 89 281 89 281 114.5 218.5 c 128,-1,37
 140 156 140 156 185.5 110.5 c 128,-1,38
 231 65 231 65 293.5 39 c 128,-1,39
 356 13 356 13 430 13 c 0,20,21
436 127 m 0,40,41
 398 127 398 127 359 142 c 128,-1,42
 320 157 320 157 288.5 186.5 c 128,-1,43
 257 216 257 216 237 258.5 c 128,-1,44
 217 301 217 301 217 355 c 0,45,46
 217 395 217 395 229.5 436 c 128,-1,47
 242 477 242 477 267.5 510.5 c 128,-1,48
 293 544 293 544 333 565 c 128,-1,49
 373 586 373 586 428 586 c 0,50,51
 484 586 484 586 531 562 c 128,-1,52
 578 538 578 538 598 487 c 1,53,-1
 579 480 l 1,54,55
 567 507 567 507 548.5 524 c 128,-1,56
 530 541 530 541 508.5 550.5 c 128,-1,57
 487 560 487 560 465.5 563 c 128,-1,58
 444 566 444 566 428 566 c 0,59,60
 378 566 378 566 342 546.5 c 128,-1,61
 306 527 306 527 283 496.5 c 128,-1,62
 260 466 260 466 248.5 428.5 c 128,-1,63
 237 391 237 391 237 355 c 0,64,65
 237 305 237 305 255.5 266.5 c 128,-1,66
 274 228 274 228 302.5 201.5 c 128,-1,67
 331 175 331 175 365.5 161 c 128,-1,68
 400 147 400 147 432 147 c 0,69,70
 454 147 454 147 477.5 153.5 c 128,-1,71
 501 160 501 160 523 171.5 c 128,-1,72
 545 183 545 183 562.5 200 c 128,-1,73
 580 217 580 217 589 238 c 1,74,-1
 608 233 l 1,75,76
 604 220 604 220 590 201.5 c 128,-1,77
 576 183 576 183 553.5 166.5 c 128,-1,78
 531 150 531 150 501 138.5 c 128,-1,79
 471 127 471 127 436 127 c 0,40,41
EndSplineSet
EndChar

StartChar: ordfeminine
Encoding: 170 170 109
Width: 404
GlyphClass: 2
Flags: W
LayerCount: 2
Fore
SplineSet
171 351 m 0,0,1
 129 351 129 351 104 376.5 c 128,-1,2
 79 402 79 402 79 440 c 0,3,4
 79 467 79 467 92 489 c 128,-1,5
 105 511 105 511 127.5 526.5 c 128,-1,6
 150 542 150 542 180 551 c 128,-1,7
 210 560 210 560 245 560 c 0,8,9
 306 560 306 560 350 541 c 1,10,-1
 357 576 l 2,11,12
 360 591 360 591 360 604 c 0,13,14
 360 641 360 641 338.5 662.5 c 128,-1,15
 317 684 317 684 275 684 c 0,16,17
 224 684 224 684 156 643 c 1,18,-1
 148 663 l 1,19,20
 224 709 224 709 282 709 c 0,21,22
 334 709 334 709 362 684 c 128,-1,23
 390 659 390 659 390 611 c 0,24,25
 390 602 390 602 389 592.5 c 128,-1,26
 388 583 388 583 386 573 c 2,27,-1
 350 402 l 2,28,29
 349 401 349 401 349 396 c 0,30,31
 349 386 349 386 360 386 c 1,32,-1
 354 357 l 1,33,34
 337 357 337 357 328.5 361.5 c 128,-1,35
 320 366 320 366 320 380 c 0,36,37
 320 385 320 385 321 387 c 2,38,-1
 326 416 l 1,39,40
 296 385 296 385 255 368 c 128,-1,41
 214 351 214 351 171 351 c 0,0,1
182 377 m 0,42,43
 205 377 205 377 230 383 c 128,-1,44
 255 389 255 389 276.5 400 c 128,-1,45
 298 411 298 411 313 425.5 c 128,-1,46
 328 440 328 440 332 457 c 2,47,-1
 345 518 l 1,48,49
 322 529 322 529 297 533 c 128,-1,50
 272 537 272 537 244 537 c 0,51,52
 186 537 186 537 147.5 512.5 c 128,-1,53
 109 488 109 488 109 445 c 0,54,55
 109 416 109 416 129 396.5 c 128,-1,56
 149 377 149 377 182 377 c 0,42,43
EndSplineSet
EndChar

StartChar: guillemotleft
Encoding: 171 171 110
Width: 497
GlyphClass: 2
Flags: W
LayerCount: 2
Fore
SplineSet
36 268 m 1,0,-1
 297 437 l 1,1,-1
 292 415 l 1,2,-1
 53 259 l 1,3,-1
 226 102 l 1,4,-1
 221 80 l 1,5,-1
 32 250 l 1,6,-1
 36 268 l 1,0,-1
198 268 m 1,7,-1
 460 437 l 1,8,-1
 455 415 l 1,9,-1
 215 259 l 1,10,-1
 388 102 l 1,11,-1
 384 80 l 1,12,-1
 195 250 l 1,13,-1
 198 268 l 1,7,-1
EndSplineSet
EndChar

StartChar: logicalnot
Encoding: 172 172 111
Width: 540
GlyphClass: 2
Flags: W
LayerCount: 2
Fore
SplineSet
478 338 m 1,0,-1
 436 140 l 1,1,-1
 416 140 l 1,2,-1
 454 318 l 1,3,-1
 90 318 l 1,4,-1
 94 338 l 1,5,-1
 478 338 l 1,0,-1
EndSplineSet
EndChar

StartChar: uni00AD
Encoding: 173 173 112
Width: 519
GlyphClass: 2
Flags: W
LayerCount: 2
Fore
SplineSet
59 261 m 1,0,-1
 63 281 l 1,1,-1
 447 281 l 1,2,-1
 443 261 l 1,3,-1
 59 261 l 1,0,-1
EndSplineSet
EndChar

StartChar: registered
Encoding: 174 174 113
Width: 836
GlyphClass: 2
Flags: W
LayerCount: 2
Fore
SplineSet
429 -7 m 256,0,1
 351 -7 351 -7 285 20.5 c 128,-1,2
 219 48 219 48 171 96.5 c 128,-1,3
 123 145 123 145 95.5 211 c 128,-1,4
 68 277 68 277 68 355 c 0,5,6
 68 432 68 432 95.5 498 c 128,-1,7
 123 564 123 564 171 612 c 128,-1,8
 219 660 219 660 285 687.5 c 128,-1,9
 351 715 351 715 429 715 c 256,10,11
 507 715 507 715 573 687.5 c 128,-1,12
 639 660 639 660 687 612 c 128,-1,13
 735 564 735 564 762.5 498 c 128,-1,14
 790 432 790 432 790 355 c 0,15,16
 790 277 790 277 762.5 211 c 128,-1,17
 735 145 735 145 687 96.5 c 128,-1,18
 639 48 639 48 573 20.5 c 128,-1,19
 507 -7 507 -7 429 -7 c 256,0,1
429 13 m 0,20,21
 501 13 501 13 563 37.5 c 128,-1,22
 625 62 625 62 671 107 c 128,-1,23
 717 152 717 152 743 215 c 128,-1,24
 769 278 769 278 769 355 c 0,25,26
 769 428 769 428 743.5 490 c 128,-1,27
 718 552 718 552 672.5 597.5 c 128,-1,28
 627 643 627 643 564.5 669 c 128,-1,29
 502 695 502 695 429 695 c 256,30,31
 356 695 356 695 293.5 669 c 128,-1,32
 231 643 231 643 185.5 597.5 c 128,-1,33
 140 552 140 552 114.5 490 c 128,-1,34
 89 428 89 428 89 355 c 0,35,36
 89 281 89 281 114.5 218.5 c 128,-1,37
 140 156 140 156 185.5 110.5 c 128,-1,38
 231 65 231 65 293 39 c 128,-1,39
 355 13 355 13 429 13 c 0,20,21
284 583 m 1,40,-1
 472 583 l 2,41,42
 500 583 500 583 524 571 c 128,-1,43
 548 559 548 559 565.5 539 c 128,-1,44
 583 519 583 519 592.5 494 c 128,-1,45
 602 469 602 469 602 443 c 0,46,47
 602 416 602 416 593.5 391.5 c 128,-1,48
 585 367 585 367 569.5 348 c 128,-1,49
 554 329 554 329 532 317 c 128,-1,50
 510 305 510 305 484 303 c 1,51,-1
 601 121 l 1,52,-1
 577 121 l 1,53,-1
 461 303 l 1,54,-1
 305 303 l 1,55,-1
 305 121 l 1,56,-1
 284 121 l 1,57,-1
 284 583 l 1,40,-1
477 323 m 2,58,59
 503 323 503 323 522.5 332.5 c 128,-1,60
 542 342 542 342 555.5 358.5 c 128,-1,61
 569 375 569 375 575.5 397 c 128,-1,62
 582 419 582 419 582 443 c 256,63,64
 582 467 582 467 574 489 c 128,-1,65
 566 511 566 511 551.5 527 c 128,-1,66
 537 543 537 543 516.5 552.5 c 128,-1,67
 496 562 496 562 472 562 c 2,68,-1
 305 562 l 1,69,-1
 305 323 l 1,70,-1
 477 323 l 2,58,59
EndSplineSet
EndChar

StartChar: macron
Encoding: 175 175 114
Width: 361
GlyphClass: 2
Flags: W
LayerCount: 2
Fore
SplineSet
46 686 m 1,0,-1
 50 706 l 1,1,-1
 316 706 l 1,2,-1
 312 686 l 1,3,-1
 46 686 l 1,0,-1
EndSplineSet
EndChar

StartChar: degree
Encoding: 176 176 115
Width: 245
GlyphClass: 2
Flags: W
LayerCount: 2
Fore
SplineSet
180 586 m 0,0,1
 157 586 157 586 142 601.5 c 128,-1,2
 127 617 127 617 127 640 c 0,3,4
 127 655 127 655 133.5 670 c 128,-1,5
 140 685 140 685 151.5 697 c 128,-1,6
 163 709 163 709 178 716.5 c 128,-1,7
 193 724 193 724 210 724 c 0,8,9
 233 724 233 724 248 707.5 c 128,-1,10
 263 691 263 691 263 667 c 0,11,12
 263 651 263 651 256 636.5 c 128,-1,13
 249 622 249 622 237.5 610.5 c 128,-1,14
 226 599 226 599 211 592.5 c 128,-1,15
 196 586 196 586 180 586 c 0,0,1
185 606 m 0,16,17
 194 606 194 606 204.5 610.5 c 128,-1,18
 215 615 215 615 223.5 623 c 128,-1,19
 232 631 232 631 237.5 641.5 c 128,-1,20
 243 652 243 652 243 664 c 0,21,22
 243 684 243 684 232.5 692.5 c 128,-1,23
 222 701 222 701 205 701 c 0,24,25
 183 701 183 701 166.5 685 c 128,-1,26
 150 669 150 669 150 646 c 0,27,28
 150 629 150 629 159 617.5 c 128,-1,29
 168 606 168 606 185 606 c 0,16,17
EndSplineSet
EndChar

StartChar: plusminus
Encoding: 177 177 116
Width: 483
GlyphClass: 2
Flags: W
LayerCount: 2
Fore
SplineSet
77 85 m 1,0,-1
 77 105 l 1,1,-1
 377 105 l 1,2,-1
 377 85 l 1,3,-1
 77 85 l 1,0,-1
377 365 m 1,4,-1
 377 345 l 1,5,-1
 237 345 l 1,6,-1
 237 195 l 1,7,-1
 217 195 l 1,8,-1
 217 345 l 1,9,-1
 77 345 l 1,10,-1
 77 365 l 1,11,-1
 217 365 l 1,12,-1
 217 515 l 1,13,-1
 237 515 l 1,14,-1
 237 365 l 1,15,-1
 377 365 l 1,4,-1
EndSplineSet
EndChar

StartChar: twosuperior
Encoding: 178 178 117
Width: 354
GlyphClass: 2
Flags: W
LayerCount: 2
Fore
SplineSet
67 423 m 1,0,1
 83 497 83 497 122.5 536 c 128,-1,2
 162 575 162 575 221 596 c 0,3,4
 246 605 246 605 274 614 c 128,-1,5
 302 623 302 623 325 636 c 128,-1,6
 348 649 348 649 363 668.5 c 128,-1,7
 378 688 378 688 378 718 c 0,8,9
 378 747 378 747 357 769.5 c 128,-1,10
 336 792 336 792 288 792 c 0,11,12
 262 792 262 792 240.5 785.5 c 128,-1,13
 219 779 219 779 202 770 c 128,-1,14
 185 761 185 761 172.5 750.5 c 128,-1,15
 160 740 160 740 152 732 c 1,16,-1
 140 744 l 2,17,18
 141 746 141 746 152.5 756.5 c 128,-1,19
 164 767 164 767 184 779 c 128,-1,20
 204 791 204 791 231.5 801 c 128,-1,21
 259 811 259 811 294 811 c 0,22,23
 349 811 349 811 374 784.5 c 128,-1,24
 399 758 399 758 399 722 c 256,25,26
 399 686 399 686 382 662.5 c 128,-1,27
 365 639 365 639 339.5 624 c 128,-1,28
 314 609 314 609 285.5 600 c 128,-1,29
 257 591 257 591 233 583 c 0,30,31
 193 569 193 569 167.5 551 c 128,-1,32
 142 533 142 533 127 514 c 128,-1,33
 112 495 112 495 105.5 476 c 128,-1,34
 99 457 99 457 96 442 c 1,35,-1
 342 442 l 1,36,-1
 338 423 l 1,37,-1
 67 423 l 1,0,1
EndSplineSet
EndChar

StartChar: threesuperior
Encoding: 179 179 118
Width: 363
GlyphClass: 2
Flags: W
LayerCount: 2
Fore
SplineSet
205 418 m 0,0,1
 145 418 145 418 114.5 445 c 128,-1,2
 84 472 84 472 84 514 c 1,3,-1
 101 521 l 1,4,5
 101 480 101 480 129.5 458.5 c 128,-1,6
 158 437 158 437 209 437 c 0,7,8
 237 437 237 437 262.5 444.5 c 128,-1,9
 288 452 288 452 307 465 c 128,-1,10
 326 478 326 478 337.5 495.5 c 128,-1,11
 349 513 349 513 349 534 c 0,12,13
 349 569 349 569 316 589 c 128,-1,14
 283 609 283 609 225 609 c 2,15,-1
 204 609 l 1,16,-1
 208 627 l 1,17,-1
 229 627 l 2,18,19
 299 627 299 627 337.5 650 c 128,-1,20
 376 673 376 673 376 717 c 0,21,22
 376 751 376 751 349 772 c 128,-1,23
 322 793 322 793 277 793 c 0,24,25
 237 793 237 793 203 776 c 128,-1,26
 169 759 169 759 152 733 c 1,27,-1
 140 745 l 1,28,29
 160 775 160 775 198.5 793 c 128,-1,30
 237 811 237 811 281 811 c 0,31,32
 334 811 334 811 365.5 785 c 128,-1,33
 397 759 397 759 397 720 c 0,34,35
 397 682 397 682 371 655.5 c 128,-1,36
 345 629 345 629 292 618 c 1,37,38
 328 611 328 611 348.5 588.5 c 128,-1,39
 369 566 369 566 369 536 c 0,40,41
 369 510 369 510 355.5 488.5 c 128,-1,42
 342 467 342 467 319.5 451.5 c 128,-1,43
 297 436 297 436 267 427 c 128,-1,44
 237 418 237 418 205 418 c 0,0,1
EndSplineSet
EndChar

StartChar: acute
Encoding: 180 180 119
Width: 188
GlyphClass: 2
Flags: W
LayerCount: 2
Fore
SplineSet
53 645 m 1,0,-1
 40 657 l 1,1,-1
 116 730 l 1,2,-1
 149 730 l 1,3,-1
 53 645 l 1,0,-1
EndSplineSet
EndChar

StartChar: mu
Encoding: 181 181 120
Width: 580
GlyphClass: 2
Flags: W
LayerCount: 2
Fore
SplineSet
136 519 m 1,0,-1
 157 519 l 1,1,-1
 95 228 l 2,2,3
 83 172 83 172 83 131 c 0,4,5
 83 10 83 10 187 10 c 0,6,7
 223 10 223 10 259.5 23.5 c 128,-1,8
 296 37 296 37 329.5 60.5 c 128,-1,9
 363 84 363 84 391.5 117 c 128,-1,10
 420 150 420 150 439 189 c 1,11,-1
 509 519 l 1,12,-1
 530 519 l 1,13,-1
 428 40 l 2,14,15
 427 39 427 39 427 33 c 0,16,17
 427 20 427 20 439 20 c 1,18,-1
 434 0 l 1,19,20
 407 0 407 0 407 30 c 0,21,22
 407 38 407 38 408 40 c 2,23,-1
 428 132 l 1,24,25
 405 99 405 99 376 73 c 128,-1,26
 347 47 347 47 315 28.5 c 128,-1,27
 283 10 283 10 249.5 0 c 128,-1,28
 216 -10 216 -10 183 -10 c 0,29,30
 80 -10 80 -10 66 94 c 1,31,-1
 1 -212 l 1,32,-1
 -19 -212 l 1,33,-1
 136 519 l 1,0,-1
EndSplineSet
EndChar

StartChar: paragraph
Encoding: 182 182 121
Width: 541
GlyphClass: 2
Flags: W
LayerCount: 2
Fore
SplineSet
64 433 m 0,0,1
 64 495 64 495 87 546 c 128,-1,2
 110 597 110 597 152 633.5 c 128,-1,3
 194 670 194 670 253.5 690 c 128,-1,4
 313 710 313 710 387 710 c 2,5,-1
 579 710 l 1,6,-1
 574 690 l 1,7,-1
 508 690 l 1,8,-1
 344 -80 l 1,9,-1
 324 -80 l 1,10,-1
 394 248 l 1,11,-1
 308 248 l 1,12,-1
 238 -80 l 1,13,-1
 218 -80 l 1,14,-1
 288 248 l 1,15,16
 180 250 180 250 122 298.5 c 128,-1,17
 64 347 64 347 64 433 c 0,0,1
84 438 m 0,18,19
 84 394 84 394 100.5 363 c 128,-1,20
 117 332 117 332 145 311.5 c 128,-1,21
 173 291 173 291 211 280.5 c 128,-1,22
 249 270 249 270 292 268 c 1,23,-1
 382 690 l 1,24,25
 311 690 311 690 255.5 671.5 c 128,-1,26
 200 653 200 653 162 620 c 128,-1,27
 124 587 124 587 104 540.5 c 128,-1,28
 84 494 84 494 84 438 c 0,18,19
488 690 m 1,29,-1
 402 690 l 1,30,-1
 312 268 l 1,31,-1
 398 268 l 1,32,-1
 488 690 l 1,29,-1
EndSplineSet
EndChar

StartChar: periodcentered
Encoding: 183 183 122
Width: 155
GlyphClass: 2
Flags: W
LayerCount: 2
Fore
SplineSet
56 250 m 1,0,-1
 74 333 l 1,1,-1
 93 333 l 1,2,-1
 76 250 l 1,3,-1
 56 250 l 1,0,-1
EndSplineSet
EndChar

StartChar: cedilla
Encoding: 184 184 123
Width: 239
GlyphClass: 2
Flags: W
LayerCount: 2
Fore
SplineSet
4 -125 m 1,0,1
 18 -132 18 -132 38.5 -137.5 c 128,-1,2
 59 -143 59 -143 83 -143 c 0,3,4
 148 -143 148 -143 148 -96 c 0,5,6
 148 -80 148 -80 137 -73.5 c 128,-1,7
 126 -67 126 -67 109 -67 c 0,8,9
 89 -67 89 -67 66 -72.5 c 128,-1,10
 43 -78 43 -78 29 -83 c 1,11,-1
 100 11 l 1,12,-1
 115 0 l 1,13,-1
 71 -57 l 1,14,15
 82 -53 82 -53 93.5 -52 c 128,-1,16
 105 -51 105 -51 113 -51 c 0,17,18
 167 -51 167 -51 167 -93 c 0,19,20
 167 -128 167 -128 142.5 -145 c 128,-1,21
 118 -162 118 -162 76 -162 c 0,22,23
 51 -162 51 -162 29.5 -156.5 c 128,-1,24
 8 -151 8 -151 -9 -143 c 1,25,-1
 4 -125 l 1,0,1
EndSplineSet
EndChar

StartChar: onesuperior
Encoding: 185 185 124
Width: 240
GlyphClass: 2
Flags: W
LayerCount: 2
Fore
SplineSet
250 441 m 1,0,-1
 246 422 l 1,1,-1
 74 422 l 1,2,-1
 78 441 l 1,3,-1
 157 441 l 1,4,-1
 230 785 l 1,5,6
 224 779 224 779 211.5 770.5 c 128,-1,7
 199 762 199 762 184.5 755 c 128,-1,8
 170 748 170 748 155 743 c 128,-1,9
 140 738 140 738 128 738 c 1,10,-1
 132 757 l 1,11,12
 147 757 147 757 165 765 c 128,-1,13
 183 773 183 773 198 783 c 128,-1,14
 213 793 213 793 223.5 801.5 c 128,-1,15
 234 810 234 810 235 811 c 2,16,-1
 255 811 l 1,17,-1
 176 441 l 1,18,-1
 250 441 l 1,0,-1
EndSplineSet
EndChar

StartChar: ordmasculine
Encoding: 186 186 125
Width: 431
GlyphClass: 2
Flags: W
LayerCount: 2
Fore
SplineSet
223 351 m 0,0,1
 193 351 193 351 168.5 362.5 c 128,-1,2
 144 374 144 374 126.5 394 c 128,-1,3
 109 414 109 414 100 440.5 c 128,-1,4
 91 467 91 467 91 497 c 0,5,6
 91 539 91 539 108.5 577 c 128,-1,7
 126 615 126 615 155 644.5 c 128,-1,8
 184 674 184 674 221.5 691.5 c 128,-1,9
 259 709 259 709 299 709 c 0,10,11
 329 709 329 709 354 697.5 c 128,-1,12
 379 686 379 686 397 666 c 128,-1,13
 415 646 415 646 424.5 619 c 128,-1,14
 434 592 434 592 434 562 c 0,15,16
 434 521 434 521 416 482.5 c 128,-1,17
 398 444 398 444 369 415 c 128,-1,18
 340 386 340 386 301.5 368.5 c 128,-1,19
 263 351 263 351 223 351 c 0,0,1
227 370 m 0,20,21
 261 370 261 370 294.5 385.5 c 128,-1,22
 328 401 328 401 354 427 c 128,-1,23
 380 453 380 453 396 487 c 128,-1,24
 412 521 412 521 412 559 c 0,25,26
 412 586 412 586 403.5 610 c 128,-1,27
 395 634 395 634 379.5 651.5 c 128,-1,28
 364 669 364 669 342.5 679 c 128,-1,29
 321 689 321 689 295 689 c 0,30,31
 262 689 262 689 229 673.5 c 128,-1,32
 196 658 196 658 170 632 c 128,-1,33
 144 606 144 606 128 571.5 c 128,-1,34
 112 537 112 537 112 499 c 0,35,36
 112 472 112 472 120.5 448.5 c 128,-1,37
 129 425 129 425 144 407.5 c 128,-1,38
 159 390 159 390 180 380 c 128,-1,39
 201 370 201 370 227 370 c 0,20,21
EndSplineSet
EndChar

StartChar: guillemotright
Encoding: 187 187 126
Width: 497
GlyphClass: 2
Flags: W
LayerCount: 2
Fore
SplineSet
443 250 m 1,0,-1
 182 80 l 1,1,-1
 186 102 l 1,2,-1
 426 259 l 1,3,-1
 253 415 l 1,4,-1
 257 437 l 1,5,-1
 447 268 l 1,6,-1
 443 250 l 1,0,-1
281 250 m 1,7,-1
 19 80 l 1,8,-1
 24 102 l 1,9,-1
 264 259 l 1,10,-1
 90 415 l 1,11,-1
 95 437 l 1,12,-1
 284 268 l 1,13,-1
 281 250 l 1,7,-1
EndSplineSet
EndChar

StartChar: onequarter
Encoding: 188 188 127
Width: 710
GlyphClass: 2
Flags: W
LayerCount: 2
Fore
SplineSet
30 11 m 1,0,-1
 709 711 l 1,1,-1
 722 699 l 1,2,-1
 43 -1 l 1,3,-1
 30 11 l 1,0,-1
240 361 m 1,4,-1
 236 342 l 1,5,-1
 64 342 l 1,6,-1
 68 361 l 1,7,-1
 147 361 l 1,8,-1
 220 705 l 1,9,10
 214 699 214 699 201.5 690.5 c 128,-1,11
 189 682 189 682 174.5 675 c 128,-1,12
 160 668 160 668 145 663 c 128,-1,13
 130 658 130 658 118 658 c 1,14,-1
 122 677 l 1,15,16
 137 677 137 677 155 685 c 128,-1,17
 173 693 173 693 188 703 c 128,-1,18
 203 713 203 713 213.5 721.5 c 128,-1,19
 224 730 224 730 225 731 c 2,20,-1
 245 731 l 1,21,-1
 166 361 l 1,22,-1
 240 361 l 1,4,-1
560 110 m 1,23,-1
 339 110 l 1,24,-1
 343 127 l 1,25,-1
 624 383 l 1,26,-1
 638 383 l 1,27,-1
 584 129 l 1,28,-1
 636 129 l 1,29,-1
 632 110 l 1,30,-1
 580 110 l 1,31,-1
 556 0 l 1,32,-1
 537 0 l 1,33,-1
 560 110 l 1,23,-1
564 129 m 1,34,-1
 611 348 l 1,35,-1
 370 129 l 1,36,-1
 564 129 l 1,34,-1
EndSplineSet
EndChar

StartChar: onehalf
Encoding: 189 189 128
Width: 754
GlyphClass: 2
Flags: W
LayerCount: 2
Fore
SplineSet
7 11 m 1,0,-1
 686 711 l 1,1,-1
 699 699 l 1,2,-1
 20 -1 l 1,3,-1
 7 11 l 1,0,-1
246 361 m 1,4,-1
 242 342 l 1,5,-1
 70 342 l 1,6,-1
 74 361 l 1,7,-1
 153 361 l 1,8,-1
 226 705 l 1,9,10
 220 699 220 699 207.5 690.5 c 128,-1,11
 195 682 195 682 180.5 675 c 128,-1,12
 166 668 166 668 151 663 c 128,-1,13
 136 658 136 658 124 658 c 1,14,-1
 128 677 l 1,15,16
 143 677 143 677 161 685 c 128,-1,17
 179 693 179 693 194 703 c 128,-1,18
 209 713 209 713 219.5 721.5 c 128,-1,19
 230 730 230 730 231 731 c 2,20,-1
 251 731 l 1,21,-1
 172 361 l 1,22,-1
 246 361 l 1,4,-1
380 0 m 1,23,24
 396 74 396 74 435.5 113 c 128,-1,25
 475 152 475 152 534 173 c 0,26,27
 559 182 559 182 587 191 c 128,-1,28
 615 200 615 200 638 213 c 128,-1,29
 661 226 661 226 676 245.5 c 128,-1,30
 691 265 691 265 691 295 c 0,31,32
 691 324 691 324 670 346.5 c 128,-1,33
 649 369 649 369 601 369 c 0,34,35
 575 369 575 369 553.5 362.5 c 128,-1,36
 532 356 532 356 515 347 c 128,-1,37
 498 338 498 338 485.5 327.5 c 128,-1,38
 473 317 473 317 465 309 c 1,39,-1
 453 321 l 2,40,41
 454 323 454 323 465.5 333.5 c 128,-1,42
 477 344 477 344 497 356 c 128,-1,43
 517 368 517 368 544.5 378 c 128,-1,44
 572 388 572 388 607 388 c 0,45,46
 663 388 663 388 687.5 361.5 c 128,-1,47
 712 335 712 335 712 299 c 256,48,49
 712 263 712 263 695 239.5 c 128,-1,50
 678 216 678 216 652.5 201 c 128,-1,51
 627 186 627 186 598.5 177 c 128,-1,52
 570 168 570 168 546 160 c 0,53,54
 506 146 506 146 480.5 128 c 128,-1,55
 455 110 455 110 440 91 c 128,-1,56
 425 72 425 72 418.5 53 c 128,-1,57
 412 34 412 34 409 19 c 1,58,-1
 655 19 l 1,59,-1
 651 0 l 1,60,-1
 380 0 l 1,23,24
EndSplineSet
EndChar

StartChar: threequarters
Encoding: 190 190 129
Width: 729
GlyphClass: 2
Flags: W
LayerCount: 2
Fore
SplineSet
66 11 m 1,0,-1
 745 711 l 1,1,-1
 758 699 l 1,2,-1
 79 -1 l 1,3,-1
 66 11 l 1,0,-1
572 110 m 1,4,-1
 351 110 l 1,5,-1
 355 127 l 1,6,-1
 636 383 l 1,7,-1
 650 383 l 1,8,-1
 596 129 l 1,9,-1
 648 129 l 1,10,-1
 644 110 l 1,11,-1
 592 110 l 1,12,-1
 568 0 l 1,13,-1
 549 0 l 1,14,-1
 572 110 l 1,4,-1
576 129 m 1,15,-1
 623 348 l 1,16,-1
 382 129 l 1,17,-1
 576 129 l 1,15,-1
189 338 m 0,18,19
 170 338 170 338 148.5 343.5 c 128,-1,20
 127 349 127 349 109 360.5 c 128,-1,21
 91 372 91 372 79.5 390 c 128,-1,22
 68 408 68 408 68 434 c 1,23,-1
 85 441 l 1,24,25
 85 406 85 406 113.5 381.5 c 128,-1,26
 142 357 142 357 193 357 c 0,27,28
 221 357 221 357 246.5 364.5 c 128,-1,29
 272 372 272 372 291 385 c 128,-1,30
 310 398 310 398 321.5 415.5 c 128,-1,31
 333 433 333 433 333 454 c 0,32,33
 333 489 333 489 299.5 509 c 128,-1,34
 266 529 266 529 209 529 c 2,35,-1
 188 529 l 1,36,-1
 192 547 l 1,37,-1
 213 547 l 2,38,39
 283 547 283 547 321.5 570 c 128,-1,40
 360 593 360 593 360 637 c 0,41,42
 360 671 360 671 333 692 c 128,-1,43
 306 713 306 713 261 713 c 0,44,45
 221 713 221 713 187 696 c 128,-1,46
 153 679 153 679 136 653 c 1,47,-1
 124 665 l 1,48,49
 144 695 144 695 182.5 713 c 128,-1,50
 221 731 221 731 265 731 c 0,51,52
 318 731 318 731 349.5 705 c 128,-1,53
 381 679 381 679 381 640 c 0,54,55
 381 602 381 602 355 575.5 c 128,-1,56
 329 549 329 549 276 538 c 1,57,58
 312 531 312 531 332.5 508.5 c 128,-1,59
 353 486 353 486 353 456 c 0,60,61
 353 430 353 430 339.5 408.5 c 128,-1,62
 326 387 326 387 303.5 371.5 c 128,-1,63
 281 356 281 356 251 347 c 128,-1,64
 221 338 221 338 189 338 c 0,18,19
EndSplineSet
EndChar

StartChar: questiondown
Encoding: 191 191 130
Width: 445
GlyphClass: 2
Flags: W
LayerCount: 2
Fore
SplineSet
284 327 m 1,0,1
 274 279 274 279 261 247.5 c 128,-1,2
 248 216 248 216 233 195 c 128,-1,3
 218 174 218 174 200 161.5 c 128,-1,4
 182 149 182 149 163 140 c 0,5,6
 133 125 133 125 101.5 111.5 c 128,-1,7
 70 98 70 98 43.5 77 c 128,-1,8
 17 56 17 56 0 22.5 c 128,-1,9
 -17 -11 -17 -11 -17 -66 c 0,10,11
 -17 -99 -17 -99 -6.5 -122.5 c 128,-1,12
 4 -146 4 -146 21 -162 c 128,-1,13
 38 -178 38 -178 61 -185.5 c 128,-1,14
 84 -193 84 -193 110 -193 c 0,15,16
 167 -193 167 -193 223.5 -161.5 c 128,-1,17
 280 -130 280 -130 316 -76 c 1,18,-1
 332 -84 l 1,19,20
 312 -115 312 -115 285.5 -139 c 128,-1,21
 259 -163 259 -163 229 -179.5 c 128,-1,22
 199 -196 199 -196 168 -204.5 c 128,-1,23
 137 -213 137 -213 107 -213 c 256,24,25
 77 -213 77 -213 51 -203.5 c 128,-1,26
 25 -194 25 -194 5.5 -175.5 c 128,-1,27
 -14 -157 -14 -157 -25.5 -129.5 c 128,-1,28
 -37 -102 -37 -102 -37 -66 c 0,29,30
 -37 -8 -37 -8 -19 28 c 128,-1,31
 -1 64 -1 64 27 87 c 128,-1,32
 55 110 55 110 89.5 126 c 128,-1,33
 124 142 124 142 158 159 c 0,34,35
 175 168 175 168 190.5 178.5 c 128,-1,36
 206 189 206 189 219 207.5 c 128,-1,37
 232 226 232 226 243.5 254.5 c 128,-1,38
 255 283 255 283 264 327 c 1,39,-1
 284 327 l 1,0,1
322 506 m 1,40,-1
 304 422 l 1,41,-1
 284 422 l 1,42,-1
 302 506 l 1,43,-1
 322 506 l 1,40,-1
EndSplineSet
EndChar

StartChar: Agrave
Encoding: 192 192 131
Width: 647
GlyphClass: 2
Flags: W
LayerCount: 2
Fore
SplineSet
406 710 m 1,0,-1
 424 710 l 1,1,-1
 566 0 l 1,2,-1
 544 0 l 1,3,-1
 493 254 l 1,4,-1
 142 254 l 1,5,-1
 -17 0 l 1,6,-1
 -39 0 l 1,7,-1
 406 710 l 1,0,-1
489 274 m 1,8,-1
 409 681 l 1,9,-1
 154 274 l 1,10,-1
 489 274 l 1,8,-1
386 918 m 1,11,-1
 418 918 l 1,12,-1
 464 845 l 1,13,-1
 446 833 l 1,14,-1
 386 918 l 1,11,-1
EndSplineSet
EndChar

StartChar: Aacute
Encoding: 193 193 132
Width: 647
GlyphClass: 2
Flags: W
LayerCount: 2
Fore
SplineSet
406 710 m 1,0,-1
 424 710 l 1,1,-1
 566 0 l 1,2,-1
 544 0 l 1,3,-1
 493 254 l 1,4,-1
 142 254 l 1,5,-1
 -17 0 l 1,6,-1
 -39 0 l 1,7,-1
 406 710 l 1,0,-1
489 274 m 1,8,-1
 409 681 l 1,9,-1
 154 274 l 1,10,-1
 489 274 l 1,8,-1
428 833 m 1,11,-1
 415 845 l 1,12,-1
 491 918 l 1,13,-1
 524 918 l 1,14,-1
 428 833 l 1,11,-1
EndSplineSet
EndChar

StartChar: Acircumflex
Encoding: 194 194 133
Width: 647
GlyphClass: 2
Flags: W
LayerCount: 2
Fore
SplineSet
406 710 m 1,0,-1
 424 710 l 1,1,-1
 566 0 l 1,2,-1
 544 0 l 1,3,-1
 493 254 l 1,4,-1
 142 254 l 1,5,-1
 -17 0 l 1,6,-1
 -39 0 l 1,7,-1
 406 710 l 1,0,-1
489 274 m 1,8,-1
 409 681 l 1,9,-1
 154 274 l 1,10,-1
 489 274 l 1,8,-1
346 844 m 1,11,-1
 450 918 l 1,12,-1
 466 918 l 1,13,-1
 539 844 l 1,14,-1
 521 832 l 1,15,-1
 453 895 l 1,16,-1
 359 832 l 1,17,-1
 346 844 l 1,11,-1
EndSplineSet
EndChar

StartChar: Atilde
Encoding: 195 195 134
Width: 647
GlyphClass: 2
Flags: W
LayerCount: 2
Fore
SplineSet
406 710 m 1,0,-1
 424 710 l 1,1,-1
 566 0 l 1,2,-1
 544 0 l 1,3,-1
 493 254 l 1,4,-1
 142 254 l 1,5,-1
 -17 0 l 1,6,-1
 -39 0 l 1,7,-1
 406 710 l 1,0,-1
489 274 m 1,8,-1
 409 681 l 1,9,-1
 154 274 l 1,10,-1
 489 274 l 1,8,-1
497 851 m 0,11,12
 476 851 476 851 461.5 857 c 128,-1,13
 447 863 447 863 435 870 c 128,-1,14
 423 877 423 877 412 883 c 128,-1,15
 401 889 401 889 386 889 c 256,16,17
 371 889 371 889 360 882.5 c 128,-1,18
 349 876 349 876 342 867.5 c 128,-1,19
 335 859 335 859 331.5 851 c 128,-1,20
 328 843 328 843 327 841 c 2,21,-1
 308 841 l 2,22,23
 308 843 308 843 312.5 854 c 128,-1,24
 317 865 317 865 326.5 877 c 128,-1,25
 336 889 336 889 352 898.5 c 128,-1,26
 368 908 368 908 392 908 c 0,27,28
 410 908 410 908 423 902 c 128,-1,29
 436 896 436 896 447.5 889 c 128,-1,30
 459 882 459 882 472 876 c 128,-1,31
 485 870 485 870 503 870 c 0,32,33
 522 870 522 870 535 877 c 128,-1,34
 548 884 548 884 555.5 892.5 c 128,-1,35
 563 901 563 901 566 908.5 c 128,-1,36
 569 916 569 916 569 918 c 2,37,-1
 588 918 l 2,38,39
 587 915 587 915 582.5 904 c 128,-1,40
 578 893 578 893 567.5 881 c 128,-1,41
 557 869 557 869 540 860 c 128,-1,42
 523 851 523 851 497 851 c 0,11,12
EndSplineSet
EndChar

StartChar: Adieresis
Encoding: 196 196 135
Width: 647
GlyphClass: 2
Flags: W
LayerCount: 2
Fore
SplineSet
406 710 m 1,0,-1
 424 710 l 1,1,-1
 566 0 l 1,2,-1
 544 0 l 1,3,-1
 493 254 l 1,4,-1
 142 254 l 1,5,-1
 -17 0 l 1,6,-1
 -39 0 l 1,7,-1
 406 710 l 1,0,-1
489 274 m 1,8,-1
 409 681 l 1,9,-1
 154 274 l 1,10,-1
 489 274 l 1,8,-1
374 841 m 1,11,-1
 390 918 l 1,12,-1
 410 918 l 1,13,-1
 394 841 l 1,14,-1
 374 841 l 1,11,-1
485 841 m 1,15,-1
 501 918 l 1,16,-1
 521 918 l 1,17,-1
 505 841 l 1,18,-1
 485 841 l 1,15,-1
EndSplineSet
EndChar

StartChar: Aring
Encoding: 197 197 136
Width: 647
GlyphClass: 2
Flags: W
LayerCount: 2
Fore
SplineSet
406 710 m 1,0,-1
 424 710 l 1,1,-1
 566 0 l 1,2,-1
 544 0 l 1,3,-1
 493 254 l 1,4,-1
 142 254 l 1,5,-1
 -17 0 l 1,6,-1
 -39 0 l 1,7,-1
 406 710 l 1,0,-1
489 274 m 1,8,-1
 409 681 l 1,9,-1
 154 274 l 1,10,-1
 489 274 l 1,8,-1
389 850 m 0,11,12
 389 864 389 864 394.5 876.5 c 128,-1,13
 400 889 400 889 409.5 898 c 128,-1,14
 419 907 419 907 431.5 912.5 c 128,-1,15
 444 918 444 918 457 918 c 0,16,17
 477 918 477 918 488.5 905 c 128,-1,18
 500 892 500 892 500 872 c 0,19,20
 500 858 500 858 494.5 845.5 c 128,-1,21
 489 833 489 833 479.5 824 c 128,-1,22
 470 815 470 815 457.5 809.5 c 128,-1,23
 445 804 445 804 432 804 c 0,24,25
 412 804 412 804 400.5 817 c 128,-1,26
 389 830 389 830 389 850 c 0,11,12
453 902 m 0,27,28
 435 902 435 902 420 888.5 c 128,-1,29
 405 875 405 875 405 853 c 0,30,31
 405 839 405 839 413.5 829.5 c 128,-1,32
 422 820 422 820 436 820 c 0,33,34
 452 820 452 820 468.5 834 c 128,-1,35
 485 848 485 848 485 869 c 0,36,37
 485 884 485 884 476 893 c 128,-1,38
 467 902 467 902 453 902 c 0,27,28
EndSplineSet
EndChar

StartChar: AE
Encoding: 198 198 137
Width: 921
GlyphClass: 2
Flags: W
LayerCount: 2
Fore
SplineSet
511 710 m 1,0,-1
 951 710 l 1,1,-1
 946 690 l 1,2,-1
 532 690 l 1,3,-1
 465 373 l 1,4,-1
 828 373 l 1,5,-1
 823 353 l 1,6,-1
 460 353 l 1,7,-1
 390 20 l 1,8,-1
 812 20 l 1,9,-1
 808 0 l 1,10,-1
 365 0 l 1,11,-1
 419 254 l 1,12,-1
 153 254 l 1,13,-1
 -59 0 l 1,14,-1
 -84 0 l 1,15,-1
 511 710 l 1,0,-1
424 274 m 1,16,-1
 509 678 l 1,17,-1
 169 274 l 1,18,-1
 424 274 l 1,16,-1
EndSplineSet
EndChar

StartChar: Ccedilla
Encoding: 199 199 138
Width: 660
GlyphClass: 2
Flags: W
LayerCount: 2
Fore
SplineSet
199 -125 m 1,0,1
 213 -132 213 -132 233.5 -137.5 c 128,-1,2
 254 -143 254 -143 278 -143 c 0,3,4
 343 -143 343 -143 343 -96 c 0,5,6
 343 -80 343 -80 332 -73.5 c 128,-1,7
 321 -67 321 -67 304 -67 c 0,8,9
 284 -67 284 -67 261 -72.5 c 128,-1,10
 238 -78 238 -78 224 -83 c 1,11,-1
 282 -5 l 1,12,13
 226 -3 226 -3 183 23 c 128,-1,14
 140 49 140 49 110 90 c 128,-1,15
 80 131 80 131 64.5 184 c 128,-1,16
 49 237 49 237 49 293 c 0,17,18
 49 365 49 365 79 440 c 128,-1,19
 109 515 109 515 163 576 c 128,-1,20
 217 637 217 637 290.5 675.5 c 128,-1,21
 364 714 364 714 451 714 c 0,22,23
 496 714 496 714 532 702.5 c 128,-1,24
 568 691 568 691 594.5 670.5 c 128,-1,25
 621 650 621 650 638.5 621.5 c 128,-1,26
 656 593 656 593 664 559 c 1,27,-1
 644 553 l 1,28,29
 633 592 633 592 612 619 c 128,-1,30
 591 646 591 646 564.5 662.5 c 128,-1,31
 538 679 538 679 506.5 686.5 c 128,-1,32
 475 694 475 694 443 694 c 0,33,34
 362 694 362 694 293.5 657.5 c 128,-1,35
 225 621 225 621 175 563 c 128,-1,36
 125 505 125 505 97 433.5 c 128,-1,37
 69 362 69 362 69 293 c 0,38,39
 69 236 69 236 85.5 185.5 c 128,-1,40
 102 135 102 135 132 97 c 128,-1,41
 162 59 162 59 205 36.5 c 128,-1,42
 248 14 248 14 301 14 c 0,43,44
 334 14 334 14 371 23 c 128,-1,45
 408 32 408 32 444.5 50 c 128,-1,46
 481 68 481 68 515 96.5 c 128,-1,47
 549 125 549 125 577 164 c 1,48,-1
 595 159 l 1,49,50
 570 120 570 120 535.5 90.5 c 128,-1,51
 501 61 501 61 462.5 40 c 128,-1,52
 424 19 424 19 383.5 7.5 c 128,-1,53
 343 -4 343 -4 305 -5 c 1,54,-1
 266 -57 l 1,55,56
 277 -53 277 -53 288.5 -52 c 128,-1,57
 300 -51 300 -51 308 -51 c 0,58,59
 362 -51 362 -51 362 -93 c 0,60,61
 362 -128 362 -128 337.5 -145 c 128,-1,62
 313 -162 313 -162 271 -162 c 0,63,64
 246 -162 246 -162 224.5 -156.5 c 128,-1,65
 203 -151 203 -151 186 -143 c 1,66,-1
 199 -125 l 1,0,1
EndSplineSet
EndChar

StartChar: Egrave
Encoding: 200 200 139
Width: 588
GlyphClass: 2
Flags: W
LayerCount: 2
Fore
SplineSet
184 710 m 1,0,-1
 618 710 l 1,1,-1
 614 690 l 1,2,-1
 200 690 l 1,3,-1
 132 373 l 1,4,-1
 495 373 l 1,5,-1
 491 353 l 1,6,-1
 128 353 l 1,7,-1
 57 20 l 1,8,-1
 480 20 l 1,9,-1
 476 0 l 1,10,-1
 33 0 l 1,11,-1
 184 710 l 1,0,-1
368 918 m 1,12,-1
 400 918 l 1,13,-1
 446 845 l 1,14,-1
 428 833 l 1,15,-1
 368 918 l 1,12,-1
EndSplineSet
EndChar

StartChar: Eacute
Encoding: 201 201 140
Width: 588
GlyphClass: 2
Flags: W
LayerCount: 2
Fore
SplineSet
184 710 m 1,0,-1
 618 710 l 1,1,-1
 614 690 l 1,2,-1
 200 690 l 1,3,-1
 132 373 l 1,4,-1
 495 373 l 1,5,-1
 491 353 l 1,6,-1
 128 353 l 1,7,-1
 57 20 l 1,8,-1
 480 20 l 1,9,-1
 476 0 l 1,10,-1
 33 0 l 1,11,-1
 184 710 l 1,0,-1
398 833 m 1,12,-1
 385 845 l 1,13,-1
 461 918 l 1,14,-1
 494 918 l 1,15,-1
 398 833 l 1,12,-1
EndSplineSet
EndChar

StartChar: Ecircumflex
Encoding: 202 202 141
Width: 588
GlyphClass: 2
Flags: W
LayerCount: 2
Fore
SplineSet
184 710 m 1,0,-1
 618 710 l 1,1,-1
 614 690 l 1,2,-1
 200 690 l 1,3,-1
 132 373 l 1,4,-1
 495 373 l 1,5,-1
 491 353 l 1,6,-1
 128 353 l 1,7,-1
 57 20 l 1,8,-1
 480 20 l 1,9,-1
 476 0 l 1,10,-1
 33 0 l 1,11,-1
 184 710 l 1,0,-1
338 844 m 1,12,-1
 442 918 l 1,13,-1
 458 918 l 1,14,-1
 531 844 l 1,15,-1
 513 832 l 1,16,-1
 445 895 l 1,17,-1
 351 832 l 1,18,-1
 338 844 l 1,12,-1
EndSplineSet
EndChar

StartChar: Edieresis
Encoding: 203 203 142
Width: 588
GlyphClass: 2
Flags: W
LayerCount: 2
Fore
SplineSet
184 710 m 1,0,-1
 618 710 l 1,1,-1
 614 690 l 1,2,-1
 200 690 l 1,3,-1
 132 373 l 1,4,-1
 495 373 l 1,5,-1
 491 353 l 1,6,-1
 128 353 l 1,7,-1
 57 20 l 1,8,-1
 480 20 l 1,9,-1
 476 0 l 1,10,-1
 33 0 l 1,11,-1
 184 710 l 1,0,-1
361 841 m 1,12,-1
 377 918 l 1,13,-1
 397 918 l 1,14,-1
 381 841 l 1,15,-1
 361 841 l 1,12,-1
472 841 m 1,16,-1
 488 918 l 1,17,-1
 508 918 l 1,18,-1
 492 841 l 1,19,-1
 472 841 l 1,16,-1
EndSplineSet
EndChar

StartChar: Igrave
Encoding: 204 204 143
Width: 214
GlyphClass: 2
Flags: W
LayerCount: 2
Fore
SplineSet
184 709 m 1,0,-1
 204 709 l 1,1,-1
 53 0 l 1,2,-1
 33 0 l 1,3,-1
 184 709 l 1,0,-1
159 918 m 1,4,-1
 191 918 l 1,5,-1
 237 845 l 1,6,-1
 219 833 l 1,7,-1
 159 918 l 1,4,-1
EndSplineSet
EndChar

StartChar: Iacute
Encoding: 205 205 144
Width: 214
GlyphClass: 2
Flags: W
LayerCount: 2
Fore
SplineSet
184 709 m 1,0,-1
 204 709 l 1,1,-1
 53 0 l 1,2,-1
 33 0 l 1,3,-1
 184 709 l 1,0,-1
209 833 m 1,4,-1
 196 845 l 1,5,-1
 272 918 l 1,6,-1
 305 918 l 1,7,-1
 209 833 l 1,4,-1
EndSplineSet
EndChar

StartChar: Icircumflex
Encoding: 206 206 145
Width: 214
GlyphClass: 2
Flags: W
LayerCount: 2
Fore
SplineSet
184 709 m 1,0,-1
 204 709 l 1,1,-1
 53 0 l 1,2,-1
 33 0 l 1,3,-1
 184 709 l 1,0,-1
126 844 m 1,4,-1
 230 918 l 1,5,-1
 246 918 l 1,6,-1
 319 844 l 1,7,-1
 301 832 l 1,8,-1
 233 895 l 1,9,-1
 139 832 l 1,10,-1
 126 844 l 1,4,-1
EndSplineSet
EndChar

StartChar: Idieresis
Encoding: 207 207 146
Width: 214
GlyphClass: 2
Flags: W
LayerCount: 2
Fore
SplineSet
184 709 m 1,0,-1
 204 709 l 1,1,-1
 53 0 l 1,2,-1
 33 0 l 1,3,-1
 184 709 l 1,0,-1
154 841 m 1,4,-1
 170 918 l 1,5,-1
 190 918 l 1,6,-1
 174 841 l 1,7,-1
 154 841 l 1,4,-1
265 841 m 1,8,-1
 281 918 l 1,9,-1
 301 918 l 1,10,-1
 285 841 l 1,11,-1
 265 841 l 1,8,-1
EndSplineSet
EndChar

StartChar: Eth
Encoding: 208 208 147
Width: 691
GlyphClass: 2
Flags: W
LayerCount: 2
Fore
SplineSet
51 367 m 1,0,-1
 118 367 l 1,1,-1
 191 710 l 1,2,-1
 408 710 l 2,3,4
 473 710 473 710 520.5 689 c 128,-1,5
 568 668 568 668 599 631.5 c 128,-1,6
 630 595 630 595 645 546 c 128,-1,7
 660 497 660 497 660 440 c 0,8,9
 660 345 660 345 630 264.5 c 128,-1,10
 600 184 600 184 546 125.5 c 128,-1,11
 492 67 492 67 418 33.5 c 128,-1,12
 344 0 344 0 257 0 c 2,13,-1
 40 0 l 1,14,-1
 114 347 l 1,15,-1
 47 347 l 1,16,-1
 51 367 l 1,0,-1
261 20 m 2,17,18
 350 20 350 20 420.5 54 c 128,-1,19
 491 88 491 88 539.5 145.5 c 128,-1,20
 588 203 588 203 614 278 c 128,-1,21
 640 353 640 353 640 435 c 0,22,23
 640 491 640 491 625 538 c 128,-1,24
 610 585 610 585 580.5 618.5 c 128,-1,25
 551 652 551 652 506.5 671 c 128,-1,26
 462 690 462 690 404 690 c 2,27,-1
 207 690 l 1,28,-1
 138 367 l 1,29,-1
 320 367 l 1,30,-1
 316 347 l 1,31,-1
 133 347 l 1,32,-1
 64 20 l 1,33,-1
 261 20 l 2,17,18
EndSplineSet
EndChar

StartChar: Ntilde
Encoding: 209 209 148
Width: 743
GlyphClass: 2
Flags: W
LayerCount: 2
Fore
SplineSet
184 710 m 1,0,-1
 199 710 l 1,1,-1
 569 29 l 1,2,-1
 713 709 l 1,3,-1
 733 709 l 1,4,-1
 582 0 l 1,5,-1
 560 0 l 1,6,-1
 196 671 l 1,7,-1
 53 0 l 1,8,-1
 33 0 l 1,9,-1
 184 710 l 1,0,-1
554 851 m 0,10,11
 533 851 533 851 518.5 857 c 128,-1,12
 504 863 504 863 492 870 c 128,-1,13
 480 877 480 877 469 883 c 128,-1,14
 458 889 458 889 443 889 c 256,15,16
 428 889 428 889 417 882.5 c 128,-1,17
 406 876 406 876 399 867.5 c 128,-1,18
 392 859 392 859 388.5 851 c 128,-1,19
 385 843 385 843 384 841 c 2,20,-1
 365 841 l 2,21,22
 365 843 365 843 369.5 854 c 128,-1,23
 374 865 374 865 383.5 877 c 128,-1,24
 393 889 393 889 409 898.5 c 128,-1,25
 425 908 425 908 449 908 c 0,26,27
 467 908 467 908 480 902 c 128,-1,28
 493 896 493 896 504.5 889 c 128,-1,29
 516 882 516 882 529 876 c 128,-1,30
 542 870 542 870 560 870 c 0,31,32
 579 870 579 870 592 877 c 128,-1,33
 605 884 605 884 612.5 892.5 c 128,-1,34
 620 901 620 901 623 908.5 c 128,-1,35
 626 916 626 916 626 918 c 2,36,-1
 645 918 l 2,37,38
 644 915 644 915 639.5 904 c 128,-1,39
 635 893 635 893 624.5 881 c 128,-1,40
 614 869 614 869 597 860 c 128,-1,41
 580 851 580 851 554 851 c 0,10,11
EndSplineSet
EndChar

StartChar: Ograve
Encoding: 210 210 149
Width: 726
GlyphClass: 2
Flags: W
LayerCount: 2
Fore
SplineSet
298 -5 m 0,0,1
 239 -5 239 -5 193 19 c 128,-1,2
 147 43 147 43 115.5 83.5 c 128,-1,3
 84 124 84 124 68 177 c 128,-1,4
 52 230 52 230 52 287 c 0,5,6
 52 369 52 369 86 446 c 128,-1,7
 120 523 120 523 176 583 c 128,-1,8
 232 643 232 643 303.5 679 c 128,-1,9
 375 715 375 715 451 715 c 0,10,11
 510 715 510 715 556 690 c 128,-1,12
 602 665 602 665 633.5 624 c 128,-1,13
 665 583 665 583 681 530 c 128,-1,14
 697 477 697 477 697 421 c 0,15,16
 697 340 697 340 663 263 c 128,-1,17
 629 186 629 186 573 126.5 c 128,-1,18
 517 67 517 67 445.5 31 c 128,-1,19
 374 -5 374 -5 298 -5 c 0,0,1
303 15 m 0,20,21
 378 15 378 15 446 51 c 128,-1,22
 514 87 514 87 565 145 c 128,-1,23
 616 203 616 203 646.5 275 c 128,-1,24
 677 347 677 347 677 419 c 0,25,26
 677 474 677 474 661 524 c 128,-1,27
 645 574 645 574 615 612 c 128,-1,28
 585 650 585 650 542.5 672.5 c 128,-1,29
 500 695 500 695 447 695 c 0,30,31
 372 695 372 695 304 659 c 128,-1,32
 236 623 236 623 184.5 565 c 128,-1,33
 133 507 133 507 102.5 435 c 128,-1,34
 72 363 72 363 72 290 c 0,35,36
 72 235 72 235 87.5 185 c 128,-1,37
 103 135 103 135 133 97.5 c 128,-1,38
 163 60 163 60 206 37.5 c 128,-1,39
 249 15 249 15 303 15 c 0,20,21
425 918 m 1,40,-1
 457 918 l 1,41,-1
 503 845 l 1,42,-1
 485 833 l 1,43,-1
 425 918 l 1,40,-1
EndSplineSet
EndChar

StartChar: Oacute
Encoding: 211 211 150
Width: 726
GlyphClass: 2
Flags: W
LayerCount: 2
Fore
SplineSet
298 -5 m 0,0,1
 239 -5 239 -5 193 19 c 128,-1,2
 147 43 147 43 115.5 83.5 c 128,-1,3
 84 124 84 124 68 177 c 128,-1,4
 52 230 52 230 52 287 c 0,5,6
 52 369 52 369 86 446 c 128,-1,7
 120 523 120 523 176 583 c 128,-1,8
 232 643 232 643 303.5 679 c 128,-1,9
 375 715 375 715 451 715 c 0,10,11
 510 715 510 715 556 690 c 128,-1,12
 602 665 602 665 633.5 624 c 128,-1,13
 665 583 665 583 681 530 c 128,-1,14
 697 477 697 477 697 421 c 0,15,16
 697 340 697 340 663 263 c 128,-1,17
 629 186 629 186 573 126.5 c 128,-1,18
 517 67 517 67 445.5 31 c 128,-1,19
 374 -5 374 -5 298 -5 c 0,0,1
303 15 m 0,20,21
 378 15 378 15 446 51 c 128,-1,22
 514 87 514 87 565 145 c 128,-1,23
 616 203 616 203 646.5 275 c 128,-1,24
 677 347 677 347 677 419 c 0,25,26
 677 474 677 474 661 524 c 128,-1,27
 645 574 645 574 615 612 c 128,-1,28
 585 650 585 650 542.5 672.5 c 128,-1,29
 500 695 500 695 447 695 c 0,30,31
 372 695 372 695 304 659 c 128,-1,32
 236 623 236 623 184.5 565 c 128,-1,33
 133 507 133 507 102.5 435 c 128,-1,34
 72 363 72 363 72 290 c 0,35,36
 72 235 72 235 87.5 185 c 128,-1,37
 103 135 103 135 133 97.5 c 128,-1,38
 163 60 163 60 206 37.5 c 128,-1,39
 249 15 249 15 303 15 c 0,20,21
466 833 m 1,40,-1
 453 845 l 1,41,-1
 529 918 l 1,42,-1
 562 918 l 1,43,-1
 466 833 l 1,40,-1
EndSplineSet
EndChar

StartChar: Ocircumflex
Encoding: 212 212 151
Width: 726
GlyphClass: 2
Flags: W
LayerCount: 2
Fore
SplineSet
298 -5 m 0,0,1
 239 -5 239 -5 193 19 c 128,-1,2
 147 43 147 43 115.5 83.5 c 128,-1,3
 84 124 84 124 68 177 c 128,-1,4
 52 230 52 230 52 287 c 0,5,6
 52 369 52 369 86 446 c 128,-1,7
 120 523 120 523 176 583 c 128,-1,8
 232 643 232 643 303.5 679 c 128,-1,9
 375 715 375 715 451 715 c 0,10,11
 510 715 510 715 556 690 c 128,-1,12
 602 665 602 665 633.5 624 c 128,-1,13
 665 583 665 583 681 530 c 128,-1,14
 697 477 697 477 697 421 c 0,15,16
 697 340 697 340 663 263 c 128,-1,17
 629 186 629 186 573 126.5 c 128,-1,18
 517 67 517 67 445.5 31 c 128,-1,19
 374 -5 374 -5 298 -5 c 0,0,1
303 15 m 0,20,21
 378 15 378 15 446 51 c 128,-1,22
 514 87 514 87 565 145 c 128,-1,23
 616 203 616 203 646.5 275 c 128,-1,24
 677 347 677 347 677 419 c 0,25,26
 677 474 677 474 661 524 c 128,-1,27
 645 574 645 574 615 612 c 128,-1,28
 585 650 585 650 542.5 672.5 c 128,-1,29
 500 695 500 695 447 695 c 0,30,31
 372 695 372 695 304 659 c 128,-1,32
 236 623 236 623 184.5 565 c 128,-1,33
 133 507 133 507 102.5 435 c 128,-1,34
 72 363 72 363 72 290 c 0,35,36
 72 235 72 235 87.5 185 c 128,-1,37
 103 135 103 135 133 97.5 c 128,-1,38
 163 60 163 60 206 37.5 c 128,-1,39
 249 15 249 15 303 15 c 0,20,21
385 844 m 1,40,-1
 489 918 l 1,41,-1
 505 918 l 1,42,-1
 578 844 l 1,43,-1
 560 832 l 1,44,-1
 492 895 l 1,45,-1
 398 832 l 1,46,-1
 385 844 l 1,40,-1
EndSplineSet
EndChar

StartChar: Otilde
Encoding: 213 213 152
Width: 726
GlyphClass: 2
Flags: W
LayerCount: 2
Fore
SplineSet
298 -5 m 0,0,1
 239 -5 239 -5 193 19 c 128,-1,2
 147 43 147 43 115.5 83.5 c 128,-1,3
 84 124 84 124 68 177 c 128,-1,4
 52 230 52 230 52 287 c 0,5,6
 52 369 52 369 86 446 c 128,-1,7
 120 523 120 523 176 583 c 128,-1,8
 232 643 232 643 303.5 679 c 128,-1,9
 375 715 375 715 451 715 c 0,10,11
 510 715 510 715 556 690 c 128,-1,12
 602 665 602 665 633.5 624 c 128,-1,13
 665 583 665 583 681 530 c 128,-1,14
 697 477 697 477 697 421 c 0,15,16
 697 340 697 340 663 263 c 128,-1,17
 629 186 629 186 573 126.5 c 128,-1,18
 517 67 517 67 445.5 31 c 128,-1,19
 374 -5 374 -5 298 -5 c 0,0,1
303 15 m 0,20,21
 378 15 378 15 446 51 c 128,-1,22
 514 87 514 87 565 145 c 128,-1,23
 616 203 616 203 646.5 275 c 128,-1,24
 677 347 677 347 677 419 c 0,25,26
 677 474 677 474 661 524 c 128,-1,27
 645 574 645 574 615 612 c 128,-1,28
 585 650 585 650 542.5 672.5 c 128,-1,29
 500 695 500 695 447 695 c 0,30,31
 372 695 372 695 304 659 c 128,-1,32
 236 623 236 623 184.5 565 c 128,-1,33
 133 507 133 507 102.5 435 c 128,-1,34
 72 363 72 363 72 290 c 0,35,36
 72 235 72 235 87.5 185 c 128,-1,37
 103 135 103 135 133 97.5 c 128,-1,38
 163 60 163 60 206 37.5 c 128,-1,39
 249 15 249 15 303 15 c 0,20,21
535 851 m 0,40,41
 514 851 514 851 499.5 857 c 128,-1,42
 485 863 485 863 473 870 c 128,-1,43
 461 877 461 877 450 883 c 128,-1,44
 439 889 439 889 424 889 c 256,45,46
 409 889 409 889 398 882.5 c 128,-1,47
 387 876 387 876 380 867.5 c 128,-1,48
 373 859 373 859 369.5 851 c 128,-1,49
 366 843 366 843 365 841 c 2,50,-1
 346 841 l 2,51,52
 346 843 346 843 350.5 854 c 128,-1,53
 355 865 355 865 364.5 877 c 128,-1,54
 374 889 374 889 390 898.5 c 128,-1,55
 406 908 406 908 430 908 c 0,56,57
 448 908 448 908 461 902 c 128,-1,58
 474 896 474 896 485.5 889 c 128,-1,59
 497 882 497 882 510 876 c 128,-1,60
 523 870 523 870 541 870 c 0,61,62
 560 870 560 870 573 877 c 128,-1,63
 586 884 586 884 593.5 892.5 c 128,-1,64
 601 901 601 901 604 908.5 c 128,-1,65
 607 916 607 916 607 918 c 2,66,-1
 626 918 l 2,67,68
 625 915 625 915 620.5 904 c 128,-1,69
 616 893 616 893 605.5 881 c 128,-1,70
 595 869 595 869 578 860 c 128,-1,71
 561 851 561 851 535 851 c 0,40,41
EndSplineSet
EndChar

StartChar: Odieresis
Encoding: 214 214 153
Width: 726
GlyphClass: 2
Flags: W
LayerCount: 2
Fore
SplineSet
298 -5 m 0,0,1
 239 -5 239 -5 193 19 c 128,-1,2
 147 43 147 43 115.5 83.5 c 128,-1,3
 84 124 84 124 68 177 c 128,-1,4
 52 230 52 230 52 287 c 0,5,6
 52 369 52 369 86 446 c 128,-1,7
 120 523 120 523 176 583 c 128,-1,8
 232 643 232 643 303.5 679 c 128,-1,9
 375 715 375 715 451 715 c 0,10,11
 510 715 510 715 556 690 c 128,-1,12
 602 665 602 665 633.5 624 c 128,-1,13
 665 583 665 583 681 530 c 128,-1,14
 697 477 697 477 697 421 c 0,15,16
 697 340 697 340 663 263 c 128,-1,17
 629 186 629 186 573 126.5 c 128,-1,18
 517 67 517 67 445.5 31 c 128,-1,19
 374 -5 374 -5 298 -5 c 0,0,1
303 15 m 0,20,21
 378 15 378 15 446 51 c 128,-1,22
 514 87 514 87 565 145 c 128,-1,23
 616 203 616 203 646.5 275 c 128,-1,24
 677 347 677 347 677 419 c 0,25,26
 677 474 677 474 661 524 c 128,-1,27
 645 574 645 574 615 612 c 128,-1,28
 585 650 585 650 542.5 672.5 c 128,-1,29
 500 695 500 695 447 695 c 0,30,31
 372 695 372 695 304 659 c 128,-1,32
 236 623 236 623 184.5 565 c 128,-1,33
 133 507 133 507 102.5 435 c 128,-1,34
 72 363 72 363 72 290 c 0,35,36
 72 235 72 235 87.5 185 c 128,-1,37
 103 135 103 135 133 97.5 c 128,-1,38
 163 60 163 60 206 37.5 c 128,-1,39
 249 15 249 15 303 15 c 0,20,21
412 841 m 1,40,-1
 428 918 l 1,41,-1
 448 918 l 1,42,-1
 432 841 l 1,43,-1
 412 841 l 1,40,-1
523 841 m 1,44,-1
 539 918 l 1,45,-1
 559 918 l 1,46,-1
 543 841 l 1,47,-1
 523 841 l 1,44,-1
EndSplineSet
EndChar

StartChar: multiply
Encoding: 215 215 154
Width: 460
GlyphClass: 2
Flags: W
LayerCount: 2
Fore
SplineSet
372 135 m 1,0,-1
 357 121 l 1,1,-1
 222 256 l 1,2,-1
 87 121 l 1,3,-1
 73 136 l 1,4,-1
 207 270 l 1,5,-1
 72 406 l 1,6,-1
 87 420 l 1,7,-1
 222 285 l 1,8,-1
 358 421 l 1,9,-1
 372 406 l 1,10,-1
 236 270 l 1,11,-1
 372 135 l 1,0,-1
EndSplineSet
EndChar

StartChar: Oslash
Encoding: 216 216 155
Width: 726
GlyphClass: 2
Flags: W
LayerCount: 2
Fore
SplineSet
680 710 m 1,0,-1
 621 638 l 1,1,2
 658 596 658 596 677.5 539.5 c 128,-1,3
 697 483 697 483 697 421 c 0,4,5
 697 340 697 340 663 263 c 128,-1,6
 629 186 629 186 573 126.5 c 128,-1,7
 517 67 517 67 445.5 31 c 128,-1,8
 374 -5 374 -5 298 -5 c 0,9,10
 250 -5 250 -5 210.5 11 c 128,-1,11
 171 27 171 27 141 55 c 1,12,-1
 96 0 l 1,13,-1
 71 0 l 1,14,-1
 128 69 l 1,15,16
 90 111 90 111 71 167.5 c 128,-1,17
 52 224 52 224 52 287 c 0,18,19
 52 369 52 369 86 446 c 128,-1,20
 120 523 120 523 176 583 c 128,-1,21
 232 643 232 643 303.5 679 c 128,-1,22
 375 715 375 715 451 715 c 0,23,24
 499 715 499 715 538.5 698 c 128,-1,25
 578 681 578 681 608 652 c 1,26,-1
 655 710 l 1,27,-1
 680 710 l 1,0,-1
72 290 m 0,28,29
 72 230 72 230 89.5 177 c 128,-1,30
 107 124 107 124 142 86 c 1,31,-1
 594 635 l 1,32,33
 565 663 565 663 528.5 679 c 128,-1,34
 492 695 492 695 447 695 c 0,35,36
 372 695 372 695 304 659 c 128,-1,37
 236 623 236 623 184.5 565 c 128,-1,38
 133 507 133 507 102.5 435 c 128,-1,39
 72 363 72 363 72 290 c 0,28,29
303 15 m 0,40,41
 378 15 378 15 446 51 c 128,-1,42
 514 87 514 87 565 145 c 128,-1,43
 616 203 616 203 646.5 275 c 128,-1,44
 677 347 677 347 677 419 c 0,45,46
 677 478 677 478 659 530.5 c 128,-1,47
 641 583 641 583 607 621 c 1,48,-1
 155 72 l 1,49,50
 184 45 184 45 221 30 c 128,-1,51
 258 15 258 15 303 15 c 0,40,41
EndSplineSet
EndChar

StartChar: Ugrave
Encoding: 217 217 156
Width: 724
GlyphClass: 2
Flags: W
LayerCount: 2
Fore
SplineSet
298 -5 m 0,0,1
 237 -5 237 -5 196 13 c 128,-1,2
 155 31 155 31 130 62.5 c 128,-1,3
 105 94 105 94 94 136 c 128,-1,4
 83 178 83 178 83 226 c 0,5,6
 83 257 83 257 87 289.5 c 128,-1,7
 91 322 91 322 98 355 c 2,8,-1
 173 710 l 1,9,-1
 193 710 l 1,10,-1
 118 355 l 2,11,12
 111 323 111 323 107 291 c 128,-1,13
 103 259 103 259 103 229 c 0,14,15
 103 184 103 184 113 145 c 128,-1,16
 123 106 123 106 146 77 c 128,-1,17
 169 48 169 48 207 31.5 c 128,-1,18
 245 15 245 15 301 15 c 0,19,20
 377 15 377 15 433 45 c 128,-1,21
 489 75 489 75 528.5 123 c 128,-1,22
 568 171 568 171 592.5 232 c 128,-1,23
 617 293 617 293 630 355 c 2,24,-1
 705 710 l 1,25,-1
 725 710 l 1,26,-1
 650 355 l 2,27,28
 635 284 635 284 607 219 c 128,-1,29
 579 154 579 154 536.5 104.5 c 128,-1,30
 494 55 494 55 435 25 c 128,-1,31
 376 -5 376 -5 298 -5 c 0,0,1
427 918 m 1,32,-1
 459 918 l 1,33,-1
 505 845 l 1,34,-1
 487 833 l 1,35,-1
 427 918 l 1,32,-1
EndSplineSet
EndChar

StartChar: Uacute
Encoding: 218 218 157
Width: 724
GlyphClass: 2
Flags: W
LayerCount: 2
Fore
SplineSet
298 -5 m 0,0,1
 237 -5 237 -5 196 13 c 128,-1,2
 155 31 155 31 130 62.5 c 128,-1,3
 105 94 105 94 94 136 c 128,-1,4
 83 178 83 178 83 226 c 0,5,6
 83 257 83 257 87 289.5 c 128,-1,7
 91 322 91 322 98 355 c 2,8,-1
 173 710 l 1,9,-1
 193 710 l 1,10,-1
 118 355 l 2,11,12
 111 323 111 323 107 291 c 128,-1,13
 103 259 103 259 103 229 c 0,14,15
 103 184 103 184 113 145 c 128,-1,16
 123 106 123 106 146 77 c 128,-1,17
 169 48 169 48 207 31.5 c 128,-1,18
 245 15 245 15 301 15 c 0,19,20
 377 15 377 15 433 45 c 128,-1,21
 489 75 489 75 528.5 123 c 128,-1,22
 568 171 568 171 592.5 232 c 128,-1,23
 617 293 617 293 630 355 c 2,24,-1
 705 710 l 1,25,-1
 725 710 l 1,26,-1
 650 355 l 2,27,28
 635 284 635 284 607 219 c 128,-1,29
 579 154 579 154 536.5 104.5 c 128,-1,30
 494 55 494 55 435 25 c 128,-1,31
 376 -5 376 -5 298 -5 c 0,0,1
445 833 m 1,32,-1
 432 845 l 1,33,-1
 508 918 l 1,34,-1
 541 918 l 1,35,-1
 445 833 l 1,32,-1
EndSplineSet
EndChar

StartChar: Ucircumflex
Encoding: 219 219 158
Width: 724
GlyphClass: 2
Flags: W
LayerCount: 2
Fore
SplineSet
298 -5 m 0,0,1
 237 -5 237 -5 196 13 c 128,-1,2
 155 31 155 31 130 62.5 c 128,-1,3
 105 94 105 94 94 136 c 128,-1,4
 83 178 83 178 83 226 c 0,5,6
 83 257 83 257 87 289.5 c 128,-1,7
 91 322 91 322 98 355 c 2,8,-1
 173 710 l 1,9,-1
 193 710 l 1,10,-1
 118 355 l 2,11,12
 111 323 111 323 107 291 c 128,-1,13
 103 259 103 259 103 229 c 0,14,15
 103 184 103 184 113 145 c 128,-1,16
 123 106 123 106 146 77 c 128,-1,17
 169 48 169 48 207 31.5 c 128,-1,18
 245 15 245 15 301 15 c 0,19,20
 377 15 377 15 433 45 c 128,-1,21
 489 75 489 75 528.5 123 c 128,-1,22
 568 171 568 171 592.5 232 c 128,-1,23
 617 293 617 293 630 355 c 2,24,-1
 705 710 l 1,25,-1
 725 710 l 1,26,-1
 650 355 l 2,27,28
 635 284 635 284 607 219 c 128,-1,29
 579 154 579 154 536.5 104.5 c 128,-1,30
 494 55 494 55 435 25 c 128,-1,31
 376 -5 376 -5 298 -5 c 0,0,1
383 844 m 1,32,-1
 487 918 l 1,33,-1
 503 918 l 1,34,-1
 576 844 l 1,35,-1
 558 832 l 1,36,-1
 490 895 l 1,37,-1
 396 832 l 1,38,-1
 383 844 l 1,32,-1
EndSplineSet
EndChar

StartChar: Udieresis
Encoding: 220 220 159
Width: 724
GlyphClass: 2
Flags: W
LayerCount: 2
Fore
SplineSet
298 -5 m 0,0,1
 237 -5 237 -5 196 13 c 128,-1,2
 155 31 155 31 130 62.5 c 128,-1,3
 105 94 105 94 94 136 c 128,-1,4
 83 178 83 178 83 226 c 0,5,6
 83 257 83 257 87 289.5 c 128,-1,7
 91 322 91 322 98 355 c 2,8,-1
 173 710 l 1,9,-1
 193 710 l 1,10,-1
 118 355 l 2,11,12
 111 323 111 323 107 291 c 128,-1,13
 103 259 103 259 103 229 c 0,14,15
 103 184 103 184 113 145 c 128,-1,16
 123 106 123 106 146 77 c 128,-1,17
 169 48 169 48 207 31.5 c 128,-1,18
 245 15 245 15 301 15 c 0,19,20
 377 15 377 15 433 45 c 128,-1,21
 489 75 489 75 528.5 123 c 128,-1,22
 568 171 568 171 592.5 232 c 128,-1,23
 617 293 617 293 630 355 c 2,24,-1
 705 710 l 1,25,-1
 725 710 l 1,26,-1
 650 355 l 2,27,28
 635 284 635 284 607 219 c 128,-1,29
 579 154 579 154 536.5 104.5 c 128,-1,30
 494 55 494 55 435 25 c 128,-1,31
 376 -5 376 -5 298 -5 c 0,0,1
410 841 m 1,32,-1
 426 918 l 1,33,-1
 446 918 l 1,34,-1
 430 841 l 1,35,-1
 410 841 l 1,32,-1
521 841 m 1,36,-1
 537 918 l 1,37,-1
 557 918 l 1,38,-1
 541 841 l 1,39,-1
 521 841 l 1,36,-1
EndSplineSet
EndChar

StartChar: Yacute
Encoding: 221 221 160
Width: 594
GlyphClass: 2
Flags: W
LayerCount: 2
Fore
SplineSet
277 277 m 1,0,-1
 97 710 l 1,1,-1
 120 710 l 1,2,-1
 292 298 l 1,3,-1
 640 710 l 1,4,-1
 663 710 l 1,5,-1
 297 275 l 1,6,-1
 238 0 l 1,7,-1
 218 0 l 1,8,-1
 277 277 l 1,0,-1
374 833 m 1,9,-1
 361 845 l 1,10,-1
 437 918 l 1,11,-1
 470 918 l 1,12,-1
 374 833 l 1,9,-1
EndSplineSet
EndChar

StartChar: Thorn
Encoding: 222 222 161
Width: 574
GlyphClass: 2
Flags: W
LayerCount: 2
Fore
SplineSet
184 710 m 1,0,-1
 204 710 l 1,1,-1
 172 560 l 1,2,-1
 408 560 l 2,3,4
 443 560 443 560 471 545 c 128,-1,5
 499 530 499 530 518 505 c 128,-1,6
 537 480 537 480 547 448.5 c 128,-1,7
 557 417 557 417 557 383 c 0,8,9
 557 337 557 337 538 291.5 c 128,-1,10
 519 246 519 246 487 210 c 128,-1,11
 455 174 455 174 412.5 151.5 c 128,-1,12
 370 129 370 129 323 129 c 2,13,-1
 80 129 l 1,14,-1
 53 0 l 1,15,-1
 33 0 l 1,16,-1
 184 710 l 1,0,-1
327 149 m 2,17,18
 371 149 371 149 409.5 170 c 128,-1,19
 448 191 448 191 476.5 224.5 c 128,-1,20
 505 258 505 258 521 299 c 128,-1,21
 537 340 537 340 537 380 c 0,22,23
 537 412 537 412 527.5 441 c 128,-1,24
 518 470 518 470 500.5 492 c 128,-1,25
 483 514 483 514 458 527 c 128,-1,26
 433 540 433 540 403 540 c 2,27,-1
 168 540 l 1,28,-1
 85 149 l 1,29,-1
 327 149 l 2,17,18
EndSplineSet
EndChar

StartChar: germandbls
Encoding: 223 223 162
Width: 523
GlyphClass: 2
Flags: W
LayerCount: 2
Fore
SplineSet
159 13 m 1,0,1
 225 14 225 14 277.5 30.5 c 128,-1,2
 330 47 330 47 366.5 76 c 128,-1,3
 403 105 403 105 422 146.5 c 128,-1,4
 441 188 441 188 441 240 c 0,5,6
 441 309 441 309 399 351 c 128,-1,7
 357 393 357 393 282 393 c 2,8,-1
 266 393 l 1,9,-1
 270 413 l 1,10,-1
 285 413 l 2,11,12
 321 413 321 413 353 426 c 128,-1,13
 385 439 385 439 410 461 c 128,-1,14
 435 483 435 483 449.5 512.5 c 128,-1,15
 464 542 464 542 464 576 c 0,16,17
 464 627 464 627 430 660.5 c 128,-1,18
 396 694 396 694 339 694 c 0,19,20
 304 694 304 694 272.5 681 c 128,-1,21
 241 668 241 668 215.5 643.5 c 128,-1,22
 190 619 190 619 172 585 c 128,-1,23
 154 551 154 551 145 509 c 2,24,-1
 37 0 l 1,25,-1
 17 0 l 1,26,-1
 125 509 l 2,27,28
 135 555 135 555 155.5 593 c 128,-1,29
 176 631 176 631 205 658 c 128,-1,30
 234 685 234 685 269.5 699.5 c 128,-1,31
 305 714 305 714 344 714 c 0,32,33
 376 714 376 714 402 704 c 128,-1,34
 428 694 428 694 446.5 676.5 c 128,-1,35
 465 659 465 659 475 635 c 128,-1,36
 485 611 485 611 485 583 c 0,37,38
 485 552 485 552 472 522 c 128,-1,39
 459 492 459 492 438 468 c 128,-1,40
 417 444 417 444 390 427 c 128,-1,41
 363 410 363 410 335 404 c 1,42,43
 398 390 398 390 430 348 c 128,-1,44
 462 306 462 306 462 245 c 0,45,46
 462 132 462 132 382.5 65.5 c 128,-1,47
 303 -1 303 -1 155 -6 c 1,48,-1
 159 13 l 1,0,1
EndSplineSet
EndChar

StartChar: agrave
Encoding: 224 224 163
Width: 580
GlyphClass: 2
Flags: W
LayerCount: 2
Fore
SplineSet
216 -10 m 0,0,1
 173 -10 173 -10 138.5 8.5 c 128,-1,2
 104 27 104 27 80 57.5 c 128,-1,3
 56 88 56 88 43.5 128 c 128,-1,4
 31 168 31 168 31 210 c 0,5,6
 31 270 31 270 55 327 c 128,-1,7
 79 384 79 384 119.5 428.5 c 128,-1,8
 160 473 160 473 212.5 500 c 128,-1,9
 265 527 265 527 321 527 c 0,10,11
 356 527 356 527 384.5 516.5 c 128,-1,12
 413 506 413 506 434.5 488.5 c 128,-1,13
 456 471 456 471 472 447.5 c 128,-1,14
 488 424 488 424 497 398 c 1,15,-1
 523 519 l 1,16,-1
 544 519 l 1,17,-1
 442 44 l 2,18,19
 440 38 440 38 440 32 c 0,20,21
 440 20 440 20 452 20 c 1,22,-1
 448 0 l 1,23,24
 442 0 442 0 439 1 c 0,25,26
 420 7 420 7 420 29 c 0,27,28
 420 31 420 31 420.5 34 c 128,-1,29
 421 37 421 37 422.5 44.5 c 128,-1,30
 424 52 424 52 427 67 c 128,-1,31
 430 82 430 82 435 108 c 1,32,33
 414 82 414 82 388 60.5 c 128,-1,34
 362 39 362 39 333.5 23 c 128,-1,35
 305 7 305 7 275 -1.5 c 128,-1,36
 245 -10 245 -10 216 -10 c 0,0,1
218 10 m 0,37,38
 250 10 250 10 286.5 23 c 128,-1,39
 323 36 323 36 356 58 c 128,-1,40
 389 80 389 80 414 108.5 c 128,-1,41
 439 137 439 137 448 169 c 2,42,-1
 488 356 l 1,43,44
 484 386 484 386 469.5 413 c 128,-1,45
 455 440 455 440 432 461 c 128,-1,46
 409 482 409 482 378.5 494.5 c 128,-1,47
 348 507 348 507 313 507 c 0,48,49
 261 507 261 507 213.5 480.5 c 128,-1,50
 166 454 166 454 130 411 c 128,-1,51
 94 368 94 368 72.5 315 c 128,-1,52
 51 262 51 262 51 210 c 0,53,54
 51 170 51 170 63.5 134 c 128,-1,55
 76 98 76 98 98.5 70.5 c 128,-1,56
 121 43 121 43 151.5 26.5 c 128,-1,57
 182 10 182 10 218 10 c 0,37,38
328 730 m 1,58,-1
 360 730 l 1,59,-1
 406 657 l 1,60,-1
 388 645 l 1,61,-1
 328 730 l 1,58,-1
EndSplineSet
EndChar

StartChar: aacute
Encoding: 225 225 164
Width: 580
GlyphClass: 2
Flags: W
LayerCount: 2
Fore
SplineSet
216 -10 m 0,0,1
 173 -10 173 -10 138.5 8.5 c 128,-1,2
 104 27 104 27 80 57.5 c 128,-1,3
 56 88 56 88 43.5 128 c 128,-1,4
 31 168 31 168 31 210 c 0,5,6
 31 270 31 270 55 327 c 128,-1,7
 79 384 79 384 119.5 428.5 c 128,-1,8
 160 473 160 473 212.5 500 c 128,-1,9
 265 527 265 527 321 527 c 0,10,11
 356 527 356 527 384.5 516.5 c 128,-1,12
 413 506 413 506 434.5 488.5 c 128,-1,13
 456 471 456 471 472 447.5 c 128,-1,14
 488 424 488 424 497 398 c 1,15,-1
 523 519 l 1,16,-1
 544 519 l 1,17,-1
 442 44 l 2,18,19
 440 38 440 38 440 32 c 0,20,21
 440 20 440 20 452 20 c 1,22,-1
 448 0 l 1,23,24
 442 0 442 0 439 1 c 0,25,26
 420 7 420 7 420 29 c 0,27,28
 420 31 420 31 420.5 34 c 128,-1,29
 421 37 421 37 422.5 44.5 c 128,-1,30
 424 52 424 52 427 67 c 128,-1,31
 430 82 430 82 435 108 c 1,32,33
 414 82 414 82 388 60.5 c 128,-1,34
 362 39 362 39 333.5 23 c 128,-1,35
 305 7 305 7 275 -1.5 c 128,-1,36
 245 -10 245 -10 216 -10 c 0,0,1
218 10 m 0,37,38
 250 10 250 10 286.5 23 c 128,-1,39
 323 36 323 36 356 58 c 128,-1,40
 389 80 389 80 414 108.5 c 128,-1,41
 439 137 439 137 448 169 c 2,42,-1
 488 356 l 1,43,44
 484 386 484 386 469.5 413 c 128,-1,45
 455 440 455 440 432 461 c 128,-1,46
 409 482 409 482 378.5 494.5 c 128,-1,47
 348 507 348 507 313 507 c 0,48,49
 261 507 261 507 213.5 480.5 c 128,-1,50
 166 454 166 454 130 411 c 128,-1,51
 94 368 94 368 72.5 315 c 128,-1,52
 51 262 51 262 51 210 c 0,53,54
 51 170 51 170 63.5 134 c 128,-1,55
 76 98 76 98 98.5 70.5 c 128,-1,56
 121 43 121 43 151.5 26.5 c 128,-1,57
 182 10 182 10 218 10 c 0,37,38
341 645 m 1,58,-1
 328 657 l 1,59,-1
 404 730 l 1,60,-1
 437 730 l 1,61,-1
 341 645 l 1,58,-1
EndSplineSet
EndChar

StartChar: acircumflex
Encoding: 226 226 165
Width: 580
GlyphClass: 2
Flags: W
LayerCount: 2
Fore
SplineSet
216 -10 m 0,0,1
 173 -10 173 -10 138.5 8.5 c 128,-1,2
 104 27 104 27 80 57.5 c 128,-1,3
 56 88 56 88 43.5 128 c 128,-1,4
 31 168 31 168 31 210 c 0,5,6
 31 270 31 270 55 327 c 128,-1,7
 79 384 79 384 119.5 428.5 c 128,-1,8
 160 473 160 473 212.5 500 c 128,-1,9
 265 527 265 527 321 527 c 0,10,11
 356 527 356 527 384.5 516.5 c 128,-1,12
 413 506 413 506 434.5 488.5 c 128,-1,13
 456 471 456 471 472 447.5 c 128,-1,14
 488 424 488 424 497 398 c 1,15,-1
 523 519 l 1,16,-1
 544 519 l 1,17,-1
 442 44 l 2,18,19
 440 38 440 38 440 32 c 0,20,21
 440 20 440 20 452 20 c 1,22,-1
 448 0 l 1,23,24
 442 0 442 0 439 1 c 0,25,26
 420 7 420 7 420 29 c 0,27,28
 420 31 420 31 420.5 34 c 128,-1,29
 421 37 421 37 422.5 44.5 c 128,-1,30
 424 52 424 52 427 67 c 128,-1,31
 430 82 430 82 435 108 c 1,32,33
 414 82 414 82 388 60.5 c 128,-1,34
 362 39 362 39 333.5 23 c 128,-1,35
 305 7 305 7 275 -1.5 c 128,-1,36
 245 -10 245 -10 216 -10 c 0,0,1
218 10 m 0,37,38
 250 10 250 10 286.5 23 c 128,-1,39
 323 36 323 36 356 58 c 128,-1,40
 389 80 389 80 414 108.5 c 128,-1,41
 439 137 439 137 448 169 c 2,42,-1
 488 356 l 1,43,44
 484 386 484 386 469.5 413 c 128,-1,45
 455 440 455 440 432 461 c 128,-1,46
 409 482 409 482 378.5 494.5 c 128,-1,47
 348 507 348 507 313 507 c 0,48,49
 261 507 261 507 213.5 480.5 c 128,-1,50
 166 454 166 454 130 411 c 128,-1,51
 94 368 94 368 72.5 315 c 128,-1,52
 51 262 51 262 51 210 c 0,53,54
 51 170 51 170 63.5 134 c 128,-1,55
 76 98 76 98 98.5 70.5 c 128,-1,56
 121 43 121 43 151.5 26.5 c 128,-1,57
 182 10 182 10 218 10 c 0,37,38
269 656 m 1,58,-1
 373 730 l 1,59,-1
 389 730 l 1,60,-1
 462 656 l 1,61,-1
 444 644 l 1,62,-1
 376 707 l 1,63,-1
 282 644 l 1,64,-1
 269 656 l 1,58,-1
EndSplineSet
EndChar

StartChar: atilde
Encoding: 227 227 166
Width: 580
GlyphClass: 2
Flags: W
LayerCount: 2
Fore
SplineSet
216 -10 m 0,0,1
 173 -10 173 -10 138.5 8.5 c 128,-1,2
 104 27 104 27 80 57.5 c 128,-1,3
 56 88 56 88 43.5 128 c 128,-1,4
 31 168 31 168 31 210 c 0,5,6
 31 270 31 270 55 327 c 128,-1,7
 79 384 79 384 119.5 428.5 c 128,-1,8
 160 473 160 473 212.5 500 c 128,-1,9
 265 527 265 527 321 527 c 0,10,11
 356 527 356 527 384.5 516.5 c 128,-1,12
 413 506 413 506 434.5 488.5 c 128,-1,13
 456 471 456 471 472 447.5 c 128,-1,14
 488 424 488 424 497 398 c 1,15,-1
 523 519 l 1,16,-1
 544 519 l 1,17,-1
 442 44 l 2,18,19
 440 38 440 38 440 32 c 0,20,21
 440 20 440 20 452 20 c 1,22,-1
 448 0 l 1,23,24
 442 0 442 0 439 1 c 0,25,26
 420 7 420 7 420 29 c 0,27,28
 420 31 420 31 420.5 34 c 128,-1,29
 421 37 421 37 422.5 44.5 c 128,-1,30
 424 52 424 52 427 67 c 128,-1,31
 430 82 430 82 435 108 c 1,32,33
 414 82 414 82 388 60.5 c 128,-1,34
 362 39 362 39 333.5 23 c 128,-1,35
 305 7 305 7 275 -1.5 c 128,-1,36
 245 -10 245 -10 216 -10 c 0,0,1
218 10 m 0,37,38
 250 10 250 10 286.5 23 c 128,-1,39
 323 36 323 36 356 58 c 128,-1,40
 389 80 389 80 414 108.5 c 128,-1,41
 439 137 439 137 448 169 c 2,42,-1
 488 356 l 1,43,44
 484 386 484 386 469.5 413 c 128,-1,45
 455 440 455 440 432 461 c 128,-1,46
 409 482 409 482 378.5 494.5 c 128,-1,47
 348 507 348 507 313 507 c 0,48,49
 261 507 261 507 213.5 480.5 c 128,-1,50
 166 454 166 454 130 411 c 128,-1,51
 94 368 94 368 72.5 315 c 128,-1,52
 51 262 51 262 51 210 c 0,53,54
 51 170 51 170 63.5 134 c 128,-1,55
 76 98 76 98 98.5 70.5 c 128,-1,56
 121 43 121 43 151.5 26.5 c 128,-1,57
 182 10 182 10 218 10 c 0,37,38
417 663 m 0,58,59
 396 663 396 663 381.5 669 c 128,-1,60
 367 675 367 675 355 682 c 128,-1,61
 343 689 343 689 332 695 c 128,-1,62
 321 701 321 701 306 701 c 256,63,64
 291 701 291 701 280 694.5 c 128,-1,65
 269 688 269 688 262 679.5 c 128,-1,66
 255 671 255 671 251.5 663 c 128,-1,67
 248 655 248 655 247 653 c 2,68,-1
 228 653 l 2,69,70
 228 655 228 655 232.5 666 c 128,-1,71
 237 677 237 677 246.5 689 c 128,-1,72
 256 701 256 701 272 710.5 c 128,-1,73
 288 720 288 720 312 720 c 0,74,75
 330 720 330 720 343 714 c 128,-1,76
 356 708 356 708 367.5 701 c 128,-1,77
 379 694 379 694 392 688 c 128,-1,78
 405 682 405 682 423 682 c 0,79,80
 442 682 442 682 455 689 c 128,-1,81
 468 696 468 696 475.5 704.5 c 128,-1,82
 483 713 483 713 486 720.5 c 128,-1,83
 489 728 489 728 489 730 c 2,84,-1
 508 730 l 2,85,86
 507 727 507 727 502.5 716 c 128,-1,87
 498 705 498 705 487.5 693 c 128,-1,88
 477 681 477 681 460 672 c 128,-1,89
 443 663 443 663 417 663 c 0,58,59
EndSplineSet
EndChar

StartChar: adieresis
Encoding: 228 228 167
Width: 580
GlyphClass: 2
Flags: W
LayerCount: 2
Fore
SplineSet
216 -10 m 0,0,1
 173 -10 173 -10 138.5 8.5 c 128,-1,2
 104 27 104 27 80 57.5 c 128,-1,3
 56 88 56 88 43.5 128 c 128,-1,4
 31 168 31 168 31 210 c 0,5,6
 31 270 31 270 55 327 c 128,-1,7
 79 384 79 384 119.5 428.5 c 128,-1,8
 160 473 160 473 212.5 500 c 128,-1,9
 265 527 265 527 321 527 c 0,10,11
 356 527 356 527 384.5 516.5 c 128,-1,12
 413 506 413 506 434.5 488.5 c 128,-1,13
 456 471 456 471 472 447.5 c 128,-1,14
 488 424 488 424 497 398 c 1,15,-1
 523 519 l 1,16,-1
 544 519 l 1,17,-1
 442 44 l 2,18,19
 440 38 440 38 440 32 c 0,20,21
 440 20 440 20 452 20 c 1,22,-1
 448 0 l 1,23,24
 442 0 442 0 439 1 c 0,25,26
 420 7 420 7 420 29 c 0,27,28
 420 31 420 31 420.5 34 c 128,-1,29
 421 37 421 37 422.5 44.5 c 128,-1,30
 424 52 424 52 427 67 c 128,-1,31
 430 82 430 82 435 108 c 1,32,33
 414 82 414 82 388 60.5 c 128,-1,34
 362 39 362 39 333.5 23 c 128,-1,35
 305 7 305 7 275 -1.5 c 128,-1,36
 245 -10 245 -10 216 -10 c 0,0,1
218 10 m 0,37,38
 250 10 250 10 286.5 23 c 128,-1,39
 323 36 323 36 356 58 c 128,-1,40
 389 80 389 80 414 108.5 c 128,-1,41
 439 137 439 137 448 169 c 2,42,-1
 488 356 l 1,43,44
 484 386 484 386 469.5 413 c 128,-1,45
 455 440 455 440 432 461 c 128,-1,46
 409 482 409 482 378.5 494.5 c 128,-1,47
 348 507 348 507 313 507 c 0,48,49
 261 507 261 507 213.5 480.5 c 128,-1,50
 166 454 166 454 130 411 c 128,-1,51
 94 368 94 368 72.5 315 c 128,-1,52
 51 262 51 262 51 210 c 0,53,54
 51 170 51 170 63.5 134 c 128,-1,55
 76 98 76 98 98.5 70.5 c 128,-1,56
 121 43 121 43 151.5 26.5 c 128,-1,57
 182 10 182 10 218 10 c 0,37,38
295 653 m 1,58,-1
 311 730 l 1,59,-1
 331 730 l 1,60,-1
 315 653 l 1,61,-1
 295 653 l 1,58,-1
406 653 m 1,62,-1
 422 730 l 1,63,-1
 442 730 l 1,64,-1
 426 653 l 1,65,-1
 406 653 l 1,62,-1
EndSplineSet
EndChar

StartChar: aring
Encoding: 229 229 168
Width: 580
GlyphClass: 2
Flags: W
LayerCount: 2
Fore
SplineSet
216 -10 m 0,0,1
 173 -10 173 -10 138.5 8.5 c 128,-1,2
 104 27 104 27 80 57.5 c 128,-1,3
 56 88 56 88 43.5 128 c 128,-1,4
 31 168 31 168 31 210 c 0,5,6
 31 270 31 270 55 327 c 128,-1,7
 79 384 79 384 119.5 428.5 c 128,-1,8
 160 473 160 473 212.5 500 c 128,-1,9
 265 527 265 527 321 527 c 0,10,11
 356 527 356 527 384.5 516.5 c 128,-1,12
 413 506 413 506 434.5 488.5 c 128,-1,13
 456 471 456 471 472 447.5 c 128,-1,14
 488 424 488 424 497 398 c 1,15,-1
 523 519 l 1,16,-1
 544 519 l 1,17,-1
 442 44 l 2,18,19
 440 38 440 38 440 32 c 0,20,21
 440 20 440 20 452 20 c 1,22,-1
 448 0 l 1,23,24
 442 0 442 0 439 1 c 0,25,26
 420 7 420 7 420 29 c 0,27,28
 420 31 420 31 420.5 34 c 128,-1,29
 421 37 421 37 422.5 44.5 c 128,-1,30
 424 52 424 52 427 67 c 128,-1,31
 430 82 430 82 435 108 c 1,32,33
 414 82 414 82 388 60.5 c 128,-1,34
 362 39 362 39 333.5 23 c 128,-1,35
 305 7 305 7 275 -1.5 c 128,-1,36
 245 -10 245 -10 216 -10 c 0,0,1
218 10 m 0,37,38
 250 10 250 10 286.5 23 c 128,-1,39
 323 36 323 36 356 58 c 128,-1,40
 389 80 389 80 414 108.5 c 128,-1,41
 439 137 439 137 448 169 c 2,42,-1
 488 356 l 1,43,44
 484 386 484 386 469.5 413 c 128,-1,45
 455 440 455 440 432 461 c 128,-1,46
 409 482 409 482 378.5 494.5 c 128,-1,47
 348 507 348 507 313 507 c 0,48,49
 261 507 261 507 213.5 480.5 c 128,-1,50
 166 454 166 454 130 411 c 128,-1,51
 94 368 94 368 72.5 315 c 128,-1,52
 51 262 51 262 51 210 c 0,53,54
 51 170 51 170 63.5 134 c 128,-1,55
 76 98 76 98 98.5 70.5 c 128,-1,56
 121 43 121 43 151.5 26.5 c 128,-1,57
 182 10 182 10 218 10 c 0,37,38
309 662 m 0,58,59
 309 676 309 676 314.5 688.5 c 128,-1,60
 320 701 320 701 329.5 710 c 128,-1,61
 339 719 339 719 351.5 724.5 c 128,-1,62
 364 730 364 730 377 730 c 0,63,64
 397 730 397 730 408.5 717 c 128,-1,65
 420 704 420 704 420 684 c 0,66,67
 420 670 420 670 414.5 657.5 c 128,-1,68
 409 645 409 645 399.5 636 c 128,-1,69
 390 627 390 627 377.5 621.5 c 128,-1,70
 365 616 365 616 352 616 c 0,71,72
 332 616 332 616 320.5 629 c 128,-1,73
 309 642 309 642 309 662 c 0,58,59
373 714 m 0,74,75
 355 714 355 714 340 700.5 c 128,-1,76
 325 687 325 687 325 665 c 0,77,78
 325 651 325 651 333.5 641.5 c 128,-1,79
 342 632 342 632 356 632 c 0,80,81
 372 632 372 632 388.5 646 c 128,-1,82
 405 660 405 660 405 681 c 0,83,84
 405 696 405 696 396 705 c 128,-1,85
 387 714 387 714 373 714 c 0,74,75
EndSplineSet
EndChar

StartChar: ae
Encoding: 230 230 169
Width: 883
GlyphClass: 2
Flags: W
LayerCount: 2
Fore
SplineSet
137 -10 m 0,0,1
 103 -10 103 -10 77.5 0.5 c 128,-1,2
 52 11 52 11 35 29 c 128,-1,3
 18 47 18 47 9.5 70.5 c 128,-1,4
 1 94 1 94 1 120 c 0,5,6
 1 160 1 160 19.5 192.5 c 128,-1,7
 38 225 38 225 70.5 248 c 128,-1,8
 103 271 103 271 147 284 c 128,-1,9
 191 297 191 297 241 297 c 0,10,11
 275 297 275 297 309.5 291.5 c 128,-1,12
 344 286 344 286 373 277 c 1,13,14
 380 303 380 303 391 328 c 128,-1,15
 402 353 402 353 416 376 c 1,16,17
 416 436 416 436 383 471.5 c 128,-1,18
 350 507 350 507 291 507 c 0,19,20
 252 507 252 507 207.5 490.5 c 128,-1,21
 163 474 163 474 115 443 c 1,22,-1
 107 459 l 1,23,24
 163 494 163 494 208 510.5 c 128,-1,25
 253 527 253 527 295 527 c 0,26,27
 353 527 353 527 391.5 495.5 c 128,-1,28
 430 464 430 464 435 403 c 1,29,30
 478 459 478 459 537 493 c 128,-1,31
 596 527 596 527 659 527 c 0,32,33
 700 527 700 527 735 512 c 128,-1,34
 770 497 770 497 795.5 470.5 c 128,-1,35
 821 444 821 444 835.5 407.5 c 128,-1,36
 850 371 850 371 850 328 c 0,37,38
 850 311 850 311 847.5 287.5 c 128,-1,39
 845 264 845 264 837 248 c 1,40,-1
 387 248 l 1,41,42
 384 225 384 225 384 206 c 0,43,44
 384 164 384 164 396 128 c 128,-1,45
 408 92 408 92 430.5 65.5 c 128,-1,46
 453 39 453 39 484.5 24.5 c 128,-1,47
 516 10 516 10 555 10 c 0,48,49
 583 10 583 10 612 18 c 128,-1,50
 641 26 641 26 667.5 40.5 c 128,-1,51
 694 55 694 55 716.5 75 c 128,-1,52
 739 95 739 95 754 119 c 1,53,-1
 772 114 l 1,54,55
 756 87 756 87 731.5 64.5 c 128,-1,56
 707 42 707 42 677 25.5 c 128,-1,57
 647 9 647 9 614.5 -0.5 c 128,-1,58
 582 -10 582 -10 550 -10 c 0,59,60
 488 -10 488 -10 443.5 23 c 128,-1,61
 399 56 399 56 378 111 c 1,62,63
 356 78 356 78 325.5 55 c 128,-1,64
 295 32 295 32 261.5 17.5 c 128,-1,65
 228 3 228 3 195 -3.5 c 128,-1,66
 162 -10 162 -10 137 -10 c 0,0,1
143 10 m 0,67,68
 174 10 174 10 210 19.5 c 128,-1,69
 246 29 246 29 278.5 46 c 128,-1,70
 311 63 311 63 336 86 c 128,-1,71
 361 109 361 109 370 137 c 1,72,73
 362 167 362 167 362 199 c 0,74,75
 362 226 362 226 368 256 c 1,76,77
 338 267 338 267 304.5 272 c 128,-1,78
 271 277 271 277 239 277 c 0,79,80
 191 277 191 277 151 266 c 128,-1,81
 111 255 111 255 82 235 c 128,-1,82
 53 215 53 215 37 187 c 128,-1,83
 21 159 21 159 21 124 c 0,84,85
 21 102 21 102 28 81.5 c 128,-1,86
 35 61 35 61 50 45 c 128,-1,87
 65 29 65 29 88 19.5 c 128,-1,88
 111 10 111 10 143 10 c 0,67,68
821 268 m 1,89,90
 828 295 828 295 828 325 c 0,91,92
 828 360 828 360 817.5 393 c 128,-1,93
 807 426 807 426 785.5 451.5 c 128,-1,94
 764 477 764 477 731.5 492 c 128,-1,95
 699 507 699 507 656 507 c 0,96,97
 612 507 612 507 570 489 c 128,-1,98
 528 471 528 471 493 439 c 128,-1,99
 458 407 458 407 431 363 c 128,-1,100
 404 319 404 319 391 268 c 1,101,-1
 821 268 l 1,89,90
EndSplineSet
EndChar

StartChar: ccedilla
Encoding: 231 231 170
Width: 514
GlyphClass: 2
Flags: W
LayerCount: 2
Fore
SplineSet
123 -126 m 1,0,1
 137 -133 137 -133 157.5 -138.5 c 128,-1,2
 178 -144 178 -144 202 -144 c 0,3,4
 267 -144 267 -144 267 -97 c 0,5,6
 267 -81 267 -81 256 -74.5 c 128,-1,7
 245 -68 245 -68 228 -68 c 0,8,9
 208 -68 208 -68 185 -73.5 c 128,-1,10
 162 -79 162 -79 148 -84 c 1,11,-1
 204 -9 l 1,12,13
 165 -6 165 -6 133 12 c 128,-1,14
 101 30 101 30 78.5 59.5 c 128,-1,15
 56 89 56 89 43.5 127.5 c 128,-1,16
 31 166 31 166 31 210 c 0,17,18
 31 274 31 274 56 332 c 128,-1,19
 81 390 81 390 123 433 c 128,-1,20
 165 476 165 476 219.5 501.5 c 128,-1,21
 274 527 274 527 332 527 c 0,22,23
 395 527 395 527 437 496.5 c 128,-1,24
 479 466 479 466 493 411 c 1,25,-1
 471 404 l 1,26,27
 457 452 457 452 418 479.5 c 128,-1,28
 379 507 379 507 325 507 c 0,29,30
 273 507 273 507 223.5 483.5 c 128,-1,31
 174 460 174 460 136 420 c 128,-1,32
 98 380 98 380 74.5 326.5 c 128,-1,33
 51 273 51 273 51 214 c 0,34,35
 51 172 51 172 63.5 134.5 c 128,-1,36
 76 97 76 97 98 69.5 c 128,-1,37
 120 42 120 42 151 26 c 128,-1,38
 182 10 182 10 220 10 c 0,39,40
 249 10 249 10 279.5 19 c 128,-1,41
 310 28 310 28 337 43 c 128,-1,42
 364 58 364 58 385.5 78 c 128,-1,43
 407 98 407 98 417 119 c 1,44,-1
 436 113 l 1,45,46
 422 87 422 87 399.5 65.5 c 128,-1,47
 377 44 377 44 349 27.5 c 128,-1,48
 321 11 321 11 289.5 1 c 128,-1,49
 258 -9 258 -9 227 -10 c 1,50,-1
 190 -58 l 1,51,52
 201 -54 201 -54 212.5 -53 c 128,-1,53
 224 -52 224 -52 232 -52 c 0,54,55
 286 -52 286 -52 286 -94 c 0,56,57
 286 -129 286 -129 261.5 -146 c 128,-1,58
 237 -163 237 -163 195 -163 c 0,59,60
 170 -163 170 -163 148.5 -157.5 c 128,-1,61
 127 -152 127 -152 110 -144 c 1,62,-1
 123 -126 l 1,0,1
EndSplineSet
EndChar

StartChar: egrave
Encoding: 232 232 171
Width: 521
GlyphClass: 2
Flags: W
LayerCount: 2
Fore
SplineSet
220 -10 m 0,0,1
 175 -10 175 -10 140 7.5 c 128,-1,2
 105 25 105 25 81 55 c 128,-1,3
 57 85 57 85 44 125 c 128,-1,4
 31 165 31 165 31 210 c 0,5,6
 31 269 31 269 54 326 c 128,-1,7
 77 383 77 383 117.5 427.5 c 128,-1,8
 158 472 158 472 213 499.5 c 128,-1,9
 268 527 268 527 333 527 c 0,10,11
 358 527 358 527 385.5 518 c 128,-1,12
 413 509 413 509 435 492 c 128,-1,13
 457 475 457 475 471.5 449.5 c 128,-1,14
 486 424 486 424 486 390 c 0,15,16
 486 248 486 248 224 248 c 0,17,18
 186 248 186 248 146 249 c 128,-1,19
 106 250 106 250 55 253 c 1,20,21
 52 232 52 232 52 211 c 0,22,23
 52 170 52 170 63 133.5 c 128,-1,24
 74 97 74 97 96 69.5 c 128,-1,25
 118 42 118 42 151 26 c 128,-1,26
 184 10 184 10 227 10 c 0,27,28
 254 10 254 10 283 18.5 c 128,-1,29
 312 27 312 27 339 42 c 128,-1,30
 366 57 366 57 388.5 79 c 128,-1,31
 411 101 411 101 426 128 c 1,32,-1
 445 122 l 1,33,34
 428 92 428 92 403.5 67.5 c 128,-1,35
 379 43 379 43 349.5 26 c 128,-1,36
 320 9 320 9 287 -0.5 c 128,-1,37
 254 -10 254 -10 220 -10 c 0,0,1
329 507 m 0,38,39
 280 507 280 507 236 487.5 c 128,-1,40
 192 468 192 468 156.5 435.5 c 128,-1,41
 121 403 121 403 95.5 360.5 c 128,-1,42
 70 318 70 318 59 273 c 1,43,44
 110 270 110 270 149.5 269 c 128,-1,45
 189 268 189 268 227 268 c 0,46,47
 293 268 293 268 338.5 277 c 128,-1,48
 384 286 384 286 412 302.5 c 128,-1,49
 440 319 440 319 452.5 341.5 c 128,-1,50
 465 364 465 364 465 391 c 0,51,52
 465 421 465 421 452 443 c 128,-1,53
 439 465 439 465 419 479.5 c 128,-1,54
 399 494 399 494 375 500.5 c 128,-1,55
 351 507 351 507 329 507 c 0,38,39
330 730 m 1,56,-1
 362 730 l 1,57,-1
 408 657 l 1,58,-1
 390 645 l 1,59,-1
 330 730 l 1,56,-1
EndSplineSet
EndChar

StartChar: eacute
Encoding: 233 233 172
Width: 521
GlyphClass: 2
Flags: W
LayerCount: 2
Fore
SplineSet
220 -10 m 0,0,1
 175 -10 175 -10 140 7.5 c 128,-1,2
 105 25 105 25 81 55 c 128,-1,3
 57 85 57 85 44 125 c 128,-1,4
 31 165 31 165 31 210 c 0,5,6
 31 269 31 269 54 326 c 128,-1,7
 77 383 77 383 117.5 427.5 c 128,-1,8
 158 472 158 472 213 499.5 c 128,-1,9
 268 527 268 527 333 527 c 0,10,11
 358 527 358 527 385.5 518 c 128,-1,12
 413 509 413 509 435 492 c 128,-1,13
 457 475 457 475 471.5 449.5 c 128,-1,14
 486 424 486 424 486 390 c 0,15,16
 486 248 486 248 224 248 c 0,17,18
 186 248 186 248 146 249 c 128,-1,19
 106 250 106 250 55 253 c 1,20,21
 52 232 52 232 52 211 c 0,22,23
 52 170 52 170 63 133.5 c 128,-1,24
 74 97 74 97 96 69.5 c 128,-1,25
 118 42 118 42 151 26 c 128,-1,26
 184 10 184 10 227 10 c 0,27,28
 254 10 254 10 283 18.5 c 128,-1,29
 312 27 312 27 339 42 c 128,-1,30
 366 57 366 57 388.5 79 c 128,-1,31
 411 101 411 101 426 128 c 1,32,-1
 445 122 l 1,33,34
 428 92 428 92 403.5 67.5 c 128,-1,35
 379 43 379 43 349.5 26 c 128,-1,36
 320 9 320 9 287 -0.5 c 128,-1,37
 254 -10 254 -10 220 -10 c 0,0,1
329 507 m 0,38,39
 280 507 280 507 236 487.5 c 128,-1,40
 192 468 192 468 156.5 435.5 c 128,-1,41
 121 403 121 403 95.5 360.5 c 128,-1,42
 70 318 70 318 59 273 c 1,43,44
 110 270 110 270 149.5 269 c 128,-1,45
 189 268 189 268 227 268 c 0,46,47
 293 268 293 268 338.5 277 c 128,-1,48
 384 286 384 286 412 302.5 c 128,-1,49
 440 319 440 319 452.5 341.5 c 128,-1,50
 465 364 465 364 465 391 c 0,51,52
 465 421 465 421 452 443 c 128,-1,53
 439 465 439 465 419 479.5 c 128,-1,54
 399 494 399 494 375 500.5 c 128,-1,55
 351 507 351 507 329 507 c 0,38,39
330 645 m 1,56,-1
 317 657 l 1,57,-1
 393 730 l 1,58,-1
 426 730 l 1,59,-1
 330 645 l 1,56,-1
EndSplineSet
EndChar

StartChar: ecircumflex
Encoding: 234 234 173
Width: 521
GlyphClass: 2
Flags: W
LayerCount: 2
Fore
SplineSet
220 -10 m 0,0,1
 175 -10 175 -10 140 7.5 c 128,-1,2
 105 25 105 25 81 55 c 128,-1,3
 57 85 57 85 44 125 c 128,-1,4
 31 165 31 165 31 210 c 0,5,6
 31 269 31 269 54 326 c 128,-1,7
 77 383 77 383 117.5 427.5 c 128,-1,8
 158 472 158 472 213 499.5 c 128,-1,9
 268 527 268 527 333 527 c 0,10,11
 358 527 358 527 385.5 518 c 128,-1,12
 413 509 413 509 435 492 c 128,-1,13
 457 475 457 475 471.5 449.5 c 128,-1,14
 486 424 486 424 486 390 c 0,15,16
 486 248 486 248 224 248 c 0,17,18
 186 248 186 248 146 249 c 128,-1,19
 106 250 106 250 55 253 c 1,20,21
 52 232 52 232 52 211 c 0,22,23
 52 170 52 170 63 133.5 c 128,-1,24
 74 97 74 97 96 69.5 c 128,-1,25
 118 42 118 42 151 26 c 128,-1,26
 184 10 184 10 227 10 c 0,27,28
 254 10 254 10 283 18.5 c 128,-1,29
 312 27 312 27 339 42 c 128,-1,30
 366 57 366 57 388.5 79 c 128,-1,31
 411 101 411 101 426 128 c 1,32,-1
 445 122 l 1,33,34
 428 92 428 92 403.5 67.5 c 128,-1,35
 379 43 379 43 349.5 26 c 128,-1,36
 320 9 320 9 287 -0.5 c 128,-1,37
 254 -10 254 -10 220 -10 c 0,0,1
329 507 m 0,38,39
 280 507 280 507 236 487.5 c 128,-1,40
 192 468 192 468 156.5 435.5 c 128,-1,41
 121 403 121 403 95.5 360.5 c 128,-1,42
 70 318 70 318 59 273 c 1,43,44
 110 270 110 270 149.5 269 c 128,-1,45
 189 268 189 268 227 268 c 0,46,47
 293 268 293 268 338.5 277 c 128,-1,48
 384 286 384 286 412 302.5 c 128,-1,49
 440 319 440 319 452.5 341.5 c 128,-1,50
 465 364 465 364 465 391 c 0,51,52
 465 421 465 421 452 443 c 128,-1,53
 439 465 439 465 419 479.5 c 128,-1,54
 399 494 399 494 375 500.5 c 128,-1,55
 351 507 351 507 329 507 c 0,38,39
274 656 m 1,56,-1
 378 730 l 1,57,-1
 394 730 l 1,58,-1
 467 656 l 1,59,-1
 449 644 l 1,60,-1
 381 707 l 1,61,-1
 287 644 l 1,62,-1
 274 656 l 1,56,-1
EndSplineSet
EndChar

StartChar: edieresis
Encoding: 235 235 174
Width: 521
GlyphClass: 2
Flags: W
LayerCount: 2
Fore
SplineSet
220 -10 m 0,0,1
 175 -10 175 -10 140 7.5 c 128,-1,2
 105 25 105 25 81 55 c 128,-1,3
 57 85 57 85 44 125 c 128,-1,4
 31 165 31 165 31 210 c 0,5,6
 31 269 31 269 54 326 c 128,-1,7
 77 383 77 383 117.5 427.5 c 128,-1,8
 158 472 158 472 213 499.5 c 128,-1,9
 268 527 268 527 333 527 c 0,10,11
 358 527 358 527 385.5 518 c 128,-1,12
 413 509 413 509 435 492 c 128,-1,13
 457 475 457 475 471.5 449.5 c 128,-1,14
 486 424 486 424 486 390 c 0,15,16
 486 248 486 248 224 248 c 0,17,18
 186 248 186 248 146 249 c 128,-1,19
 106 250 106 250 55 253 c 1,20,21
 52 232 52 232 52 211 c 0,22,23
 52 170 52 170 63 133.5 c 128,-1,24
 74 97 74 97 96 69.5 c 128,-1,25
 118 42 118 42 151 26 c 128,-1,26
 184 10 184 10 227 10 c 0,27,28
 254 10 254 10 283 18.5 c 128,-1,29
 312 27 312 27 339 42 c 128,-1,30
 366 57 366 57 388.5 79 c 128,-1,31
 411 101 411 101 426 128 c 1,32,-1
 445 122 l 1,33,34
 428 92 428 92 403.5 67.5 c 128,-1,35
 379 43 379 43 349.5 26 c 128,-1,36
 320 9 320 9 287 -0.5 c 128,-1,37
 254 -10 254 -10 220 -10 c 0,0,1
329 507 m 0,38,39
 280 507 280 507 236 487.5 c 128,-1,40
 192 468 192 468 156.5 435.5 c 128,-1,41
 121 403 121 403 95.5 360.5 c 128,-1,42
 70 318 70 318 59 273 c 1,43,44
 110 270 110 270 149.5 269 c 128,-1,45
 189 268 189 268 227 268 c 0,46,47
 293 268 293 268 338.5 277 c 128,-1,48
 384 286 384 286 412 302.5 c 128,-1,49
 440 319 440 319 452.5 341.5 c 128,-1,50
 465 364 465 364 465 391 c 0,51,52
 465 421 465 421 452 443 c 128,-1,53
 439 465 439 465 419 479.5 c 128,-1,54
 399 494 399 494 375 500.5 c 128,-1,55
 351 507 351 507 329 507 c 0,38,39
295 653 m 1,56,-1
 311 730 l 1,57,-1
 331 730 l 1,58,-1
 315 653 l 1,59,-1
 295 653 l 1,56,-1
406 653 m 1,60,-1
 422 730 l 1,61,-1
 442 730 l 1,62,-1
 426 653 l 1,63,-1
 406 653 l 1,60,-1
EndSplineSet
EndChar

StartChar: igrave
Encoding: 236 236 175
Width: 182
GlyphClass: 2
Flags: W
LayerCount: 2
Fore
SplineSet
127 519 m 1,0,-1
 147 519 l 1,1,-1
 37 0 l 1,2,-1
 17 0 l 1,3,-1
 127 519 l 1,0,-1
92 730 m 1,4,-1
 124 730 l 1,5,-1
 170 657 l 1,6,-1
 152 645 l 1,7,-1
 92 730 l 1,4,-1
EndSplineSet
EndChar

StartChar: iacute
Encoding: 237 237 176
Width: 182
GlyphClass: 2
Flags: W
LayerCount: 2
Fore
SplineSet
127 519 m 1,0,-1
 147 519 l 1,1,-1
 37 0 l 1,2,-1
 17 0 l 1,3,-1
 127 519 l 1,0,-1
161 645 m 1,4,-1
 148 657 l 1,5,-1
 224 730 l 1,6,-1
 257 730 l 1,7,-1
 161 645 l 1,4,-1
EndSplineSet
EndChar

StartChar: icircumflex
Encoding: 238 238 177
Width: 182
GlyphClass: 2
Flags: W
LayerCount: 2
Fore
SplineSet
127 519 m 1,0,-1
 147 519 l 1,1,-1
 37 0 l 1,2,-1
 17 0 l 1,3,-1
 127 519 l 1,0,-1
67 656 m 1,4,-1
 171 730 l 1,5,-1
 187 730 l 1,6,-1
 260 656 l 1,7,-1
 242 644 l 1,8,-1
 174 707 l 1,9,-1
 80 644 l 1,10,-1
 67 656 l 1,4,-1
EndSplineSet
EndChar

StartChar: idieresis
Encoding: 239 239 178
Width: 182
GlyphClass: 2
Flags: W
LayerCount: 2
Fore
SplineSet
127 519 m 1,0,-1
 147 519 l 1,1,-1
 37 0 l 1,2,-1
 17 0 l 1,3,-1
 127 519 l 1,0,-1
100 653 m 1,4,-1
 116 730 l 1,5,-1
 136 730 l 1,6,-1
 120 653 l 1,7,-1
 100 653 l 1,4,-1
211 653 m 1,8,-1
 227 730 l 1,9,-1
 247 730 l 1,10,-1
 231 653 l 1,11,-1
 211 653 l 1,8,-1
EndSplineSet
EndChar

StartChar: eth
Encoding: 240 240 179
Width: 568
GlyphClass: 2
Flags: W
LayerCount: 2
Fore
SplineSet
534 699 m 1,0,-1
 430 636 l 1,1,2
 484 571 484 571 504 503 c 128,-1,3
 524 435 524 435 524 369 c 0,4,5
 524 281 524 281 496.5 210.5 c 128,-1,6
 469 140 469 140 425 91 c 128,-1,7
 381 42 381 42 326 16 c 128,-1,8
 271 -10 271 -10 216 -10 c 0,9,10
 174 -10 174 -10 139 6 c 128,-1,11
 104 22 104 22 79 49 c 128,-1,12
 54 76 54 76 40.5 112.5 c 128,-1,13
 27 149 27 149 27 190 c 0,14,15
 27 247 27 247 52.5 298.5 c 128,-1,16
 78 350 78 350 119 389 c 128,-1,17
 160 428 160 428 212.5 451.5 c 128,-1,18
 265 475 265 475 319 475 c 0,19,20
 356 475 356 475 387 464.5 c 128,-1,21
 418 454 418 454 442 434.5 c 128,-1,22
 466 415 466 415 481.5 388.5 c 128,-1,23
 497 362 497 362 503 330 c 1,24,25
 506 360 506 360 506 390 c 0,26,27
 506 448 506 448 487.5 507.5 c 128,-1,28
 469 567 469 567 416 628 c 1,29,-1
 282 547 l 1,30,-1
 275 561 l 1,31,-1
 405 640 l 1,32,33
 385 663 385 663 359 685 c 128,-1,34
 333 707 333 707 301 730 c 1,35,-1
 330 730 l 1,36,37
 357 710 357 710 379 689.5 c 128,-1,38
 401 669 401 669 420 648 c 1,39,-1
 527 713 l 1,40,-1
 534 699 l 1,0,-1
47 192 m 0,41,42
 47 154 47 154 59.5 121 c 128,-1,43
 72 88 72 88 94.5 63 c 128,-1,44
 117 38 117 38 149 24 c 128,-1,45
 181 10 181 10 219 10 c 0,46,47
 269 10 269 10 317.5 33 c 128,-1,48
 366 56 366 56 404.5 93.5 c 128,-1,49
 443 131 443 131 466.5 180 c 128,-1,50
 490 229 490 229 490 280 c 0,51,52
 490 316 490 316 477 348 c 128,-1,53
 464 380 464 380 440.5 404 c 128,-1,54
 417 428 417 428 385 441.5 c 128,-1,55
 353 455 353 455 315 455 c 0,56,57
 265 455 265 455 217 433.5 c 128,-1,58
 169 412 169 412 131.5 375.5 c 128,-1,59
 94 339 94 339 70.5 291.5 c 128,-1,60
 47 244 47 244 47 192 c 0,41,42
EndSplineSet
EndChar

StartChar: ntilde
Encoding: 241 241 180
Width: 540
GlyphClass: 2
Flags: W
LayerCount: 2
Fore
SplineSet
127 519 m 1,0,-1
 147 519 l 1,1,-1
 119 385 l 1,2,3
 141 416 141 416 170 442.5 c 128,-1,4
 199 469 199 469 231.5 487.5 c 128,-1,5
 264 506 264 506 298.5 516.5 c 128,-1,6
 333 527 333 527 366 527 c 0,7,8
 422 527 422 527 449 496.5 c 128,-1,9
 476 466 476 466 476 401 c 0,10,11
 476 377 476 377 472.5 349 c 128,-1,12
 469 321 469 321 462 289 c 2,13,-1
 401 0 l 1,14,-1
 381 0 l 1,15,-1
 442 289 l 2,16,17
 455 350 455 350 455 396 c 0,18,19
 455 453 455 453 432.5 480 c 128,-1,20
 410 507 410 507 362 507 c 0,21,22
 327 507 327 507 289.5 493.5 c 128,-1,23
 252 480 252 480 217.5 456 c 128,-1,24
 183 432 183 432 154 399 c 128,-1,25
 125 366 125 366 107 328 c 1,26,-1
 37 0 l 1,27,-1
 17 0 l 1,28,-1
 127 519 l 1,0,-1
414 663 m 0,29,30
 393 663 393 663 378.5 669 c 128,-1,31
 364 675 364 675 352 682 c 128,-1,32
 340 689 340 689 329 695 c 128,-1,33
 318 701 318 701 303 701 c 256,34,35
 288 701 288 701 277 694.5 c 128,-1,36
 266 688 266 688 259 679.5 c 128,-1,37
 252 671 252 671 248.5 663 c 128,-1,38
 245 655 245 655 244 653 c 2,39,-1
 225 653 l 2,40,41
 225 655 225 655 229.5 666 c 128,-1,42
 234 677 234 677 243.5 689 c 128,-1,43
 253 701 253 701 269 710.5 c 128,-1,44
 285 720 285 720 309 720 c 0,45,46
 327 720 327 720 340 714 c 128,-1,47
 353 708 353 708 364.5 701 c 128,-1,48
 376 694 376 694 389 688 c 128,-1,49
 402 682 402 682 420 682 c 0,50,51
 439 682 439 682 452 689 c 128,-1,52
 465 696 465 696 472.5 704.5 c 128,-1,53
 480 713 480 713 483 720.5 c 128,-1,54
 486 728 486 728 486 730 c 2,55,-1
 505 730 l 2,56,57
 504 727 504 727 499.5 716 c 128,-1,58
 495 705 495 705 484.5 693 c 128,-1,59
 474 681 474 681 457 672 c 128,-1,60
 440 663 440 663 414 663 c 0,29,30
EndSplineSet
EndChar

StartChar: ograve
Encoding: 242 242 181
Width: 561
GlyphClass: 2
Flags: W
LayerCount: 2
Fore
SplineSet
215 -10 m 0,0,1
 173 -10 173 -10 139 7 c 128,-1,2
 105 24 105 24 80.5 53.5 c 128,-1,3
 56 83 56 83 43 122.5 c 128,-1,4
 30 162 30 162 30 207 c 0,5,6
 30 270 30 270 56 328 c 128,-1,7
 82 386 82 386 124.5 430.5 c 128,-1,8
 167 475 167 475 220.5 501 c 128,-1,9
 274 527 274 527 329 527 c 0,10,11
 370 527 370 527 404 510 c 128,-1,12
 438 493 438 493 462 463 c 128,-1,13
 486 433 486 433 499.5 393 c 128,-1,14
 513 353 513 353 513 308 c 0,15,16
 513 246 513 246 487 188.5 c 128,-1,17
 461 131 461 131 419 87 c 128,-1,18
 377 43 377 43 323.5 16.5 c 128,-1,19
 270 -10 270 -10 215 -10 c 0,0,1
218 10 m 0,20,21
 268 10 268 10 317.5 34.5 c 128,-1,22
 367 59 367 59 406 99.5 c 128,-1,23
 445 140 445 140 469 193.5 c 128,-1,24
 493 247 493 247 493 305 c 0,25,26
 493 347 493 347 480.5 383.5 c 128,-1,27
 468 420 468 420 446 447.5 c 128,-1,28
 424 475 424 475 393 491 c 128,-1,29
 362 507 362 507 325 507 c 0,30,31
 275 507 275 507 226 482.5 c 128,-1,32
 177 458 177 458 138 416.5 c 128,-1,33
 99 375 99 375 74.5 321 c 128,-1,34
 50 267 50 267 50 209 c 0,35,36
 50 168 50 168 62 131.5 c 128,-1,37
 74 95 74 95 96.5 68 c 128,-1,38
 119 41 119 41 149.5 25.5 c 128,-1,39
 180 10 180 10 218 10 c 0,20,21
324 730 m 1,40,-1
 356 730 l 1,41,-1
 402 657 l 1,42,-1
 384 645 l 1,43,-1
 324 730 l 1,40,-1
EndSplineSet
EndChar

StartChar: oacute
Encoding: 243 243 182
Width: 561
GlyphClass: 2
Flags: W
LayerCount: 2
Fore
SplineSet
215 -10 m 0,0,1
 173 -10 173 -10 139 7 c 128,-1,2
 105 24 105 24 80.5 53.5 c 128,-1,3
 56 83 56 83 43 122.5 c 128,-1,4
 30 162 30 162 30 207 c 0,5,6
 30 270 30 270 56 328 c 128,-1,7
 82 386 82 386 124.5 430.5 c 128,-1,8
 167 475 167 475 220.5 501 c 128,-1,9
 274 527 274 527 329 527 c 0,10,11
 370 527 370 527 404 510 c 128,-1,12
 438 493 438 493 462 463 c 128,-1,13
 486 433 486 433 499.5 393 c 128,-1,14
 513 353 513 353 513 308 c 0,15,16
 513 246 513 246 487 188.5 c 128,-1,17
 461 131 461 131 419 87 c 128,-1,18
 377 43 377 43 323.5 16.5 c 128,-1,19
 270 -10 270 -10 215 -10 c 0,0,1
218 10 m 0,20,21
 268 10 268 10 317.5 34.5 c 128,-1,22
 367 59 367 59 406 99.5 c 128,-1,23
 445 140 445 140 469 193.5 c 128,-1,24
 493 247 493 247 493 305 c 0,25,26
 493 347 493 347 480.5 383.5 c 128,-1,27
 468 420 468 420 446 447.5 c 128,-1,28
 424 475 424 475 393 491 c 128,-1,29
 362 507 362 507 325 507 c 0,30,31
 275 507 275 507 226 482.5 c 128,-1,32
 177 458 177 458 138 416.5 c 128,-1,33
 99 375 99 375 74.5 321 c 128,-1,34
 50 267 50 267 50 209 c 0,35,36
 50 168 50 168 62 131.5 c 128,-1,37
 74 95 74 95 96.5 68 c 128,-1,38
 119 41 119 41 149.5 25.5 c 128,-1,39
 180 10 180 10 218 10 c 0,20,21
351 645 m 1,40,-1
 338 657 l 1,41,-1
 414 730 l 1,42,-1
 447 730 l 1,43,-1
 351 645 l 1,40,-1
EndSplineSet
EndChar

StartChar: ocircumflex
Encoding: 244 244 183
Width: 561
GlyphClass: 2
Flags: W
LayerCount: 2
Fore
SplineSet
215 -10 m 0,0,1
 173 -10 173 -10 139 7 c 128,-1,2
 105 24 105 24 80.5 53.5 c 128,-1,3
 56 83 56 83 43 122.5 c 128,-1,4
 30 162 30 162 30 207 c 0,5,6
 30 270 30 270 56 328 c 128,-1,7
 82 386 82 386 124.5 430.5 c 128,-1,8
 167 475 167 475 220.5 501 c 128,-1,9
 274 527 274 527 329 527 c 0,10,11
 370 527 370 527 404 510 c 128,-1,12
 438 493 438 493 462 463 c 128,-1,13
 486 433 486 433 499.5 393 c 128,-1,14
 513 353 513 353 513 308 c 0,15,16
 513 246 513 246 487 188.5 c 128,-1,17
 461 131 461 131 419 87 c 128,-1,18
 377 43 377 43 323.5 16.5 c 128,-1,19
 270 -10 270 -10 215 -10 c 0,0,1
218 10 m 0,20,21
 268 10 268 10 317.5 34.5 c 128,-1,22
 367 59 367 59 406 99.5 c 128,-1,23
 445 140 445 140 469 193.5 c 128,-1,24
 493 247 493 247 493 305 c 0,25,26
 493 347 493 347 480.5 383.5 c 128,-1,27
 468 420 468 420 446 447.5 c 128,-1,28
 424 475 424 475 393 491 c 128,-1,29
 362 507 362 507 325 507 c 0,30,31
 275 507 275 507 226 482.5 c 128,-1,32
 177 458 177 458 138 416.5 c 128,-1,33
 99 375 99 375 74.5 321 c 128,-1,34
 50 267 50 267 50 209 c 0,35,36
 50 168 50 168 62 131.5 c 128,-1,37
 74 95 74 95 96.5 68 c 128,-1,38
 119 41 119 41 149.5 25.5 c 128,-1,39
 180 10 180 10 218 10 c 0,20,21
264 656 m 1,40,-1
 368 730 l 1,41,-1
 384 730 l 1,42,-1
 457 656 l 1,43,-1
 439 644 l 1,44,-1
 371 707 l 1,45,-1
 277 644 l 1,46,-1
 264 656 l 1,40,-1
EndSplineSet
EndChar

StartChar: otilde
Encoding: 245 245 184
Width: 561
GlyphClass: 2
Flags: W
LayerCount: 2
Fore
SplineSet
215 -10 m 0,0,1
 173 -10 173 -10 139 7 c 128,-1,2
 105 24 105 24 80.5 53.5 c 128,-1,3
 56 83 56 83 43 122.5 c 128,-1,4
 30 162 30 162 30 207 c 0,5,6
 30 270 30 270 56 328 c 128,-1,7
 82 386 82 386 124.5 430.5 c 128,-1,8
 167 475 167 475 220.5 501 c 128,-1,9
 274 527 274 527 329 527 c 0,10,11
 370 527 370 527 404 510 c 128,-1,12
 438 493 438 493 462 463 c 128,-1,13
 486 433 486 433 499.5 393 c 128,-1,14
 513 353 513 353 513 308 c 0,15,16
 513 246 513 246 487 188.5 c 128,-1,17
 461 131 461 131 419 87 c 128,-1,18
 377 43 377 43 323.5 16.5 c 128,-1,19
 270 -10 270 -10 215 -10 c 0,0,1
218 10 m 0,20,21
 268 10 268 10 317.5 34.5 c 128,-1,22
 367 59 367 59 406 99.5 c 128,-1,23
 445 140 445 140 469 193.5 c 128,-1,24
 493 247 493 247 493 305 c 0,25,26
 493 347 493 347 480.5 383.5 c 128,-1,27
 468 420 468 420 446 447.5 c 128,-1,28
 424 475 424 475 393 491 c 128,-1,29
 362 507 362 507 325 507 c 0,30,31
 275 507 275 507 226 482.5 c 128,-1,32
 177 458 177 458 138 416.5 c 128,-1,33
 99 375 99 375 74.5 321 c 128,-1,34
 50 267 50 267 50 209 c 0,35,36
 50 168 50 168 62 131.5 c 128,-1,37
 74 95 74 95 96.5 68 c 128,-1,38
 119 41 119 41 149.5 25.5 c 128,-1,39
 180 10 180 10 218 10 c 0,20,21
412 663 m 0,40,41
 391 663 391 663 376.5 669 c 128,-1,42
 362 675 362 675 350 682 c 128,-1,43
 338 689 338 689 327 695 c 128,-1,44
 316 701 316 701 301 701 c 256,45,46
 286 701 286 701 275 694.5 c 128,-1,47
 264 688 264 688 257 679.5 c 128,-1,48
 250 671 250 671 246.5 663 c 128,-1,49
 243 655 243 655 242 653 c 2,50,-1
 223 653 l 2,51,52
 223 655 223 655 227.5 666 c 128,-1,53
 232 677 232 677 241.5 689 c 128,-1,54
 251 701 251 701 267 710.5 c 128,-1,55
 283 720 283 720 307 720 c 0,56,57
 325 720 325 720 338 714 c 128,-1,58
 351 708 351 708 362.5 701 c 128,-1,59
 374 694 374 694 387 688 c 128,-1,60
 400 682 400 682 418 682 c 0,61,62
 437 682 437 682 450 689 c 128,-1,63
 463 696 463 696 470.5 704.5 c 128,-1,64
 478 713 478 713 481 720.5 c 128,-1,65
 484 728 484 728 484 730 c 2,66,-1
 503 730 l 2,67,68
 502 727 502 727 497.5 716 c 128,-1,69
 493 705 493 705 482.5 693 c 128,-1,70
 472 681 472 681 455 672 c 128,-1,71
 438 663 438 663 412 663 c 0,40,41
EndSplineSet
EndChar

StartChar: odieresis
Encoding: 246 246 185
Width: 561
GlyphClass: 2
Flags: W
LayerCount: 2
Fore
SplineSet
215 -10 m 0,0,1
 173 -10 173 -10 139 7 c 128,-1,2
 105 24 105 24 80.5 53.5 c 128,-1,3
 56 83 56 83 43 122.5 c 128,-1,4
 30 162 30 162 30 207 c 0,5,6
 30 270 30 270 56 328 c 128,-1,7
 82 386 82 386 124.5 430.5 c 128,-1,8
 167 475 167 475 220.5 501 c 128,-1,9
 274 527 274 527 329 527 c 0,10,11
 370 527 370 527 404 510 c 128,-1,12
 438 493 438 493 462 463 c 128,-1,13
 486 433 486 433 499.5 393 c 128,-1,14
 513 353 513 353 513 308 c 0,15,16
 513 246 513 246 487 188.5 c 128,-1,17
 461 131 461 131 419 87 c 128,-1,18
 377 43 377 43 323.5 16.5 c 128,-1,19
 270 -10 270 -10 215 -10 c 0,0,1
218 10 m 0,20,21
 268 10 268 10 317.5 34.5 c 128,-1,22
 367 59 367 59 406 99.5 c 128,-1,23
 445 140 445 140 469 193.5 c 128,-1,24
 493 247 493 247 493 305 c 0,25,26
 493 347 493 347 480.5 383.5 c 128,-1,27
 468 420 468 420 446 447.5 c 128,-1,28
 424 475 424 475 393 491 c 128,-1,29
 362 507 362 507 325 507 c 0,30,31
 275 507 275 507 226 482.5 c 128,-1,32
 177 458 177 458 138 416.5 c 128,-1,33
 99 375 99 375 74.5 321 c 128,-1,34
 50 267 50 267 50 209 c 0,35,36
 50 168 50 168 62 131.5 c 128,-1,37
 74 95 74 95 96.5 68 c 128,-1,38
 119 41 119 41 149.5 25.5 c 128,-1,39
 180 10 180 10 218 10 c 0,20,21
287 653 m 1,40,-1
 303 730 l 1,41,-1
 323 730 l 1,42,-1
 307 653 l 1,43,-1
 287 653 l 1,40,-1
398 653 m 1,44,-1
 414 730 l 1,45,-1
 434 730 l 1,46,-1
 418 653 l 1,47,-1
 398 653 l 1,44,-1
EndSplineSet
EndChar

StartChar: divide
Encoding: 247 247 186
Width: 548
GlyphClass: 2
Flags: W
LayerCount: 2
Fore
SplineSet
257 385 m 1,0,-1
 257 449 l 1,1,-1
 277 449 l 1,2,-1
 277 385 l 1,3,-1
 257 385 l 1,0,-1
257 92 m 1,4,-1
 257 156 l 1,5,-1
 277 156 l 1,6,-1
 277 92 l 1,7,-1
 257 92 l 1,4,-1
66 261 m 1,8,-1
 66 281 l 1,9,-1
 469 281 l 1,10,-1
 469 261 l 1,11,-1
 66 261 l 1,8,-1
EndSplineSet
EndChar

StartChar: oslash
Encoding: 248 248 187
Width: 561
GlyphClass: 2
Flags: W
LayerCount: 2
Fore
SplineSet
89 44 m 1,0,1
 61 74 61 74 45.5 116 c 128,-1,2
 30 158 30 158 30 207 c 0,3,4
 30 270 30 270 56 328 c 128,-1,5
 82 386 82 386 124.5 430.5 c 128,-1,6
 167 475 167 475 220.5 501 c 128,-1,7
 274 527 274 527 329 527 c 0,8,9
 361 527 361 527 389 516 c 128,-1,10
 417 505 417 505 440 485 c 1,11,-1
 467 519 l 1,12,-1
 492 519 l 1,13,-1
 454 471 l 1,14,15
 482 441 482 441 497.5 399 c 128,-1,16
 513 357 513 357 513 308 c 0,17,18
 513 246 513 246 487 188.5 c 128,-1,19
 461 131 461 131 419 87 c 128,-1,20
 377 43 377 43 323.5 16.5 c 128,-1,21
 270 -10 270 -10 215 -10 c 0,22,23
 182 -10 182 -10 154 0.5 c 128,-1,24
 126 11 126 11 103 30 c 1,25,-1
 79 0 l 1,26,-1
 55 0 l 1,27,-1
 89 44 l 1,0,1
50 209 m 0,28,29
 50 164 50 164 63.5 126 c 128,-1,30
 77 88 77 88 103 60 c 1,31,-1
 426 468 l 1,32,33
 384 507 384 507 325 507 c 0,34,35
 275 507 275 507 225.5 482.5 c 128,-1,36
 176 458 176 458 137 416.5 c 128,-1,37
 98 375 98 375 74 321 c 128,-1,38
 50 267 50 267 50 209 c 0,28,29
218 10 m 0,39,40
 268 10 268 10 317.5 34.5 c 128,-1,41
 367 59 367 59 406 99.5 c 128,-1,42
 445 140 445 140 469 193.5 c 128,-1,43
 493 247 493 247 493 305 c 0,44,45
 493 350 493 350 479 388 c 128,-1,46
 465 426 465 426 440 454 c 1,47,-1
 116 47 l 1,48,49
 137 30 137 30 162.5 20 c 128,-1,50
 188 10 188 10 218 10 c 0,39,40
EndSplineSet
EndChar

StartChar: ugrave
Encoding: 249 249 188
Width: 551
GlyphClass: 2
Flags: W
LayerCount: 2
Fore
SplineSet
167 -10 m 0,0,1
 47 -10 47 -10 47 129 c 0,2,3
 47 172 47 172 59 228 c 2,4,-1
 121 519 l 1,5,-1
 141 519 l 1,6,-1
 79 228 l 2,7,8
 67 172 67 172 67 131 c 0,9,10
 67 10 67 10 172 10 c 0,11,12
 208 10 208 10 244.5 23.5 c 128,-1,13
 281 37 281 37 314.5 60.5 c 128,-1,14
 348 84 348 84 376.5 117 c 128,-1,15
 405 150 405 150 424 189 c 1,16,-1
 494 519 l 1,17,-1
 514 519 l 1,18,-1
 418 67 l 2,19,20
 416 56 416 56 413.5 46 c 128,-1,21
 411 36 411 36 411 34 c 0,22,23
 411 20 411 20 424 20 c 1,24,-1
 419 0 l 1,25,26
 392 0 392 0 392 30 c 0,27,28
 392 31 392 31 392.5 35 c 128,-1,29
 393 39 393 39 395 49.5 c 128,-1,30
 397 60 397 60 401 79.5 c 128,-1,31
 405 99 405 99 412 132 c 1,32,33
 389 99 389 99 360.5 73 c 128,-1,34
 332 47 332 47 300 28.5 c 128,-1,35
 268 10 268 10 234 0 c 128,-1,36
 200 -10 200 -10 167 -10 c 0,0,1
275 730 m 1,37,-1
 307 730 l 1,38,-1
 353 657 l 1,39,-1
 335 645 l 1,40,-1
 275 730 l 1,37,-1
EndSplineSet
EndChar

StartChar: uacute
Encoding: 250 250 189
Width: 551
GlyphClass: 2
Flags: W
LayerCount: 2
Fore
SplineSet
167 -10 m 0,0,1
 47 -10 47 -10 47 129 c 0,2,3
 47 172 47 172 59 228 c 2,4,-1
 121 519 l 1,5,-1
 141 519 l 1,6,-1
 79 228 l 2,7,8
 67 172 67 172 67 131 c 0,9,10
 67 10 67 10 172 10 c 0,11,12
 208 10 208 10 244.5 23.5 c 128,-1,13
 281 37 281 37 314.5 60.5 c 128,-1,14
 348 84 348 84 376.5 117 c 128,-1,15
 405 150 405 150 424 189 c 1,16,-1
 494 519 l 1,17,-1
 514 519 l 1,18,-1
 418 67 l 2,19,20
 416 56 416 56 413.5 46 c 128,-1,21
 411 36 411 36 411 34 c 0,22,23
 411 20 411 20 424 20 c 1,24,-1
 419 0 l 1,25,26
 413 0 413 0 407 2 c 0,27,28
 392 8 392 8 392 29 c 0,29,30
 392 30 392 30 392.5 33 c 128,-1,31
 393 36 393 36 394.5 46 c 128,-1,32
 396 56 396 56 400 76 c 128,-1,33
 404 96 404 96 412 132 c 1,34,35
 389 99 389 99 360.5 73 c 128,-1,36
 332 47 332 47 300 28.5 c 128,-1,37
 268 10 268 10 234 0 c 128,-1,38
 200 -10 200 -10 167 -10 c 0,0,1
315 645 m 1,39,-1
 302 657 l 1,40,-1
 378 730 l 1,41,-1
 411 730 l 1,42,-1
 315 645 l 1,39,-1
EndSplineSet
EndChar

StartChar: ucircumflex
Encoding: 251 251 190
Width: 551
GlyphClass: 2
Flags: W
LayerCount: 2
Fore
SplineSet
167 -10 m 0,0,1
 47 -10 47 -10 47 129 c 0,2,3
 47 172 47 172 59 228 c 2,4,-1
 121 519 l 1,5,-1
 141 519 l 1,6,-1
 79 228 l 2,7,8
 67 172 67 172 67 131 c 0,9,10
 67 10 67 10 172 10 c 0,11,12
 208 10 208 10 244.5 23.5 c 128,-1,13
 281 37 281 37 314.5 60.5 c 128,-1,14
 348 84 348 84 376.5 117 c 128,-1,15
 405 150 405 150 424 189 c 1,16,-1
 494 519 l 1,17,-1
 514 519 l 1,18,-1
 418 67 l 2,19,20
 416 56 416 56 413.5 46 c 128,-1,21
 411 36 411 36 411 34 c 0,22,23
 411 20 411 20 424 20 c 1,24,-1
 419 0 l 1,25,26
 413 0 413 0 407 2 c 0,27,28
 392 8 392 8 392 29 c 0,29,30
 392 30 392 30 392.5 33 c 128,-1,31
 393 36 393 36 394.5 46 c 128,-1,32
 396 56 396 56 400 76 c 128,-1,33
 404 96 404 96 412 132 c 1,34,35
 389 99 389 99 360.5 73 c 128,-1,36
 332 47 332 47 300 28.5 c 128,-1,37
 268 10 268 10 234 0 c 128,-1,38
 200 -10 200 -10 167 -10 c 0,0,1
245 656 m 1,39,-1
 349 730 l 1,40,-1
 365 730 l 1,41,-1
 438 656 l 1,42,-1
 420 644 l 1,43,-1
 352 707 l 1,44,-1
 258 644 l 1,45,-1
 245 656 l 1,39,-1
EndSplineSet
EndChar

StartChar: udieresis
Encoding: 252 252 191
Width: 551
GlyphClass: 2
Flags: W
LayerCount: 2
Fore
SplineSet
167 -10 m 0,0,1
 47 -10 47 -10 47 129 c 0,2,3
 47 172 47 172 59 228 c 2,4,-1
 121 519 l 1,5,-1
 141 519 l 1,6,-1
 79 228 l 2,7,8
 67 172 67 172 67 131 c 0,9,10
 67 10 67 10 172 10 c 0,11,12
 208 10 208 10 244.5 23.5 c 128,-1,13
 281 37 281 37 314.5 60.5 c 128,-1,14
 348 84 348 84 376.5 117 c 128,-1,15
 405 150 405 150 424 189 c 1,16,-1
 494 519 l 1,17,-1
 514 519 l 1,18,-1
 418 67 l 2,19,20
 416 56 416 56 413.5 46 c 128,-1,21
 411 36 411 36 411 34 c 0,22,23
 411 20 411 20 424 20 c 1,24,-1
 419 0 l 1,25,26
 413 0 413 0 407 2 c 0,27,28
 392 8 392 8 392 29 c 0,29,30
 392 30 392 30 392.5 33 c 128,-1,31
 393 36 393 36 394.5 46 c 128,-1,32
 396 56 396 56 400 76 c 128,-1,33
 404 96 404 96 412 132 c 1,34,35
 389 99 389 99 360.5 73 c 128,-1,36
 332 47 332 47 300 28.5 c 128,-1,37
 268 10 268 10 234 0 c 128,-1,38
 200 -10 200 -10 167 -10 c 0,0,1
274 653 m 1,39,-1
 290 730 l 1,40,-1
 310 730 l 1,41,-1
 294 653 l 1,42,-1
 274 653 l 1,39,-1
385 653 m 1,43,-1
 401 730 l 1,44,-1
 421 730 l 1,45,-1
 405 653 l 1,46,-1
 385 653 l 1,43,-1
EndSplineSet
EndChar

StartChar: yacute
Encoding: 253 253 192
Width: 460
GlyphClass: 2
Flags: W
LayerCount: 2
Fore
SplineSet
-37 -207 m 1,0,1
 -7 -201 -7 -201 14.5 -191 c 128,-1,2
 36 -181 36 -181 54 -164.5 c 128,-1,3
 72 -148 72 -148 89.5 -123 c 128,-1,4
 107 -98 107 -98 130 -63 c 2,5,-1
 171 0 l 1,6,-1
 52 519 l 1,7,-1
 74 519 l 1,8,-1
 186 25 l 1,9,-1
 244 117 l 2,10,11
 291 192 291 192 323.5 247 c 128,-1,12
 356 302 356 302 378.5 347.5 c 128,-1,13
 401 393 401 393 416.5 433.5 c 128,-1,14
 432 474 432 474 445 519 c 1,15,-1
 466 519 l 1,16,17
 452 471 452 471 437 429.5 c 128,-1,18
 422 388 422 388 399 342 c 128,-1,19
 376 296 376 296 342.5 239 c 128,-1,20
 309 182 309 182 259 103 c 2,21,-1
 177 -26 l 2,22,23
 141 -82 141 -82 115.5 -118.5 c 128,-1,24
 90 -155 90 -155 66.5 -176.5 c 128,-1,25
 43 -198 43 -198 19.5 -208.5 c 128,-1,26
 -4 -219 -4 -219 -35 -224 c 1,27,-1
 -37 -207 l 1,0,1
276 645 m 1,28,-1
 263 657 l 1,29,-1
 339 730 l 1,30,-1
 372 730 l 1,31,-1
 276 645 l 1,28,-1
EndSplineSet
EndChar

StartChar: thorn
Encoding: 254 254 193
Width: 576
GlyphClass: 2
Flags: W
LayerCount: 2
Fore
SplineSet
168 710 m 1,0,-1
 188 710 l 1,1,-1
 122 398 l 1,2,3
 172 455 172 455 228.5 491 c 128,-1,4
 285 527 285 527 351 527 c 0,5,6
 396 527 396 527 429 509.5 c 128,-1,7
 462 492 462 492 484.5 463.5 c 128,-1,8
 507 435 507 435 518 398 c 128,-1,9
 529 361 529 361 529 321 c 0,10,11
 529 264 529 264 507.5 205 c 128,-1,12
 486 146 486 146 447 98 c 128,-1,13
 408 50 408 50 354 20 c 128,-1,14
 300 -10 300 -10 236 -10 c 0,15,16
 168 -10 168 -10 124.5 23 c 128,-1,17
 81 56 81 56 60 108 c 1,18,-1
 -8 -213 l 1,19,-1
 -28 -213 l 1,20,-1
 168 710 l 1,0,-1
243 10 m 0,21,22
 292 10 292 10 339.5 34 c 128,-1,23
 387 58 387 58 424.5 100 c 128,-1,24
 462 142 462 142 485 197.5 c 128,-1,25
 508 253 508 253 508 316 c 0,26,27
 508 357 508 357 497.5 392 c 128,-1,28
 487 427 487 427 466.5 452.5 c 128,-1,29
 446 478 446 478 416 492.5 c 128,-1,30
 386 507 386 507 347 507 c 0,31,32
 312 507 312 507 279 495 c 128,-1,33
 246 483 246 483 216.5 462.5 c 128,-1,34
 187 442 187 442 160.5 414.5 c 128,-1,35
 134 387 134 387 113 356 c 1,36,-1
 73 169 l 2,37,38
 71 163 71 163 71 159.5 c 128,-1,39
 71 156 71 156 71 154 c 0,40,41
 71 124 71 124 85.5 97.5 c 128,-1,42
 100 71 100 71 124 51.5 c 128,-1,43
 148 32 148 32 179 21 c 128,-1,44
 210 10 210 10 243 10 c 0,21,22
EndSplineSet
EndChar

StartChar: ydieresis
Encoding: 255 255 194
Width: 460
GlyphClass: 2
Flags: W
LayerCount: 2
Fore
SplineSet
-37 -207 m 1,0,1
 -7 -201 -7 -201 14.5 -191 c 128,-1,2
 36 -181 36 -181 54 -164.5 c 128,-1,3
 72 -148 72 -148 89.5 -123 c 128,-1,4
 107 -98 107 -98 130 -63 c 2,5,-1
 171 0 l 1,6,-1
 52 519 l 1,7,-1
 74 519 l 1,8,-1
 186 25 l 1,9,-1
 244 117 l 2,10,11
 291 192 291 192 323.5 247 c 128,-1,12
 356 302 356 302 378.5 347.5 c 128,-1,13
 401 393 401 393 416.5 433.5 c 128,-1,14
 432 474 432 474 445 519 c 1,15,-1
 466 519 l 1,16,17
 452 471 452 471 437 429.5 c 128,-1,18
 422 388 422 388 399 342 c 128,-1,19
 376 296 376 296 342.5 239 c 128,-1,20
 309 182 309 182 259 103 c 2,21,-1
 177 -26 l 2,22,23
 141 -82 141 -82 115.5 -118.5 c 128,-1,24
 90 -155 90 -155 66.5 -176.5 c 128,-1,25
 43 -198 43 -198 19.5 -208.5 c 128,-1,26
 -4 -219 -4 -219 -35 -224 c 1,27,-1
 -37 -207 l 1,0,1
228 653 m 1,28,-1
 244 730 l 1,29,-1
 264 730 l 1,30,-1
 248 653 l 1,31,-1
 228 653 l 1,28,-1
339 653 m 1,32,-1
 355 730 l 1,33,-1
 375 730 l 1,34,-1
 359 653 l 1,35,-1
 339 653 l 1,32,-1
EndSplineSet
EndChar

StartChar: Amacron
Encoding: 256 256 195
Width: 647
GlyphClass: 2
Flags: W
LayerCount: 2
Fore
SplineSet
406 710 m 1,0,-1
 424 710 l 1,1,-1
 566 0 l 1,2,-1
 544 0 l 1,3,-1
 493 254 l 1,4,-1
 142 254 l 1,5,-1
 -17 0 l 1,6,-1
 -39 0 l 1,7,-1
 406 710 l 1,0,-1
489 274 m 1,8,-1
 409 681 l 1,9,-1
 154 274 l 1,10,-1
 489 274 l 1,8,-1
313 874 m 1,11,-1
 317 894 l 1,12,-1
 583 894 l 1,13,-1
 579 874 l 1,14,-1
 313 874 l 1,11,-1
EndSplineSet
EndChar

StartChar: amacron
Encoding: 257 257 196
Width: 580
GlyphClass: 2
Flags: W
LayerCount: 2
Fore
SplineSet
216 -10 m 0,0,1
 173 -10 173 -10 138.5 8.5 c 128,-1,2
 104 27 104 27 80 57.5 c 128,-1,3
 56 88 56 88 43.5 128 c 128,-1,4
 31 168 31 168 31 210 c 0,5,6
 31 270 31 270 55 327 c 128,-1,7
 79 384 79 384 119.5 428.5 c 128,-1,8
 160 473 160 473 212.5 500 c 128,-1,9
 265 527 265 527 321 527 c 0,10,11
 356 527 356 527 384.5 516.5 c 128,-1,12
 413 506 413 506 434.5 488.5 c 128,-1,13
 456 471 456 471 472 447.5 c 128,-1,14
 488 424 488 424 497 398 c 1,15,-1
 523 519 l 1,16,-1
 544 519 l 1,17,-1
 442 44 l 2,18,19
 440 38 440 38 440 32 c 0,20,21
 440 20 440 20 452 20 c 1,22,-1
 448 0 l 1,23,24
 442 0 442 0 439 1 c 0,25,26
 420 7 420 7 420 29 c 0,27,28
 420 31 420 31 420.5 34 c 128,-1,29
 421 37 421 37 422.5 44.5 c 128,-1,30
 424 52 424 52 427 67 c 128,-1,31
 430 82 430 82 435 108 c 1,32,33
 414 82 414 82 388 60.5 c 128,-1,34
 362 39 362 39 333.5 23 c 128,-1,35
 305 7 305 7 275 -1.5 c 128,-1,36
 245 -10 245 -10 216 -10 c 0,0,1
218 10 m 0,37,38
 250 10 250 10 286.5 23 c 128,-1,39
 323 36 323 36 356 58 c 128,-1,40
 389 80 389 80 414 108.5 c 128,-1,41
 439 137 439 137 448 169 c 2,42,-1
 488 356 l 1,43,44
 484 386 484 386 469.5 413 c 128,-1,45
 455 440 455 440 432 461 c 128,-1,46
 409 482 409 482 378.5 494.5 c 128,-1,47
 348 507 348 507 313 507 c 0,48,49
 261 507 261 507 213.5 480.5 c 128,-1,50
 166 454 166 454 130 411 c 128,-1,51
 94 368 94 368 72.5 315 c 128,-1,52
 51 262 51 262 51 210 c 0,53,54
 51 170 51 170 63.5 134 c 128,-1,55
 76 98 76 98 98.5 70.5 c 128,-1,56
 121 43 121 43 151.5 26.5 c 128,-1,57
 182 10 182 10 218 10 c 0,37,38
236 686 m 1,58,-1
 240 706 l 1,59,-1
 506 706 l 1,60,-1
 502 686 l 1,61,-1
 236 686 l 1,58,-1
EndSplineSet
EndChar

StartChar: Abreve
Encoding: 258 258 197
Width: 647
GlyphClass: 2
Flags: W
LayerCount: 2
Fore
SplineSet
406 710 m 1,0,-1
 424 710 l 1,1,-1
 566 0 l 1,2,-1
 544 0 l 1,3,-1
 493 254 l 1,4,-1
 142 254 l 1,5,-1
 -17 0 l 1,6,-1
 -39 0 l 1,7,-1
 406 710 l 1,0,-1
489 274 m 1,8,-1
 409 681 l 1,9,-1
 154 274 l 1,10,-1
 489 274 l 1,8,-1
438 858 m 0,11,12
 458 858 458 858 477 875.5 c 128,-1,13
 496 893 496 893 504 918 c 1,14,-1
 522 918 l 1,15,16
 519 903 519 903 510 889 c 128,-1,17
 501 875 501 875 489 864.5 c 128,-1,18
 477 854 477 854 463 847.5 c 128,-1,19
 449 841 449 841 435 841 c 0,20,21
 410 841 410 841 394 859 c 128,-1,22
 378 877 378 877 378 903 c 0,23,24
 378 908 378 908 380 918 c 1,25,-1
 399 918 l 1,26,27
 398 914 398 914 398 907 c 0,28,29
 398 887 398 887 409.5 872.5 c 128,-1,30
 421 858 421 858 438 858 c 0,11,12
EndSplineSet
EndChar

StartChar: abreve
Encoding: 259 259 198
Width: 580
GlyphClass: 2
Flags: W
LayerCount: 2
Fore
SplineSet
216 -10 m 0,0,1
 173 -10 173 -10 138.5 8.5 c 128,-1,2
 104 27 104 27 80 57.5 c 128,-1,3
 56 88 56 88 43.5 128 c 128,-1,4
 31 168 31 168 31 210 c 0,5,6
 31 270 31 270 55 327 c 128,-1,7
 79 384 79 384 119.5 428.5 c 128,-1,8
 160 473 160 473 212.5 500 c 128,-1,9
 265 527 265 527 321 527 c 0,10,11
 356 527 356 527 384.5 516.5 c 128,-1,12
 413 506 413 506 434.5 488.5 c 128,-1,13
 456 471 456 471 472 447.5 c 128,-1,14
 488 424 488 424 497 398 c 1,15,-1
 523 519 l 1,16,-1
 544 519 l 1,17,-1
 442 44 l 2,18,19
 440 38 440 38 440 32 c 0,20,21
 440 20 440 20 452 20 c 1,22,-1
 448 0 l 1,23,24
 442 0 442 0 439 1 c 0,25,26
 420 7 420 7 420 29 c 0,27,28
 420 31 420 31 420.5 34 c 128,-1,29
 421 37 421 37 422.5 44.5 c 128,-1,30
 424 52 424 52 427 67 c 128,-1,31
 430 82 430 82 435 108 c 1,32,33
 414 82 414 82 388 60.5 c 128,-1,34
 362 39 362 39 333.5 23 c 128,-1,35
 305 7 305 7 275 -1.5 c 128,-1,36
 245 -10 245 -10 216 -10 c 0,0,1
218 10 m 0,37,38
 250 10 250 10 286.5 23 c 128,-1,39
 323 36 323 36 356 58 c 128,-1,40
 389 80 389 80 414 108.5 c 128,-1,41
 439 137 439 137 448 169 c 2,42,-1
 488 356 l 1,43,44
 484 386 484 386 469.5 413 c 128,-1,45
 455 440 455 440 432 461 c 128,-1,46
 409 482 409 482 378.5 494.5 c 128,-1,47
 348 507 348 507 313 507 c 0,48,49
 261 507 261 507 213.5 480.5 c 128,-1,50
 166 454 166 454 130 411 c 128,-1,51
 94 368 94 368 72.5 315 c 128,-1,52
 51 262 51 262 51 210 c 0,53,54
 51 170 51 170 63.5 134 c 128,-1,55
 76 98 76 98 98.5 70.5 c 128,-1,56
 121 43 121 43 151.5 26.5 c 128,-1,57
 182 10 182 10 218 10 c 0,37,38
359 670 m 0,58,59
 379 670 379 670 398 687.5 c 128,-1,60
 417 705 417 705 425 730 c 1,61,-1
 443 730 l 1,62,63
 440 715 440 715 431 701 c 128,-1,64
 422 687 422 687 410 676.5 c 128,-1,65
 398 666 398 666 384 659.5 c 128,-1,66
 370 653 370 653 356 653 c 0,67,68
 331 653 331 653 315 671 c 128,-1,69
 299 689 299 689 299 715 c 0,70,71
 299 720 299 720 301 730 c 1,72,-1
 320 730 l 1,73,74
 319 726 319 726 319 719 c 0,75,76
 319 699 319 699 330.5 684.5 c 128,-1,77
 342 670 342 670 359 670 c 0,58,59
EndSplineSet
EndChar

StartChar: Aogonek
Encoding: 260 260 199
Width: 647
GlyphClass: 2
Flags: W
LayerCount: 2
Fore
SplineSet
485 -159 m 1,0,1
 466 -154 466 -154 456.5 -140.5 c 128,-1,2
 447 -127 447 -127 447 -110 c 0,3,4
 447 -82 447 -82 468 -56.5 c 128,-1,5
 489 -31 489 -31 543 4 c 1,6,-1
 493 254 l 1,7,-1
 142 254 l 1,8,-1
 -17 0 l 1,9,-1
 -39 0 l 1,10,-1
 406 710 l 1,11,-1
 424 710 l 1,12,-1
 566 0 l 1,13,14
 537 -18 537 -18 517.5 -32.5 c 128,-1,15
 498 -47 498 -47 487 -59 c 128,-1,16
 476 -71 476 -71 471.5 -82 c 128,-1,17
 467 -93 467 -93 467 -105 c 0,18,19
 467 -134 467 -134 501 -142 c 1,20,-1
 485 -159 l 1,0,1
489 274 m 1,21,-1
 409 681 l 1,22,-1
 154 274 l 1,23,-1
 489 274 l 1,21,-1
EndSplineSet
EndChar

